ISO-10303-21;
HEADER;
/* Generated by software containing ST-Developer
 * from STEP Tools, Inc. (www.steptools.com) 
 */

FILE_DESCRIPTION(
/* description */ (''),
/* implementation_level */ '2;1');

FILE_NAME(
/* name */ 'Electrode Case Cap.step',
/* time_stamp */ '2026-04-28T10:40:27-04:00',
/* author */ (''),
/* organization */ (''),
/* preprocessor_version */ 'ST-DEVELOPER v20.1',
/* originating_system */ 'Autodesk Translation Framework v15.8.0.0',
/* authorisation */ '');

FILE_SCHEMA (('AUTOMOTIVE_DESIGN { 1 0 10303 214 3 1 1 }'));
ENDSEC;

DATA;
#10=MECHANICAL_DESIGN_GEOMETRIC_PRESENTATION_REPRESENTATION('',(#13),#1212);
#11=SHAPE_REPRESENTATION_RELATIONSHIP('SRR','None',#1219,#12);
#12=ADVANCED_BREP_SHAPE_REPRESENTATION('',(#14),#1211);
#13=STYLED_ITEM('',(#1229),#14);
#14=MANIFOLD_SOLID_BREP('Body1',#215);
#15=FACE_BOUND('',#51,.T.);
#16=FACE_BOUND('',#53,.T.);
#17=B_SPLINE_SURFACE_WITH_KNOTS('',3,3,((#474,#475,#476,#477,#478,#479,
#480,#481,#482,#483,#484,#485,#486,#487,#488,#489,#490,#491,#492,#493,#494,
#495,#496,#497,#498),(#499,#500,#501,#502,#503,#504,#505,#506,#507,#508,
#509,#510,#511,#512,#513,#514,#515,#516,#517,#518,#519,#520,#521,#522,#523),
(#524,#525,#526,#527,#528,#529,#530,#531,#532,#533,#534,#535,#536,#537,
#538,#539,#540,#541,#542,#543,#544,#545,#546,#547,#548),(#549,#550,#551,
#552,#553,#554,#555,#556,#557,#558,#559,#560,#561,#562,#563,#564,#565,#566,
#567,#568,#569,#570,#571,#572,#573)),.UNSPECIFIED.,.F.,.F.,.F.,(4,4),(4,
1,1,1,1,1,1,1,1,1,1,1,1,1,1,1,1,1,1,1,1,1,4),(0.,0.0989058746148748),(8.30469639337594,
8.77965367535257,9.2546109573292,9.72956823930583,10.2045255212825,10.6794828032591,
11.1544400852357,11.6293973672124,12.104354649189,12.5793119311656,13.0542692131422,
13.5292264951189,14.0041837770955,14.4791410590721,14.9540983410488,15.4290556230254,
15.904012905002,16.3789701869787,16.8539274689553,17.3288847509319,17.8038420329086,
18.2787993148852,18.7537565968618),.UNSPECIFIED.);
#18=B_SPLINE_SURFACE_WITH_KNOTS('',3,3,((#858,#859,#860,#861,#862,#863,
#864,#865,#866,#867,#868,#869,#870,#871,#872,#873,#874,#875,#876,#877,#878,
#879,#880,#881,#882),(#883,#884,#885,#886,#887,#888,#889,#890,#891,#892,
#893,#894,#895,#896,#897,#898,#899,#900,#901,#902,#903,#904,#905,#906,#907),
(#908,#909,#910,#911,#912,#913,#914,#915,#916,#917,#918,#919,#920,#921,
#922,#923,#924,#925,#926,#927,#928,#929,#930,#931,#932),(#933,#934,#935,
#936,#937,#938,#939,#940,#941,#942,#943,#944,#945,#946,#947,#948,#949,#950,
#951,#952,#953,#954,#955,#956,#957)),.UNSPECIFIED.,.F.,.F.,.F.,(4,4),(4,
1,1,1,1,1,1,1,1,1,1,1,1,1,1,1,1,1,1,1,1,1,4),(0.,0.0989058746148748),(11.6149723878395,
12.0899296698161,12.5648869517928,13.0398442337694,13.514801515746,13.9897587977227,
14.4647160796993,14.9396733616759,15.4146306436526,15.8895879256292,16.3645452076058,
16.8395024895825,17.3144597715591,17.7894170535357,18.2643743355123,18.739331617489,
19.2142888994656,19.6892461814422,20.1642034634189,20.6391607453955,21.1141180273721,
21.5890753093488,22.0640325913254),.UNSPECIFIED.);
#19=TOROIDAL_SURFACE('',#238,8.75,0.5);
#20=PLANE('',#237);
#21=PLANE('',#244);
#22=PLANE('',#249);
#23=PLANE('',#250);
#24=FACE_OUTER_BOUND('',#38,.T.);
#25=FACE_OUTER_BOUND('',#39,.T.);
#26=FACE_OUTER_BOUND('',#40,.T.);
#27=FACE_OUTER_BOUND('',#41,.T.);
#28=FACE_OUTER_BOUND('',#42,.T.);
#29=FACE_OUTER_BOUND('',#43,.T.);
#30=FACE_OUTER_BOUND('',#44,.T.);
#31=FACE_OUTER_BOUND('',#45,.T.);
#32=FACE_OUTER_BOUND('',#46,.T.);
#33=FACE_OUTER_BOUND('',#47,.T.);
#34=FACE_OUTER_BOUND('',#48,.T.);
#35=FACE_OUTER_BOUND('',#49,.T.);
#36=FACE_OUTER_BOUND('',#50,.T.);
#37=FACE_OUTER_BOUND('',#52,.T.);
#38=EDGE_LOOP('',(#136,#137,#138,#139));
#39=EDGE_LOOP('',(#140,#141,#142,#143));
#40=EDGE_LOOP('',(#144,#145,#146,#147));
#41=EDGE_LOOP('',(#148,#149,#150,#151));
#42=EDGE_LOOP('',(#152));
#43=EDGE_LOOP('',(#153,#154,#155,#156));
#44=EDGE_LOOP('',(#157,#158,#159,#160));
#45=EDGE_LOOP('',(#161));
#46=EDGE_LOOP('',(#162,#163,#164,#165,#166,#167,#168));
#47=EDGE_LOOP('',(#169,#170,#171,#172));
#48=EDGE_LOOP('',(#173,#174,#175,#176,#177,#178,#179));
#49=EDGE_LOOP('',(#180,#181,#182,#183));
#50=EDGE_LOOP('',(#184,#185,#186,#187));
#51=EDGE_LOOP('',(#188));
#52=EDGE_LOOP('',(#189));
#53=EDGE_LOOP('',(#190,#191,#192,#193));
#54=CIRCLE('',#230,8.425);
#55=CIRCLE('',#233,7.56845);
#56=CIRCLE('',#235,6.5);
#57=CIRCLE('',#236,6.5);
#58=CIRCLE('',#239,9.25);
#59=CIRCLE('',#240,0.5);
#60=CIRCLE('',#241,8.75);
#61=CIRCLE('',#243,9.25);
#62=CIRCLE('',#246,7.56845);
#63=CIRCLE('',#248,8.425);
#64=B_SPLINE_CURVE_WITH_KNOTS('',3,(#308,#309,#310,#311,#312,#313,#314,
#315,#316,#317,#318,#319,#320,#321,#322,#323),.UNSPECIFIED.,.F.,.F.,(4,
3,3,3,3,4),(-4.09299088010945,-3.79965825581305,-3.32470097383642,-2.84974369185978,
-2.37478640988316,-2.07147979391309),.UNSPECIFIED.);
#65=B_SPLINE_CURVE_WITH_KNOTS('',3,(#326,#327,#328,#329,#330,#331,#332,
#333,#334,#335),.UNSPECIFIED.,.F.,.F.,(4,3,3,4),(0.,0.474957281976632,0.949914563953261,
1.12008156739344),.UNSPECIFIED.);
#66=B_SPLINE_CURVE_WITH_KNOTS('',3,(#340,#341,#342,#343,#344,#345,#346,
#347,#348,#349,#350,#351,#352,#353,#354,#355,#356,#357,#358,#359,#360,#361,
#362,#363,#364,#365,#366,#367,#368,#369,#370,#371,#372,#373,#374,#375,#376,
#377,#378,#379,#380,#381,#382),.UNSPECIFIED.,.F.,.F.,(4,3,3,3,3,3,3,3,3,
3,3,3,3,3,4),(-10.376176187289,-9.97410292150925,-9.49914563953262,-9.02418835755599,
-8.54923107557936,-8.07427379360273,-7.59931651162609,-7.12435922964947,
-6.64940194767283,-6.1744446656962,-5.69948738371957,-5.22453010174294,
-4.74957281976631,-4.27461553778968,-4.09299088010945),.UNSPECIFIED.);
#67=B_SPLINE_CURVE_WITH_KNOTS('',3,(#383,#384,#385,#386,#387,#388,#389,
#390,#391,#392,#393,#394,#395,#396,#397,#398,#399,#400,#401,#402,#403,#404,
#405,#406,#407,#408,#409,#410,#411,#412,#413,#414,#415,#416,#417,#418,#419,
#420,#421,#422,#423,#424,#425),.UNSPECIFIED.,.F.,.F.,(4,3,3,3,3,3,3,3,3,
3,3,3,3,3,4),(1.12008156739344,1.42487184592989,1.89982912790652,2.37478640988315,
2.84974369185979,3.32470097383642,3.79965825581305,4.27461553778968,4.74957281976631,
5.22453010174294,5.69948738371957,6.1744446656962,6.64940194767283,7.12435922964946,
7.40326687457303),.UNSPECIFIED.);
#68=B_SPLINE_CURVE_WITH_KNOTS('',3,(#431,#432,#433,#434,#435,#436,#437,
#438,#439,#440,#441,#442,#443),.UNSPECIFIED.,.F.,.F.,(4,1,1,1,1,1,1,1,1,
1,4),(15.707963267949,15.8895879256292,16.3645452076058,16.8395024895825,
17.3144597715591,17.7894170535357,18.2643743355123,18.739331617489,19.2142888994656,
19.6892461814422,19.9925527974123),.UNSPECIFIED.);
#69=B_SPLINE_CURVE_WITH_KNOTS('',3,(#446,#447,#448,#449,#450,#451,#452,
#453,#454,#455),.UNSPECIFIED.,.F.,.F.,(4,1,1,1,1,1,1,4),(15.707963267949,
15.904012905002,16.3789701869787,16.8539274689553,17.3288847509319,17.8038420329086,
18.2787993148852,18.7537565968618),.UNSPECIFIED.);
#70=B_SPLINE_CURVE_WITH_KNOTS('',3,(#575,#576,#577,#578,#579,#580,#581,
#582,#583,#584,#585,#586,#587,#588,#589,#590,#591,#592,#593,#594,#595,#596,
#597,#598,#599,#600,#601,#602,#603,#604,#605,#606,#607,#608,#609,#610,#611,
#612,#613,#614,#615,#616,#617,#618,#619,#620,#621,#622,#623,#624,#625,#626,
#627,#628,#629,#630,#631,#632,#633,#634,#635,#636,#637,#638,#639,#640,#641,
#642,#643,#644,#645,#646,#647,#648,#649,#650,#651,#652,#653,#654,#655,#656,
#657,#658,#659,#660,#661,#662,#663,#664,#665,#666,#667,#668,#669,#670,#671,
#672,#673,#674,#675,#676,#677,#678,#679,#680,#681,#682,#683,#684,#685,#686,
#687,#688,#689,#690,#691,#692,#693,#694,#695,#696,#697,#698),
 .UNSPECIFIED.,.F.,.F.,(4,3,3,3,3,3,3,3,3,3,3,3,3,3,3,3,3,3,3,3,3,3,3,3,
3,3,3,3,3,3,3,3,3,3,3,3,3,3,3,3,3,4),(0.,0.065265069748503,0.130368926277536,
0.14462884402308,0.210009907709241,0.275170749518605,0.308120172486243,
0.320644303246544,0.330786277987385,0.395153124162509,0.459512252904226,
0.523241363969537,0.538766133259709,0.60305740161835,0.625047311682473,
0.642646595766911,0.650090558609197,0.713250302391547,0.7767317920607,0.839887723724349,
0.902029077090449,0.923647718728993,0.9471203771902,0.956932178788956,0.963321885018894,
1.02537162127812,1.08791068038392,1.15021110072005,1.21189980241906,1.25555502826368,
1.26525804675164,1.27358986008904,1.2992102541083,1.36086451855109,1.42260078919176,
1.45291145389414,1.46352946692092,1.47260556189451,1.53369141796492,1.59449119494482,
1.65438179749582,1.66508610681078),.UNSPECIFIED.);
#71=B_SPLINE_CURVE_WITH_KNOTS('',3,(#699,#700,#701,#702,#703,#704,#705,
#706,#707,#708),.UNSPECIFIED.,.F.,.F.,(4,3,3,4),(7.40326687457303,7.59931651162609,
8.07427379360272,8.37758040957278),.UNSPECIFIED.);
#72=B_SPLINE_CURVE_WITH_KNOTS('',3,(#710,#711,#712,#713,#714,#715,#716,
#717,#718,#719,#720,#721,#722,#723,#724,#725,#726,#727,#728,#729,#730,#731,
#732,#733,#734,#735,#736,#737,#738,#739,#740,#741,#742,#743,#744,#745,#746,
#747,#748,#749,#750,#751,#752,#753,#754,#755,#756,#757,#758,#759,#760,#761,
#762,#763,#764,#765,#766,#767,#768,#769,#770,#771,#772,#773,#774,#775,#776,
#777,#778,#779,#780,#781,#782,#783,#784,#785,#786,#787,#788,#789,#790,#791,
#792,#793,#794,#795,#796,#797,#798,#799,#800,#801,#802,#803,#804,#805,#806,
#807,#808,#809,#810,#811,#812,#813,#814,#815,#816,#817,#818,#819,#820,#821,
#822,#823,#824,#825,#826,#827),.UNSPECIFIED.,.F.,.F.,(4,3,3,3,3,3,3,3,3,
3,3,3,3,3,3,3,3,3,3,3,3,3,3,3,3,3,3,3,3,3,3,3,3,3,3,3,3,3,3,4),(-1.66508610681075,
-1.60412921539332,-1.54304824645828,-1.53391521217236,-1.48775592706308,
-1.46954271510205,-1.46083112609504,-1.39981219096385,-1.33806610379612,
-1.29470981067162,-1.27616460250305,-1.26644654804227,-1.25822757813898,
-1.19581755978425,-1.16464093129811,-1.10265799316595,-1.04018337607557,
-0.976514010463073,-0.960857820576347,-0.953669917401578,-0.890631069223534,
-0.827107770260775,-0.785505913625595,-0.722193892669182,-0.68157501984489,
-0.659680281769981,-0.645408669868708,-0.637953457155491,-0.574048956133138,
-0.509683828806318,-0.445374211092821,-0.39724291007484,-0.347587546315485,
-0.332921723016363,-0.325069698666781,-0.261085915841609,-0.195814436881207,
-0.130422251789063,-0.0652111258945315,0.),.UNSPECIFIED.);
#73=B_SPLINE_CURVE_WITH_KNOTS('',3,(#828,#829,#830,#831,#832,#833,#834,
#835,#836,#837,#838,#839,#840,#841,#842),.UNSPECIFIED.,.F.,.F.,(4,1,1,1,
1,1,1,1,1,1,1,1,4),(10.376176187289,10.6794828032591,11.1544400852357,11.6293973672124,
12.104354649189,12.5793119311656,13.0542692131422,13.5292264951189,14.0041837770955,
14.4791410590721,14.9540983410488,15.4290556230254,15.707963267949),
 .UNSPECIFIED.);
#74=B_SPLINE_CURVE_WITH_KNOTS('',3,(#846,#847,#848,#849,#850,#851,#852,
#853,#854,#855,#856,#857),.UNSPECIFIED.,.F.,.F.,(4,1,1,1,1,1,1,1,1,4),(11.6149723878395,
12.0899296698161,12.5648869517928,13.0398442337694,13.514801515746,13.9897587977227,
14.4647160796993,14.9396733616759,15.4146306436526,15.707963267949),
 .UNSPECIFIED.);
#75=B_SPLINE_CURVE_WITH_KNOTS('',3,(#959,#960,#961,#962,#963,#964,#965,
#966,#967,#968,#969,#970,#971,#972,#973,#974,#975,#976,#977,#978,#979,#980,
#981,#982,#983,#984,#985,#986,#987,#988,#989,#990,#991,#992,#993,#994,#995,
#996,#997,#998,#999,#1000,#1001,#1002,#1003,#1004,#1005,#1006,#1007,#1008,
#1009,#1010,#1011,#1012,#1013,#1014,#1015,#1016,#1017,#1018,#1019,#1020,
#1021,#1022,#1023,#1024,#1025,#1026,#1027,#1028,#1029,#1030,#1031,#1032,
#1033,#1034,#1035,#1036,#1037,#1038,#1039,#1040,#1041,#1042,#1043,#1044,
#1045,#1046,#1047,#1048,#1049,#1050,#1051,#1052,#1053,#1054,#1055,#1056,
#1057,#1058,#1059,#1060,#1061,#1062,#1063,#1064,#1065,#1066,#1067,#1068,
#1069,#1070,#1071,#1072,#1073,#1074,#1075,#1076,#1077,#1078,#1079,#1080,
#1081,#1082),.UNSPECIFIED.,.F.,.F.,(4,3,3,3,3,3,3,3,3,3,3,3,3,3,3,3,3,3,
3,3,3,3,3,3,3,3,3,3,3,3,3,3,3,3,3,3,3,3,3,3,3,4),(0.,0.0606953911415259,
0.121869502286405,0.131088825202711,0.19190419320944,0.253027508268435,
0.283926454627737,0.294286797436819,0.303272559687603,0.364879706847958,
0.426929690182153,0.48896675445409,0.500219079142848,0.562215197256725,
0.58458792053725,0.597726528511717,0.60771042833602,0.669629308461729,0.732570264436657,
0.795643827788569,0.858220904970311,0.878394276578707,0.902590134412762,
0.911230448162999,0.918377175730924,0.980915722507546,1.04434872274471,
1.10834926110152,1.17215342384021,1.2188407128819,1.22945072019694,1.23790936898334,
1.26552800192358,1.32948501138017,1.39403463220542,1.42744876709827,1.43996314077122,
1.45079533314589,1.51597232770813,1.58133441276746,1.64628677718096,1.66134771134821),
 .UNSPECIFIED.);
#76=B_SPLINE_CURVE_WITH_KNOTS('',3,(#1083,#1084,#1085,#1086,#1087,#1088,
#1089,#1090,#1091,#1092,#1093,#1094,#1095,#1096,#1097,#1098,#1099,#1100,
#1101,#1102,#1103,#1104,#1105,#1106,#1107,#1108,#1109,#1110,#1111,#1112,
#1113,#1114,#1115,#1116,#1117,#1118,#1119,#1120,#1121,#1122,#1123,#1124,
#1125,#1126,#1127,#1128,#1129,#1130,#1131,#1132,#1133,#1134,#1135,#1136,
#1137,#1138,#1139,#1140,#1141,#1142,#1143,#1144,#1145,#1146,#1147,#1148,
#1149,#1150,#1151,#1152,#1153,#1154,#1155,#1156,#1157,#1158,#1159,#1160,
#1161,#1162,#1163,#1164,#1165,#1166,#1167,#1168,#1169,#1170,#1171,#1172,
#1173,#1174,#1175,#1176,#1177,#1178,#1179,#1180,#1181,#1182,#1183,#1184,
#1185,#1186,#1187,#1188,#1189,#1190,#1191,#1192,#1193,#1194,#1195,#1196,
#1197,#1198,#1199,#1200),.UNSPECIFIED.,.F.,.F.,(4,3,3,3,3,3,3,3,3,3,3,3,
3,3,3,3,3,3,3,3,3,3,3,3,3,3,3,3,3,3,3,3,3,3,3,3,3,3,3,4),(-1.66134771134823,
-1.59607283027527,-1.53133135105274,-1.51722068678575,-1.46815147301958,
-1.4486468773977,-1.43790338674413,-1.37329414882848,-1.30876482567314,
-1.26274036341895,-1.24146984792891,-1.23031283891689,-1.22229991620038,
-1.15843410344111,-1.1246669766564,-1.06072528460015,-0.99679192630649,
-0.932734704044952,-0.916768683397984,-0.908094404472266,-0.845117320775813,
-0.782375487892059,-0.740563037260339,-0.677537097989792,-0.638549006160358,
-0.618042613141739,-0.606659565682986,-0.597647889694121,-0.53560055876615,
-0.473546219824408,-0.412216818020897,-0.365632363354322,-0.319928317935031,
-0.303247541415792,-0.293361466840292,-0.232597966603283,-0.171427874380712,
-0.110552067650293,-0.0507888058223789,0.),.UNSPECIFIED.);
#77=B_SPLINE_CURVE_WITH_KNOTS('',3,(#1201,#1202,#1203,#1204),
 .UNSPECIFIED.,.F.,.F.,(4,4),(-10.4490602034859,-10.376176187289),
 .UNSPECIFIED.);
#78=LINE('',#306,#83);
#79=LINE('',#339,#84);
#80=LINE('',#429,#85);
#81=LINE('',#460,#86);
#82=LINE('',#472,#87);
#83=VECTOR('',#255,7.);
#84=VECTOR('',#260,7.);
#85=VECTOR('',#263,7.56845);
#86=VECTOR('',#270,6.5);
#87=VECTOR('',#287,9.25);
#88=VERTEX_POINT('',#304);
#89=VERTEX_POINT('',#305);
#90=VERTEX_POINT('',#307);
#91=VERTEX_POINT('',#324);
#92=VERTEX_POINT('',#337);
#93=VERTEX_POINT('',#338);
#94=VERTEX_POINT('',#427);
#95=VERTEX_POINT('',#428);
#96=VERTEX_POINT('',#430);
#97=VERTEX_POINT('',#444);
#98=VERTEX_POINT('',#457);
#99=VERTEX_POINT('',#459);
#100=VERTEX_POINT('',#464);
#101=VERTEX_POINT('',#466);
#102=VERTEX_POINT('',#470);
#103=VERTEX_POINT('',#574);
#104=VERTEX_POINT('',#709);
#105=VERTEX_POINT('',#844);
#106=VERTEX_POINT('',#958);
#107=EDGE_CURVE('',#88,#89,#78,.T.);
#108=EDGE_CURVE('',#88,#90,#64,.T.);
#109=EDGE_CURVE('',#91,#90,#54,.T.);
#110=EDGE_CURVE('',#91,#89,#65,.T.);
#111=EDGE_CURVE('',#92,#93,#79,.T.);
#112=EDGE_CURVE('',#92,#88,#66,.T.);
#113=EDGE_CURVE('',#89,#93,#67,.T.);
#114=EDGE_CURVE('',#94,#95,#80,.T.);
#115=EDGE_CURVE('',#94,#96,#68,.T.);
#116=EDGE_CURVE('',#97,#96,#55,.T.);
#117=EDGE_CURVE('',#95,#97,#69,.T.);
#118=EDGE_CURVE('',#98,#98,#56,.T.);
#119=EDGE_CURVE('',#98,#99,#81,.T.);
#120=EDGE_CURVE('',#99,#99,#57,.T.);
#121=EDGE_CURVE('',#100,#100,#58,.T.);
#122=EDGE_CURVE('',#100,#101,#59,.T.);
#123=EDGE_CURVE('',#101,#101,#60,.T.);
#124=EDGE_CURVE('',#102,#102,#61,.T.);
#125=EDGE_CURVE('',#102,#100,#82,.T.);
#126=EDGE_CURVE('',#103,#97,#70,.T.);
#127=EDGE_CURVE('',#93,#103,#71,.T.);
#128=EDGE_CURVE('',#104,#91,#72,.T.);
#129=EDGE_CURVE('',#104,#95,#73,.T.);
#130=EDGE_CURVE('',#105,#104,#62,.T.);
#131=EDGE_CURVE('',#105,#94,#74,.T.);
#132=EDGE_CURVE('',#96,#106,#75,.T.);
#133=EDGE_CURVE('',#90,#105,#76,.T.);
#134=EDGE_CURVE('',#106,#92,#77,.T.);
#135=EDGE_CURVE('',#106,#103,#63,.F.);
#136=ORIENTED_EDGE('',*,*,#107,.F.);
#137=ORIENTED_EDGE('',*,*,#108,.T.);
#138=ORIENTED_EDGE('',*,*,#109,.F.);
#139=ORIENTED_EDGE('',*,*,#110,.T.);
#140=ORIENTED_EDGE('',*,*,#111,.F.);
#141=ORIENTED_EDGE('',*,*,#112,.T.);
#142=ORIENTED_EDGE('',*,*,#107,.T.);
#143=ORIENTED_EDGE('',*,*,#113,.T.);
#144=ORIENTED_EDGE('',*,*,#114,.F.);
#145=ORIENTED_EDGE('',*,*,#115,.T.);
#146=ORIENTED_EDGE('',*,*,#116,.F.);
#147=ORIENTED_EDGE('',*,*,#117,.F.);
#148=ORIENTED_EDGE('',*,*,#118,.F.);
#149=ORIENTED_EDGE('',*,*,#119,.T.);
#150=ORIENTED_EDGE('',*,*,#120,.T.);
#151=ORIENTED_EDGE('',*,*,#119,.F.);
#152=ORIENTED_EDGE('',*,*,#120,.F.);
#153=ORIENTED_EDGE('',*,*,#121,.T.);
#154=ORIENTED_EDGE('',*,*,#122,.T.);
#155=ORIENTED_EDGE('',*,*,#123,.T.);
#156=ORIENTED_EDGE('',*,*,#122,.F.);
#157=ORIENTED_EDGE('',*,*,#124,.F.);
#158=ORIENTED_EDGE('',*,*,#125,.T.);
#159=ORIENTED_EDGE('',*,*,#121,.F.);
#160=ORIENTED_EDGE('',*,*,#125,.F.);
#161=ORIENTED_EDGE('',*,*,#123,.F.);
#162=ORIENTED_EDGE('',*,*,#126,.F.);
#163=ORIENTED_EDGE('',*,*,#127,.F.);
#164=ORIENTED_EDGE('',*,*,#113,.F.);
#165=ORIENTED_EDGE('',*,*,#110,.F.);
#166=ORIENTED_EDGE('',*,*,#128,.F.);
#167=ORIENTED_EDGE('',*,*,#129,.T.);
#168=ORIENTED_EDGE('',*,*,#117,.T.);
#169=ORIENTED_EDGE('',*,*,#114,.T.);
#170=ORIENTED_EDGE('',*,*,#129,.F.);
#171=ORIENTED_EDGE('',*,*,#130,.F.);
#172=ORIENTED_EDGE('',*,*,#131,.T.);
#173=ORIENTED_EDGE('',*,*,#132,.F.);
#174=ORIENTED_EDGE('',*,*,#115,.F.);
#175=ORIENTED_EDGE('',*,*,#131,.F.);
#176=ORIENTED_EDGE('',*,*,#133,.F.);
#177=ORIENTED_EDGE('',*,*,#108,.F.);
#178=ORIENTED_EDGE('',*,*,#112,.F.);
#179=ORIENTED_EDGE('',*,*,#134,.F.);
#180=ORIENTED_EDGE('',*,*,#111,.T.);
#181=ORIENTED_EDGE('',*,*,#127,.T.);
#182=ORIENTED_EDGE('',*,*,#135,.F.);
#183=ORIENTED_EDGE('',*,*,#134,.T.);
#184=ORIENTED_EDGE('',*,*,#132,.T.);
#185=ORIENTED_EDGE('',*,*,#135,.T.);
#186=ORIENTED_EDGE('',*,*,#126,.T.);
#187=ORIENTED_EDGE('',*,*,#116,.T.);
#188=ORIENTED_EDGE('',*,*,#118,.T.);
#189=ORIENTED_EDGE('',*,*,#124,.T.);
#190=ORIENTED_EDGE('',*,*,#109,.T.);
#191=ORIENTED_EDGE('',*,*,#133,.T.);
#192=ORIENTED_EDGE('',*,*,#130,.T.);
#193=ORIENTED_EDGE('',*,*,#128,.T.);
#194=CYLINDRICAL_SURFACE('',#229,8.425);
#195=CYLINDRICAL_SURFACE('',#231,8.425);
#196=CYLINDRICAL_SURFACE('',#232,7.56845);
#197=CYLINDRICAL_SURFACE('',#234,6.5);
#198=CYLINDRICAL_SURFACE('',#242,9.25);
#199=CYLINDRICAL_SURFACE('',#245,7.56845);
#200=CYLINDRICAL_SURFACE('',#247,8.425);
#201=ADVANCED_FACE('',(#24),#194,.T.);
#202=ADVANCED_FACE('',(#25),#195,.T.);
#203=ADVANCED_FACE('',(#26),#196,.T.);
#204=ADVANCED_FACE('',(#27),#197,.F.);
#205=ADVANCED_FACE('',(#28),#20,.T.);
#206=ADVANCED_FACE('',(#29),#19,.T.);
#207=ADVANCED_FACE('',(#30),#198,.T.);
#208=ADVANCED_FACE('',(#31),#21,.F.);
#209=ADVANCED_FACE('',(#32),#17,.F.);
#210=ADVANCED_FACE('',(#33),#199,.T.);
#211=ADVANCED_FACE('',(#34),#18,.F.);
#212=ADVANCED_FACE('',(#35),#200,.T.);
#213=ADVANCED_FACE('',(#36,#15),#22,.T.);
#214=ADVANCED_FACE('',(#37,#16),#23,.T.);
#215=CLOSED_SHELL('',(#201,#202,#203,#204,#205,#206,#207,#208,#209,#210,
#211,#212,#213,#214));
#216=DERIVED_UNIT_ELEMENT(#218,1.);
#217=DERIVED_UNIT_ELEMENT(#1214,-3.);
#218=(
MASS_UNIT()
NAMED_UNIT(*)
SI_UNIT(.KILO.,.GRAM.)
);
#219=DERIVED_UNIT((#216,#217));
#220=MEASURE_REPRESENTATION_ITEM('density measure',
POSITIVE_RATIO_MEASURE(7850.),#219);
#221=PROPERTY_DEFINITION_REPRESENTATION(#226,#223);
#222=PROPERTY_DEFINITION_REPRESENTATION(#227,#224);
#223=REPRESENTATION('material name',(#225),#1211);
#224=REPRESENTATION('density',(#220),#1211);
#225=DESCRIPTIVE_REPRESENTATION_ITEM('Steel','Steel');
#226=PROPERTY_DEFINITION('material property','material name',#1221);
#227=PROPERTY_DEFINITION('material property','density of part',#1221);
#228=AXIS2_PLACEMENT_3D('',#302,#251,#252);
#229=AXIS2_PLACEMENT_3D('',#303,#253,#254);
#230=AXIS2_PLACEMENT_3D('',#325,#256,#257);
#231=AXIS2_PLACEMENT_3D('',#336,#258,#259);
#232=AXIS2_PLACEMENT_3D('',#426,#261,#262);
#233=AXIS2_PLACEMENT_3D('',#445,#264,#265);
#234=AXIS2_PLACEMENT_3D('',#456,#266,#267);
#235=AXIS2_PLACEMENT_3D('',#458,#268,#269);
#236=AXIS2_PLACEMENT_3D('',#461,#271,#272);
#237=AXIS2_PLACEMENT_3D('',#462,#273,#274);
#238=AXIS2_PLACEMENT_3D('',#463,#275,#276);
#239=AXIS2_PLACEMENT_3D('',#465,#277,#278);
#240=AXIS2_PLACEMENT_3D('',#467,#279,#280);
#241=AXIS2_PLACEMENT_3D('',#468,#281,#282);
#242=AXIS2_PLACEMENT_3D('',#469,#283,#284);
#243=AXIS2_PLACEMENT_3D('',#471,#285,#286);
#244=AXIS2_PLACEMENT_3D('',#473,#288,#289);
#245=AXIS2_PLACEMENT_3D('',#843,#290,#291);
#246=AXIS2_PLACEMENT_3D('',#845,#292,#293);
#247=AXIS2_PLACEMENT_3D('',#1205,#294,#295);
#248=AXIS2_PLACEMENT_3D('',#1206,#296,#297);
#249=AXIS2_PLACEMENT_3D('',#1207,#298,#299);
#250=AXIS2_PLACEMENT_3D('',#1208,#300,#301);
#251=DIRECTION('axis',(0.,0.,1.));
#252=DIRECTION('refdir',(1.,0.,0.));
#253=DIRECTION('center_axis',(0.,0.,1.));
#254=DIRECTION('ref_axis',(0.531220143659514,-0.847233827801019,0.));
#255=DIRECTION('',(0.,0.,-1.));
#256=DIRECTION('center_axis',(0.,0.,-1.));
#257=DIRECTION('ref_axis',(-1.,0.,0.));
#258=DIRECTION('center_axis',(0.,0.,1.));
#259=DIRECTION('ref_axis',(-1.,0.,0.));
#260=DIRECTION('',(0.,0.,-1.));
#261=DIRECTION('center_axis',(0.,0.,1.));
#262=DIRECTION('ref_axis',(-1.,-2.72648938232173E-16,3.6672734332167E-17));
#263=DIRECTION('',(0.,0.,1.));
#264=DIRECTION('center_axis',(0.,0.,1.));
#265=DIRECTION('ref_axis',(-1.,-2.72648938232173E-16,3.6672734332167E-17));
#266=DIRECTION('center_axis',(0.,0.,-1.));
#267=DIRECTION('ref_axis',(-1.,0.,0.));
#268=DIRECTION('center_axis',(0.,0.,-1.));
#269=DIRECTION('ref_axis',(-1.,0.,0.));
#270=DIRECTION('',(0.,0.,-1.));
#271=DIRECTION('center_axis',(0.,0.,-1.));
#272=DIRECTION('ref_axis',(-1.,0.,0.));
#273=DIRECTION('center_axis',(0.,0.,1.));
#274=DIRECTION('ref_axis',(-1.,0.,0.));
#275=DIRECTION('center_axis',(0.,0.,1.));
#276=DIRECTION('ref_axis',(1.,0.,0.));
#277=DIRECTION('center_axis',(0.,0.,-1.));
#278=DIRECTION('ref_axis',(1.,0.,0.));
#279=DIRECTION('center_axis',(1.22464679914735E-16,-1.,0.));
#280=DIRECTION('ref_axis',(-1.,-1.22464679914735E-16,0.));
#281=DIRECTION('center_axis',(0.,0.,1.));
#282=DIRECTION('ref_axis',(1.,0.,0.));
#283=DIRECTION('center_axis',(0.,0.,1.));
#284=DIRECTION('ref_axis',(1.,0.,0.));
#285=DIRECTION('center_axis',(0.,0.,1.));
#286=DIRECTION('ref_axis',(1.,0.,0.));
#287=DIRECTION('',(0.,0.,-1.));
#288=DIRECTION('center_axis',(0.,0.,1.));
#289=DIRECTION('ref_axis',(1.,0.,0.));
#290=DIRECTION('center_axis',(0.,0.,1.));
#291=DIRECTION('ref_axis',(-0.888973104902405,-0.457959407327961,3.6672734332167E-17));
#292=DIRECTION('center_axis',(0.,0.,-1.));
#293=DIRECTION('ref_axis',(-1.,-2.72648938232173E-16,3.6672734332167E-17));
#294=DIRECTION('center_axis',(0.,0.,1.));
#295=DIRECTION('ref_axis',(-1.,0.,0.));
#296=DIRECTION('center_axis',(0.,0.,-1.));
#297=DIRECTION('ref_axis',(-1.,0.,0.));
#298=DIRECTION('center_axis',(0.,0.,1.));
#299=DIRECTION('ref_axis',(-1.,0.,0.));
#300=DIRECTION('center_axis',(0.,0.,1.));
#301=DIRECTION('ref_axis',(1.,0.,0.));
#302=CARTESIAN_POINT('',(0.,0.,0.));
#303=CARTESIAN_POINT('Origin',(0.,0.,1.));
#304=CARTESIAN_POINT('',(8.424541556401,0.000110318103192508,1.48260022282482));
#305=CARTESIAN_POINT('',(8.42460896853738,-8.40212679797275E-5,1.26739977717518));
#306=CARTESIAN_POINT('',(8.425,1.03176492828165E-15,1.));
#307=CARTESIAN_POINT('',(-3.66994176678153,-7.58323177178867,1.));
#308=CARTESIAN_POINT('Ctrl Pts',(8.424541556401,0.000110318103192508,1.48260022282482));
#309=CARTESIAN_POINT('Ctrl Pts',(8.42411698955812,-0.823782384917101,1.45925755426138));
#310=CARTESIAN_POINT('Ctrl Pts',(8.30383733523746,-1.64779643736769,1.43591488569793));
#311=CARTESIAN_POINT('Ctrl Pts',(8.06569983569942,-2.43621137358915,1.41257221713449));
#312=CARTESIAN_POINT('Ctrl Pts',(7.68011320077056,-3.71279428377763,1.37477631754245));
#313=CARTESIAN_POINT('Ctrl Pts',(6.98553483112772,-4.89604583653606,1.33698041795042));
#314=CARTESIAN_POINT('Ctrl Pts',(6.05884555297967,-5.85499933830216,1.29918451835838));
#315=CARTESIAN_POINT('Ctrl Pts',(5.13215627483162,-6.81395284006825,1.26138861876634));
#316=CARTESIAN_POINT('Ctrl Pts',(3.97335608817835,-7.54860829084201,1.22359271917431));
#317=CARTESIAN_POINT('Ctrl Pts',(2.71071092989187,-7.97763864344229,1.18579681958227));
#318=CARTESIAN_POINT('Ctrl Pts',(1.44806577160539,-8.40666899604258,1.14800091999024));
#319=CARTESIAN_POINT('Ctrl Pts',(0.0815756416857044,-8.53007425046939,1.1102050203982));
#320=CARTESIAN_POINT('Ctrl Pts',(-1.23750770141969,-8.33421479658903,1.07240912080617));
#321=CARTESIAN_POINT('Ctrl Pts',(-2.07987125738989,-8.20913940472438,1.04827274720411));
#322=CARTESIAN_POINT('Ctrl Pts',(-2.90290199430247,-7.95386563300827,1.02413637360206));
#323=CARTESIAN_POINT('Ctrl Pts',(-3.66994176678153,-7.58323177178867,1.));
#324=CARTESIAN_POINT('',(3.67000604388606,-7.58364560339154,1.));
#325=CARTESIAN_POINT('Origin',(0.,0.,1.));
#326=CARTESIAN_POINT('Ctrl Pts',(3.67000604388605,-7.58364560339154,1.));
#327=CARTESIAN_POINT('Ctrl Pts',(4.87064194497301,-7.00261357157757,1.03779589959204));
#328=CARTESIAN_POINT('Ctrl Pts',(5.93035978234007,-6.13165233818831,1.07559179918407));
#329=CARTESIAN_POINT('Ctrl Pts',(6.73221558407346,-5.06628254973633,1.11338769877611));
#330=CARTESIAN_POINT('Ctrl Pts',(7.53407138580686,-4.00091276128435,1.15118359836814));
#331=CARTESIAN_POINT('Ctrl Pts',(8.07806515190659,-2.74113441776964,1.18897949796018));
#332=CARTESIAN_POINT('Ctrl Pts',(8.30390878001903,-1.42681049267002,1.22677539755222));
#333=CARTESIAN_POINT('Ctrl Pts',(8.38482370626674,-0.95591643046477,1.24031685742654));
#334=CARTESIAN_POINT('Ctrl Pts',(8.42489976247992,-0.478020705675317,1.25385831730086));
#335=CARTESIAN_POINT('Ctrl Pts',(8.42460896853738,-8.40212679797275E-5,
1.26739977717518));
#336=CARTESIAN_POINT('Origin',(0.,0.,1.));
#337=CARTESIAN_POINT('',(8.42471993059419,5.69702505448522E-6,2.98260022282482));
#338=CARTESIAN_POINT('',(8.42448690830363,8.64672408335233E-5,2.76739977717518));
#339=CARTESIAN_POINT('',(8.425,1.03176492828165E-15,1.));
#340=CARTESIAN_POINT('Ctrl Pts',(8.42471993059419,5.69702505448522E-6,2.98260022282482));
#341=CARTESIAN_POINT('Ctrl Pts',(8.42388743476942,-1.12913768130699,2.95060424895785));
#342=CARTESIAN_POINT('Ctrl Pts',(8.19529108369319,-2.25832081471867,2.91860827509087));
#343=CARTESIAN_POINT('Ctrl Pts',(7.75364010660618,-3.29712807528592,2.88661230122389));
#344=CARTESIAN_POINT('Ctrl Pts',(7.23193084236861,-4.52424043258164,2.84881640163186));
#345=CARTESIAN_POINT('Ctrl Pts',(6.41292516140805,-5.62524230047872,2.81102050203982));
#346=CARTESIAN_POINT('Ctrl Pts',(5.38760830864318,-6.47799063016347,2.77322460244778));
#347=CARTESIAN_POINT('Ctrl Pts',(4.36229145587831,-7.33073895984821,2.73542870285575));
#348=CARTESIAN_POINT('Ctrl Pts',(3.13066343130912,-7.93523375132062,2.69763280326371));
#349=CARTESIAN_POINT('Ctrl Pts',(1.82892894415346,-8.2246874459515,2.65983690367168));
#350=CARTESIAN_POINT('Ctrl Pts',(0.527194456997786,-8.51414114058238,2.62204100407964));
#351=CARTESIAN_POINT('Ctrl Pts',(-0.84464649274435,-8.48855373837174,2.58424510448761));
#352=CARTESIAN_POINT('Ctrl Pts',(-2.13468880419858,-8.15069796913811,2.54644920489557));
#353=CARTESIAN_POINT('Ctrl Pts',(-3.42473111565281,-7.81284219990447,2.50865330530353));
#354=CARTESIAN_POINT('Ctrl Pts',(-4.63297478881912,-7.16271806364784,2.4708574057115));
#355=CARTESIAN_POINT('Ctrl Pts',(-5.62571079254048,-6.27231533530084,2.43306150611946));
#356=CARTESIAN_POINT('Ctrl Pts',(-6.61844679626185,-5.38191260695385,2.39526560652742));
#357=CARTESIAN_POINT('Ctrl Pts',(-7.39567513053827,-4.25123128651647,2.35746970693539));
#358=CARTESIAN_POINT('Ctrl Pts',(-7.87135211798869,-3.00540977329449,2.31967380734335));
#359=CARTESIAN_POINT('Ctrl Pts',(-8.34702910543911,-1.75958826007251,2.28187790775132));
#360=CARTESIAN_POINT('Ctrl Pts',(-8.52115474606355,-0.398626554065926,2.24408200815928));
#361=CARTESIAN_POINT('Ctrl Pts',(-8.37446231511529,0.926826639180247,2.20628610856724));
#362=CARTESIAN_POINT('Ctrl Pts',(-8.22776988416703,2.25227983242643,2.16849020897521));
#363=CARTESIAN_POINT('Ctrl Pts',(-7.76025938164608,3.5422245129122,2.13069430938317));
#364=CARTESIAN_POINT('Ctrl Pts',(-7.02367514335637,4.65388302141391,2.09289840979114));
#365=CARTESIAN_POINT('Ctrl Pts',(-6.28709090506665,5.76554152991561,2.0551025101991));
#366=CARTESIAN_POINT('Ctrl Pts',(-5.2814329310082,6.69891386643325,2.01730661060706));
#367=CARTESIAN_POINT('Ctrl Pts',(-4.11801687071269,7.35068544260321,1.97951071101503));
#368=CARTESIAN_POINT('Ctrl Pts',(-2.9546008104172,8.00245701877315,1.94171481142299));
#369=CARTESIAN_POINT('Ctrl Pts',(-1.63342666388467,8.37262783459541,1.90391891183096));
#370=CARTESIAN_POINT('Ctrl Pts',(-0.300731405185927,8.42022545354122,1.86612301223892));
#371=CARTESIAN_POINT('Ctrl Pts',(1.03196385351282,8.46782307248702,1.82832711264688));
#372=CARTESIAN_POINT('Ctrl Pts',(2.37618022437779,8.19284749455636,1.79053121305485));
#373=CARTESIAN_POINT('Ctrl Pts',(3.58312901634619,7.62573448445034,1.75273531346281));
#374=CARTESIAN_POINT('Ctrl Pts',(4.7900778083146,7.05862147434431,1.71493941387078));
#375=CARTESIAN_POINT('Ctrl Pts',(5.85975902138646,6.1993710320629,1.67714351427874));
#376=CARTESIAN_POINT('Ctrl Pts',(6.67377230068901,5.14309239126468,1.6393476146867));
#377=CARTESIAN_POINT('Ctrl Pts',(7.48778557999156,4.08681375046646,1.60155171509467));
#378=CARTESIAN_POINT('Ctrl Pts',(8.04613092552481,2.83350691115143,1.56375581550263));
#379=CARTESIAN_POINT('Ctrl Pts',(8.28700614818399,1.52189635768465,1.5259599159106));
#380=CARTESIAN_POINT('Ctrl Pts',(8.3791173369567,1.02033373969135,1.511506684882));
#381=CARTESIAN_POINT('Ctrl Pts',(8.42480443819836,0.510245290338988,1.49705345385341));
#382=CARTESIAN_POINT('Ctrl Pts',(8.424541556401,0.000110318103192508,1.48260022282482));
#383=CARTESIAN_POINT('Ctrl Pts',(8.42460896853738,-8.40212679797275E-5,
1.26739977717518));
#384=CARTESIAN_POINT('Ctrl Pts',(8.42408812040023,0.855960054365687,1.29165421689289));
#385=CARTESIAN_POINT('Ctrl Pts',(8.29406530025487,1.71213553364538,1.31590865661061));
#386=CARTESIAN_POINT('Ctrl Pts',(8.03725280712641,2.52844514374973,1.34016309632832));
#387=CARTESIAN_POINT('Ctrl Pts',(7.63705971599619,3.8005073483853,1.37795899592036));
#388=CARTESIAN_POINT('Ctrl Pts',(6.92898004361063,4.9757622509719,1.4157548955124));
#389=CARTESIAN_POINT('Ctrl Pts',(5.99136723634994,5.92404367626069,1.45355079510443));
#390=CARTESIAN_POINT('Ctrl Pts',(5.05375442908924,6.87232510154948,1.49134669469647));
#391=CARTESIAN_POINT('Ctrl Pts',(3.88660848695342,7.59363304954046,1.52914259428851));
#392=CARTESIAN_POINT('Ctrl Pts',(2.61912906031404,8.00816635746776,1.56693849388054));
#393=CARTESIAN_POINT('Ctrl Pts',(1.35164963367465,8.42269966539505,1.60473439347258));
#394=CARTESIAN_POINT('Ctrl Pts',(-0.016163277468309,8.53045833325866,1.64253029306461));
#395=CARTESIAN_POINT('Ctrl Pts',(-1.33291486603974,8.31949589174811,1.68032619265665));
#396=CARTESIAN_POINT('Ctrl Pts',(-2.64966645461116,8.10853345023757,1.71812209224868));
#397=CARTESIAN_POINT('Ctrl Pts',(-3.91535672061105,7.57884989935288,1.75591799184072));
#398=CARTESIAN_POINT('Ctrl Pts',(-4.98988666532994,6.78908393602245,1.79371389143276));
#399=CARTESIAN_POINT('Ctrl Pts',(-6.06441661004884,5.99931797269201,1.83150979102479));
#400=CARTESIAN_POINT('Ctrl Pts',(-6.94778623348673,4.94946959691582,1.86930569061683));
#401=CARTESIAN_POINT('Ctrl Pts',(-7.54221863228418,3.7557396479878,1.90710159020886));
#402=CARTESIAN_POINT('Ctrl Pts',(-8.13665103108164,2.56200969905977,1.9448974898009));
#403=CARTESIAN_POINT('Ctrl Pts',(-8.44214620523865,1.2243981769799,1.98269338939294));
#404=CARTESIAN_POINT('Ctrl Pts',(-8.42488891817779,-0.109035493518902,2.02048928898497));
#405=CARTESIAN_POINT('Ctrl Pts',(-8.40763163111693,-1.4424691640177,2.05828518857701));
#406=CARTESIAN_POINT('Ctrl Pts',(-8.06762188283819,-2.77172498293544,2.09608108816904));
#407=CARTESIAN_POINT('Ctrl Pts',(-7.44249498820681,-3.94967176622614,2.13387698776108));
#408=CARTESIAN_POINT('Ctrl Pts',(-6.81736809357543,-5.12761854951685,2.17167288735312));
#409=CARTESIAN_POINT('Ctrl Pts',(-5.90712405259142,-6.15425629718052,2.20946878694515));
#410=CARTESIAN_POINT('Ctrl Pts',(-4.81251536451687,-6.91594811992767,2.24726468653719));
#411=CARTESIAN_POINT('Ctrl Pts',(-3.71790667644232,-7.67763994267482,2.28506058612922));
#412=CARTESIAN_POINT('Ctrl Pts',(-2.43893334127724,-8.17438584050544,2.32285648572126));
#413=CARTESIAN_POINT('Ctrl Pts',(-1.11716253812545,-8.35120270223496,2.3606523853133));
#414=CARTESIAN_POINT('Ctrl Pts',(0.204608265026329,-8.52801956396448,2.39844828490533));
#415=CARTESIAN_POINT('Ctrl Pts',(1.56917653616482,-8.3849073895929,2.43624418449737));
#416=CARTESIAN_POINT('Ctrl Pts',(2.82550222428064,-7.93770616759446,2.4740400840894));
#417=CARTESIAN_POINT('Ctrl Pts',(4.08182791239647,-7.49050494559601,2.51183598368144));
#418=CARTESIAN_POINT('Ctrl Pts',(5.22991101748962,-6.73921467597069,2.54963188327348));
#419=CARTESIAN_POINT('Ctrl Pts',(6.14267095735072,-5.76699537977638,2.58742778286551));
#420=CARTESIAN_POINT('Ctrl Pts',(7.05543089721181,-4.79477608358207,2.62522368245755));
#421=CARTESIAN_POINT('Ctrl Pts',(7.73286767184084,-3.60162776081876,2.66301958204958));
#422=CARTESIAN_POINT('Ctrl Pts',(8.10000111351938,-2.3196145335336,2.70081548164162));
#423=CARTESIAN_POINT('Ctrl Pts',(8.31559170972017,-1.56678200826967,2.72301024681947));
#424=CARTESIAN_POINT('Ctrl Pts',(8.42417875839929,-0.78330572567449,2.74520501199732));
#425=CARTESIAN_POINT('Ctrl Pts',(8.42448690830363,8.64672408335233E-5,2.76739977717518));
#426=CARTESIAN_POINT('Origin',(0.,0.,-1.7728704041008));
#427=CARTESIAN_POINT('',(7.56803816528701,9.91023202365669E-5,1.9771295958992));
#428=CARTESIAN_POINT('',(7.56798907313361,7.76763191553953E-5,2.2728704041008));
#429=CARTESIAN_POINT('',(7.56845,2.99039766326397E-15,-1.7728704041008));
#430=CARTESIAN_POINT('',(-3.13991960440787,-6.88638804311485,3.));
#431=CARTESIAN_POINT('Ctrl Pts',(7.56803816528701,9.91023202363134E-5,1.9771295958992));
#432=CARTESIAN_POINT('Ctrl Pts',(7.56827432050829,0.458369847794188,1.99158282692779));
#433=CARTESIAN_POINT('Ctrl Pts',(7.4199047757221,2.11488971826686,2.04383195754841));
#434=CARTESIAN_POINT('Ctrl Pts',(6.22494028990932,4.797203047802,2.13387698776108));
#435=CARTESIAN_POINT('Ctrl Pts',(3.3421525948089,7.11288044004579,2.24726468653719));
#436=CARTESIAN_POINT('Ctrl Pts',(-0.280506535899549,7.85393880661765,2.3606523853133));
#437=CARTESIAN_POINT('Ctrl Pts',(-3.84106694040668,6.85632955640636,2.4740400840894));
#438=CARTESIAN_POINT('Ctrl Pts',(-6.55131219634593,4.34089387914219,2.58742778286551));
#439=CARTESIAN_POINT('Ctrl Pts',(-7.81125161336839,0.864496792962058,2.70081548164162));
#440=CARTESIAN_POINT('Ctrl Pts',(-7.34198352857883,-2.80329096626367,2.81420318041773));
#441=CARTESIAN_POINT('Ctrl Pts',(-5.49968995703149,-5.48338745303123,2.91393135320385));
#442=CARTESIAN_POINT('Ctrl Pts',(-3.83579596986815,-6.56819850052976,2.97586362639794));
#443=CARTESIAN_POINT('Ctrl Pts',(-3.1396702846646,-6.88610630197219,3.));
#444=CARTESIAN_POINT('',(-7.5337467878588,0.723943878299442,3.));
#445=CARTESIAN_POINT('Origin',(0.,0.,3.));
#446=CARTESIAN_POINT('Ctrl Pts',(7.56798907313361,7.7676319154979E-5,2.2728704041008));
#447=CARTESIAN_POINT('Ctrl Pts',(7.56818365604538,0.494754883113087,2.28847153851499));
#448=CARTESIAN_POINT('Ctrl Pts',(7.40435450308247,2.18772809443956,2.3418685725212));
#449=CARTESIAN_POINT('Ctrl Pts',(6.15508240534115,4.88648641357714,2.43306150611946));
#450=CARTESIAN_POINT('Ctrl Pts',(3.23923251732557,7.1603688689679,2.54644920489557));
#451=CARTESIAN_POINT('Ctrl Pts',(-0.393822104600972,7.84903531008974,2.65983690367168));
#452=CARTESIAN_POINT('Ctrl Pts',(-3.93945035600988,6.80029413565808,2.77322460244778));
#453=CARTESIAN_POINT('Ctrl Pts',(-6.61348006824201,4.24576909281307,2.88661230122389));
#454=CARTESIAN_POINT('Ctrl Pts',(-7.41913264894523,1.91667984411995,2.96220410040796));
#455=CARTESIAN_POINT('Ctrl Pts',(-7.5337467878588,0.723943878299416,3.));
#456=CARTESIAN_POINT('Origin',(0.,0.,3.));
#457=CARTESIAN_POINT('',(6.5,7.9602041944578E-16,3.));
#458=CARTESIAN_POINT('Origin',(0.,0.,3.));
#459=CARTESIAN_POINT('',(6.5,7.9602041944578E-16,2.));
#460=CARTESIAN_POINT('',(6.5,-7.9602041944578E-16,3.));
#461=CARTESIAN_POINT('Origin',(0.,0.,2.));
#462=CARTESIAN_POINT('Origin',(0.,0.,2.));
#463=CARTESIAN_POINT('Origin',(0.,0.,0.5));
#464=CARTESIAN_POINT('',(-9.25,1.1327982892113E-15,0.5));
#465=CARTESIAN_POINT('Origin',(0.,0.,0.5));
#466=CARTESIAN_POINT('',(-8.75,-1.07156594925393E-15,0.));
#467=CARTESIAN_POINT('Origin',(-8.75,-1.07156594925393E-15,0.5));
#468=CARTESIAN_POINT('Origin',(0.,0.,0.));
#469=CARTESIAN_POINT('Origin',(0.,0.,0.));
#470=CARTESIAN_POINT('',(-9.25,-1.1327982892113E-15,1.));
#471=CARTESIAN_POINT('Origin',(0.,0.,1.));
#472=CARTESIAN_POINT('',(-9.25,-1.1327982892113E-15,0.));
#473=CARTESIAN_POINT('Origin',(0.,0.,0.));
#474=CARTESIAN_POINT('Ctrl Pts',(3.29688513268242,-6.81263413258026,0.505470626925626));
#475=CARTESIAN_POINT('Ctrl Pts',(4.37545519625293,-6.29067426537759,0.543266526517662));
#476=CARTESIAN_POINT('Ctrl Pts',(6.27941281434687,-4.72584897235804,0.618858325701733));
#477=CARTESIAN_POINT('Ctrl Pts',(7.74547439976083,-1.33075007480055,0.732246024477842));
#478=CARTESIAN_POINT('Ctrl Pts',(7.49670862955464,2.35834918378697,0.845633723253948));
#479=CARTESIAN_POINT('Ctrl Pts',(5.58843601360218,5.52565765885457,0.959021422030058));
#480=CARTESIAN_POINT('Ctrl Pts',(2.44298116288721,7.46958043831061,1.07240912080617));
#481=CARTESIAN_POINT('Ctrl Pts',(-1.24327057385103,7.75998972844436,1.18579681958227));
#482=CARTESIAN_POINT('Ctrl Pts',(-4.65430208496329,6.3324941305714,1.29918451835838));
#483=CARTESIAN_POINT('Ctrl Pts',(-7.03498059885355,3.50315587313166,1.41257221713449));
#484=CARTESIAN_POINT('Ctrl Pts',(-7.85828918669284,-0.101703209699913,1.5259599159106));
#485=CARTESIAN_POINT('Ctrl Pts',(-6.94196392401263,-3.68404369730394,1.63934761468671));
#486=CARTESIAN_POINT('Ctrl Pts',(-4.4888589345816,-6.45082938085472,1.75273531346281));
#487=CARTESIAN_POINT('Ctrl Pts',(-1.04202959148482,-7.78955810148481,1.86612301223892));
#488=CARTESIAN_POINT('Ctrl Pts',(2.6354778500694,-7.40387121621861,1.97951071101503));
#489=CARTESIAN_POINT('Ctrl Pts',(5.72955841152067,-5.37914616892637,2.09289840979114));
#490=CARTESIAN_POINT('Ctrl Pts',(7.55524850894777,-2.16361497957873,2.20628610856725));
#491=CARTESIAN_POINT('Ctrl Pts',(7.70840548333453,1.53089751775353,2.31967380734335));
#492=CARTESIAN_POINT('Ctrl Pts',(6.15508240534115,4.88648641357714,2.43306150611946));
#493=CARTESIAN_POINT('Ctrl Pts',(3.23923251732557,7.1603688689679,2.54644920489557));
#494=CARTESIAN_POINT('Ctrl Pts',(-0.393822104600972,7.84903531008974,2.65983690367168));
#495=CARTESIAN_POINT('Ctrl Pts',(-3.93945035600988,6.80029413565808,2.77322460244778));
#496=CARTESIAN_POINT('Ctrl Pts',(-6.61348006824201,4.24576909281307,2.88661230122389));
#497=CARTESIAN_POINT('Ctrl Pts',(-7.41913264894523,1.91667984411995,2.96220410040796));
#498=CARTESIAN_POINT('Ctrl Pts',(-7.5337467878588,0.723943878299416,3.));
#499=CARTESIAN_POINT('Ctrl Pts',(3.42125876975029,-7.06963795618402,0.67031375128375));
#500=CARTESIAN_POINT('Ctrl Pts',(4.54051744582629,-6.52798736744425,0.708109650875786));
#501=CARTESIAN_POINT('Ctrl Pts',(6.51630108280028,-4.90412968317171,0.783701450059858));
#502=CARTESIAN_POINT('Ctrl Pts',(8.03766923917599,-1.38095207461867,0.897089148835967));
#503=CARTESIAN_POINT('Ctrl Pts',(7.77951888249702,2.44731693779088,1.01047684761207));
#504=CARTESIAN_POINT('Ctrl Pts',(5.79925746614314,5.73411082375588,1.12386454638818));
#505=CARTESIAN_POINT('Ctrl Pts',(2.53514162353067,7.75136729138422,1.23725224516429));
#506=CARTESIAN_POINT('Ctrl Pts',(-1.29017244543777,8.05273215267033,1.3506399439404));
#507=CARTESIAN_POINT('Ctrl Pts',(-4.82988371884585,6.57138486987033,1.46402764271651));
#508=CARTESIAN_POINT('Ctrl Pts',(-7.3003723515439,3.63531098913431,1.57741534149261));
#509=CARTESIAN_POINT('Ctrl Pts',(-8.15473991759379,-0.105539921499926,1.69080304026872));
#510=CARTESIAN_POINT('Ctrl Pts',(-7.20384666086157,-3.82302273215369,1.80419073904483));
#511=CARTESIAN_POINT('Ctrl Pts',(-4.6581992935902,-6.6941842688512,1.91757843782094));
#512=CARTESIAN_POINT('Ctrl Pts',(-1.08133972969394,-8.08341598043523,2.03096613659705));
#513=CARTESIAN_POINT('Ctrl Pts',(2.73490016914737,-7.68317921588618,2.14435383537315));
#514=CARTESIAN_POINT('Ctrl Pts',(5.94570364854138,-5.58207224806604,2.25774153414926));
#515=CARTESIAN_POINT('Ctrl Pts',(7.84026715478847,-2.24523646573763,2.37112923292537));
#516=CARTESIAN_POINT('Ctrl Pts',(7.9992019131077,1.58864999762421,2.48451693170148));
#517=CARTESIAN_POINT('Ctrl Pts',(6.38728036019738,5.0708271058611,2.59790463047759));
#518=CARTESIAN_POINT('Ctrl Pts',(3.36143123316633,7.43049084263113,2.71129232925369));
#519=CARTESIAN_POINT('Ctrl Pts',(-0.408678881690774,8.1451369422979,2.8246800280298));
#520=CARTESIAN_POINT('Ctrl Pts',(-4.0880645021226,7.05683243794797,2.93806772680591));
#521=CARTESIAN_POINT('Ctrl Pts',(-6.86297088659331,4.40593898741717,3.05145542558202));
#522=CARTESIAN_POINT('Ctrl Pts',(-7.69901637989208,1.98898580374977,3.12704722476609));
#523=CARTESIAN_POINT('Ctrl Pts',(-7.81795429010565,0.751254363667726,3.16484312435813));
#524=CARTESIAN_POINT('Ctrl Pts',(3.54563240681817,-7.32664177978778,0.835156875641875));
#525=CARTESIAN_POINT('Ctrl Pts',(4.70557969539965,-6.76530046951091,0.872952775233911));
#526=CARTESIAN_POINT('Ctrl Pts',(6.75318935125371,-5.08241039398539,0.948544574417983));
#527=CARTESIAN_POINT('Ctrl Pts',(8.32986407859115,-1.4311540744368,1.06193227319409));
#528=CARTESIAN_POINT('Ctrl Pts',(8.0623291354394,2.53628469179479,1.1753199719702));
#529=CARTESIAN_POINT('Ctrl Pts',(6.0100789186841,5.94256398865719,1.28870767074631));
#530=CARTESIAN_POINT('Ctrl Pts',(2.62730208417414,8.03315414445783,1.40209536952242));
#531=CARTESIAN_POINT('Ctrl Pts',(-1.33707431702452,8.3454745768963,1.51548306829852));
#532=CARTESIAN_POINT('Ctrl Pts',(-5.0054653527284,6.81027560916925,1.62887076707463));
#533=CARTESIAN_POINT('Ctrl Pts',(-7.56576410423426,3.76746610513698,1.74225846585074));
#534=CARTESIAN_POINT('Ctrl Pts',(-8.45119064849473,-0.109376633299944,1.85564616462685));
#535=CARTESIAN_POINT('Ctrl Pts',(-7.4657293977105,-3.96200176700343,1.96903386340295));
#536=CARTESIAN_POINT('Ctrl Pts',(-4.8275396525988,-6.93753915684769,2.08242156217906));
#537=CARTESIAN_POINT('Ctrl Pts',(-1.12064986790305,-8.37727385938565,2.19580926095517));
#538=CARTESIAN_POINT('Ctrl Pts',(2.83432248822534,-7.96248721555375,2.30919695973128));
#539=CARTESIAN_POINT('Ctrl Pts',(6.16184888556208,-5.78499832720571,2.42258465850739));
#540=CARTESIAN_POINT('Ctrl Pts',(8.12528580062917,-2.32685795189654,2.53597235728349));
#541=CARTESIAN_POINT('Ctrl Pts',(8.28999834288087,1.64640247749489,2.6493600560596));
#542=CARTESIAN_POINT('Ctrl Pts',(6.61947831505362,5.25516779814506,2.76274775483571));
#543=CARTESIAN_POINT('Ctrl Pts',(3.48362994900711,7.70061281629436,2.87613545361182));
#544=CARTESIAN_POINT('Ctrl Pts',(-0.423535658780578,8.44123857450605,2.98952315238793));
#545=CARTESIAN_POINT('Ctrl Pts',(-4.23667864823531,7.31337074023787,3.10291085116403));
#546=CARTESIAN_POINT('Ctrl Pts',(-7.11246170494461,4.56610888202126,3.21629854994014));
#547=CARTESIAN_POINT('Ctrl Pts',(-7.97890011083893,2.06129176337959,3.29189034912421));
#548=CARTESIAN_POINT('Ctrl Pts',(-8.1021617923525,0.778564849036037,3.32968624871625));
#549=CARTESIAN_POINT('Ctrl Pts',(3.67000604388605,-7.58364560339154,1.));
#550=CARTESIAN_POINT('Ctrl Pts',(4.87064194497301,-7.00261357157757,1.03779589959204));
#551=CARTESIAN_POINT('Ctrl Pts',(6.99007761970712,-5.26069110479906,1.11338769877611));
#552=CARTESIAN_POINT('Ctrl Pts',(8.62205891800633,-1.48135607425492,1.22677539755222));
#553=CARTESIAN_POINT('Ctrl Pts',(8.34513938838176,2.62525244579871,1.34016309632832));
#554=CARTESIAN_POINT('Ctrl Pts',(6.22090037122506,6.15101715355849,1.45355079510443));
#555=CARTESIAN_POINT('Ctrl Pts',(2.7194625448176,8.31494099753145,1.56693849388054));
#556=CARTESIAN_POINT('Ctrl Pts',(-1.38397618861126,8.63821700112226,1.68032619265665));
#557=CARTESIAN_POINT('Ctrl Pts',(-5.18104698661096,7.04916634846818,1.79371389143276));
#558=CARTESIAN_POINT('Ctrl Pts',(-7.83115585692462,3.89962122113963,1.90710159020886));
#559=CARTESIAN_POINT('Ctrl Pts',(-8.74764137939567,-0.11321334509996,2.02048928898497));
#560=CARTESIAN_POINT('Ctrl Pts',(-7.72761213455945,-4.10098080185317,2.13387698776108));
#561=CARTESIAN_POINT('Ctrl Pts',(-4.99688001160739,-7.18089404484419,2.24726468653719));
#562=CARTESIAN_POINT('Ctrl Pts',(-1.15996000611217,-8.67113173833605,2.3606523853133));
#563=CARTESIAN_POINT('Ctrl Pts',(2.93374480730331,-8.24179521522132,2.4740400840894));
#564=CARTESIAN_POINT('Ctrl Pts',(6.37799412258278,-5.98792440634538,2.58742778286551));
#565=CARTESIAN_POINT('Ctrl Pts',(8.41030444646987,-2.40847943805545,2.70081548164162));
#566=CARTESIAN_POINT('Ctrl Pts',(8.58079477265404,1.70415495736557,2.81420318041773));
#567=CARTESIAN_POINT('Ctrl Pts',(6.85167626990985,5.43950849042901,2.92759087919383));
#568=CARTESIAN_POINT('Ctrl Pts',(3.60582866484787,7.97073478995759,3.04097857796994));
#569=CARTESIAN_POINT('Ctrl Pts',(-0.438392435870382,8.73734020671419,3.15436627674605));
#570=CARTESIAN_POINT('Ctrl Pts',(-4.38529279434802,7.56990904252777,3.26775397552216));
#571=CARTESIAN_POINT('Ctrl Pts',(-7.36195252329592,4.72627877662535,3.38114167429827));
#572=CARTESIAN_POINT('Ctrl Pts',(-8.25878384178578,2.13359772300941,3.45673347348234));
#573=CARTESIAN_POINT('Ctrl Pts',(-8.38636929459934,0.805875334404347,3.49452937307437));
#574=CARTESIAN_POINT('',(4.73262672389222,6.97014126774352,3.));
#575=CARTESIAN_POINT('Ctrl Pts',(4.73230040432233,6.96987880002536,3.));
#576=CARTESIAN_POINT('Ctrl Pts',(4.54659429226774,7.08323758852689,3.));
#577=CARTESIAN_POINT('Ctrl Pts',(4.35690968738782,7.18921720716211,3.));
#578=CARTESIAN_POINT('Ctrl Pts',(4.16365607194156,7.2875655733524,3.));
#579=CARTESIAN_POINT('Ctrl Pts',(3.97087981808612,7.38567100627373,3.));
#580=CARTESIAN_POINT('Ctrl Pts',(3.77455157115871,7.47618316463748,3.));
#581=CARTESIAN_POINT('Ctrl Pts',(3.57505301449193,7.55880655069602,3.));
#582=CARTESIAN_POINT('Ctrl Pts',(3.53135617132329,7.57690383021014,3.));
#583=CARTESIAN_POINT('Ctrl Pts',(3.48750715538226,7.59462245759138,3.));
#584=CARTESIAN_POINT('Ctrl Pts',(3.44350986136665,7.61195901278931,3.));
#585=CARTESIAN_POINT('Ctrl Pts',(3.24178430211847,7.69144631697441,3.));
#586=CARTESIAN_POINT('Ctrl Pts',(3.03694241647054,7.7629058559241,3.));
#587=CARTESIAN_POINT('Ctrl Pts',(2.82948130874684,7.82626053187547,3.));
#588=CARTESIAN_POINT('Ctrl Pts',(2.62271898859142,7.8894018113959,3.));
#589=CARTESIAN_POINT('Ctrl Pts',(2.41335436575666,7.94449277547621,3.));
#590=CARTESIAN_POINT('Ctrl Pts',(2.20187621761559,7.99140566963294,3.));
#591=CARTESIAN_POINT('Ctrl Pts',(2.09493955507371,8.01512778170644,3.));
#592=CARTESIAN_POINT('Ctrl Pts',(1.98746248673356,8.03675798140175,3.));
#593=CARTESIAN_POINT('Ctrl Pts',(1.87950874471083,8.05627466142426,3.));
#594=CARTESIAN_POINT('Ctrl Pts',(1.83847534687305,8.06369298413204,3.));
#595=CARTESIAN_POINT('Ctrl Pts',(1.79737308703796,8.07080591573063,3.));
#596=CARTESIAN_POINT('Ctrl Pts',(1.75620549309855,8.07761213842032,3.));
#597=CARTESIAN_POINT('Ctrl Pts',(1.7228681936192,8.08312378149724,3.));
#598=CARTESIAN_POINT('Ctrl Pts',(1.68948310092993,8.08843498671117,3.));
#599=CARTESIAN_POINT('Ctrl Pts',(1.65608221079838,8.09354060634633,3.));
#600=CARTESIAN_POINT('Ctrl Pts',(1.44410081544425,8.12594382584572,3.));
#601=CARTESIAN_POINT('Ctrl Pts',(1.23127939337784,8.15010674848159,3.));
#602=CARTESIAN_POINT('Ctrl Pts',(1.01810262480395,8.16600200964116,3.));
#603=CARTESIAN_POINT('Ctrl Pts',(0.804951415623026,8.18189536499632,3.));
#604=CARTESIAN_POINT('Ctrl Pts',(0.591444253194713,8.18952308001275,3.));
#605=CARTESIAN_POINT('Ctrl Pts',(0.378060830766499,8.18880602859657,3.));
#606=CARTESIAN_POINT('Ctrl Pts',(0.166766239101071,8.18809599646539,3.));
#607=CARTESIAN_POINT('Ctrl Pts',(-0.0444076720322442,8.17920373880211,3.));
#608=CARTESIAN_POINT('Ctrl Pts',(-0.254989901629731,8.16200176355749,3.));
#609=CARTESIAN_POINT('Ctrl Pts',(-0.3062889151647,8.15781126579998,3.));
#610=CARTESIAN_POINT('Ctrl Pts',(-0.357552766010737,8.1531274021699,3.));
#611=CARTESIAN_POINT('Ctrl Pts',(-0.408774530559113,8.14794787100715,3.));
#612=CARTESIAN_POINT('Ctrl Pts',(-0.620894411301404,8.1264983652701,3.));
#613=CARTESIAN_POINT('Ctrl Pts',(-0.832294246559234,8.0965520268588,3.));
#614=CARTESIAN_POINT('Ctrl Pts',(-1.04248642448,8.05822446315354,3.));
#615=CARTESIAN_POINT('Ctrl Pts',(-1.11437965674407,8.04511506742418,3.));
#616=CARTESIAN_POINT('Ctrl Pts',(-1.18613141027298,8.03102476462558,3.));
#617=CARTESIAN_POINT('Ctrl Pts',(-1.25772148730536,8.01595695844921,3.));
#618=CARTESIAN_POINT('Ctrl Pts',(-1.31501749714104,8.00389767304722,3.));
#619=CARTESIAN_POINT('Ctrl Pts',(-1.37220994085338,7.9912122502012,3.));
#620=CARTESIAN_POINT('Ctrl Pts',(-1.42928827034523,7.97790215943391,3.));
#621=CARTESIAN_POINT('Ctrl Pts',(-1.45343067078598,7.97227239514214,3.));
#622=CARTESIAN_POINT('Ctrl Pts',(-1.47755287011024,7.96653077500107,3.));
#623=CARTESIAN_POINT('Ctrl Pts',(-1.50163943497948,7.96068108463199,3.));
#624=CARTESIAN_POINT('Ctrl Pts',(-1.70600655743429,7.91104825427744,3.));
#625=CARTESIAN_POINT('Ctrl Pts',(-1.90806986149336,7.85357977996314,3.));
#626=CARTESIAN_POINT('Ctrl Pts',(-2.10739316073376,7.78848396319421,3.));
#627=CARTESIAN_POINT('Ctrl Pts',(-2.3077318448987,7.72305653787148,3.));
#628=CARTESIAN_POINT('Ctrl Pts',(-2.50530319062032,7.64992362044224,3.));
#629=CARTESIAN_POINT('Ctrl Pts',(-2.69964897742154,7.56924675834579,3.));
#630=CARTESIAN_POINT('Ctrl Pts',(-2.89299808271672,7.48898363887653,3.));
#631=CARTESIAN_POINT('Ctrl Pts',(-3.0831552346767,7.40125344795517,3.));
#632=CARTESIAN_POINT('Ctrl Pts',(-3.2696447011506,7.3061701626953,3.));
#633=CARTESIAN_POINT('Ctrl Pts',(-3.45313827855405,7.21261435767589,3.));
#634=CARTESIAN_POINT('Ctrl Pts',(-3.63308156593861,7.11193946610938,3.));
#635=CARTESIAN_POINT('Ctrl Pts',(-3.80898948357355,7.00421520348105,3.));
#636=CARTESIAN_POINT('Ctrl Pts',(-3.87018689925145,6.96673851358957,3.));
#637=CARTESIAN_POINT('Ctrl Pts',(-3.93089559033279,6.92840830835551,3.));
#638=CARTESIAN_POINT('Ctrl Pts',(-3.99109403554818,6.88922650869093,3.));
#639=CARTESIAN_POINT('Ctrl Pts',(-4.05645510531665,6.84668447405254,3.));
#640=CARTESIAN_POINT('Ctrl Pts',(-4.12121466737708,6.80313851131044,3.));
#641=CARTESIAN_POINT('Ctrl Pts',(-4.18535223722797,6.75860435230052,3.));
#642=CARTESIAN_POINT('Ctrl Pts',(-4.2121623708753,6.73998863677367,3.));
#643=CARTESIAN_POINT('Ctrl Pts',(-4.2388638124477,6.72120024513414,3.));
#644=CARTESIAN_POINT('Ctrl Pts',(-4.26545502173889,6.70224029983934,3.));
#645=CARTESIAN_POINT('Ctrl Pts',(-4.28277192465007,6.68989307906137,3.));
#646=CARTESIAN_POINT('Ctrl Pts',(-4.30004092668173,6.67747389165994,3.));
#647=CARTESIAN_POINT('Ctrl Pts',(-4.31725387503548,6.66498878318609,3.));
#648=CARTESIAN_POINT('Ctrl Pts',(-4.4844069282681,6.54374726439129,3.));
#649=CARTESIAN_POINT('Ctrl Pts',(-4.6464803739124,6.41614806391378,3.));
#650=CARTESIAN_POINT('Ctrl Pts',(-4.80318842090482,6.28258710022056,3.));
#651=CARTESIAN_POINT('Ctrl Pts',(-4.96113226408688,6.1479728777242,3.));
#652=CARTESIAN_POINT('Ctrl Pts',(-5.11362624280417,6.00730199156091,3.));
#653=CARTESIAN_POINT('Ctrl Pts',(-5.26034419345638,5.86093908161204,3.));
#654=CARTESIAN_POINT('Ctrl Pts',(-5.4065022925257,5.71513466846911,3.));
#655=CARTESIAN_POINT('Ctrl Pts',(-5.5469287812402,5.56368103181509,3.));
#656=CARTESIAN_POINT('Ctrl Pts',(-5.68126130585294,5.4069064516912,3.));
#657=CARTESIAN_POINT('Ctrl Pts',(-5.81427483922238,5.25167121804316,3.));
#658=CARTESIAN_POINT('Ctrl Pts',(-5.94131385168784,5.09121847639539,3.));
#659=CARTESIAN_POINT('Ctrl Pts',(-6.06198162452584,4.9258435035023,3.));
#660=CARTESIAN_POINT('Ctrl Pts',(-6.14737455273355,4.80881264384957,3.));
#661=CARTESIAN_POINT('Ctrl Pts',(-6.22957586772586,4.68931625076399,3.));
#662=CARTESIAN_POINT('Ctrl Pts',(-6.3084296547068,4.56745396697456,3.));
#663=CARTESIAN_POINT('Ctrl Pts',(-6.32595607309357,4.54036827517669,3.));
#664=CARTESIAN_POINT('Ctrl Pts',(-6.34331706529578,4.51316569187826,3.));
#665=CARTESIAN_POINT('Ctrl Pts',(-6.36051082717936,4.4858472911646,3.));
#666=CARTESIAN_POINT('Ctrl Pts',(-6.37527481168164,4.46238945526489,3.));
#667=CARTESIAN_POINT('Ctrl Pts',(-6.38991071916345,4.43885377455056,3.));
#668=CARTESIAN_POINT('Ctrl Pts',(-6.4044154018559,4.41524480160077,3.));
#669=CARTESIAN_POINT('Ctrl Pts',(-6.44901741952675,4.34264701707662,3.));
#670=CARTESIAN_POINT('Ctrl Pts',(-6.49238582455741,4.26934498463428,3.));
#671=CARTESIAN_POINT('Ctrl Pts',(-6.53449614396482,4.19536268226622,3.));
#672=CARTESIAN_POINT('Ctrl Pts',(-6.63583263264501,4.01732777652444,3.));
#673=CARTESIAN_POINT('Ctrl Pts',(-6.72988689762184,3.83535479729973,3.));
#674=CARTESIAN_POINT('Ctrl Pts',(-6.81654471828433,3.6499217513576,3.));
#675=CARTESIAN_POINT('Ctrl Pts',(-6.90331780231837,3.46424206133987,3.));
#676=CARTESIAN_POINT('Ctrl Pts',(-6.98267492065424,3.27509239931813,3.));
#677=CARTESIAN_POINT('Ctrl Pts',(-7.05445146272892,3.08293780287279,3.));
#678=CARTESIAN_POINT('Ctrl Pts',(-7.089691600783,2.98859563604877,3.));
#679=CARTESIAN_POINT('Ctrl Pts',(-7.12310365188499,2.8935289633869,3.));
#680=CARTESIAN_POINT('Ctrl Pts',(-7.15466354608771,2.79779228793987,3.));
#681=CARTESIAN_POINT('Ctrl Pts',(-7.16571917192299,2.76425513931518,3.));
#682=CARTESIAN_POINT('Ctrl Pts',(-7.17654748376203,2.73063577075499,3.));
#683=CARTESIAN_POINT('Ctrl Pts',(-7.18714735687271,2.69693652459908,3.));
#684=CARTESIAN_POINT('Ctrl Pts',(-7.19620794615791,2.66813098839582,3.));
#685=CARTESIAN_POINT('Ctrl Pts',(-7.20510175817438,2.63926645691888,3.));
#686=CARTESIAN_POINT('Ctrl Pts',(-7.21382357447374,2.61035984478623,3.));
#687=CARTESIAN_POINT('Ctrl Pts',(-7.27252498919952,2.41580644342183,3.));
#688=CARTESIAN_POINT('Ctrl Pts',(-7.32349248038049,2.21918177626967,3.));
#689=CARTESIAN_POINT('Ctrl Pts',(-7.36659762439314,2.02094767576486,3.));
#690=CARTESIAN_POINT('Ctrl Pts',(-7.40950089711859,1.82364195107123,3.));
#691=CARTESIAN_POINT('Ctrl Pts',(-7.44461539454117,1.62474115242515,3.));
#692=CARTESIAN_POINT('Ctrl Pts',(-7.47176340350619,1.4246947139691,3.));
#693=CARTESIAN_POINT('Ctrl Pts',(-7.49850545250272,1.22763968626275,3.));
#694=CARTESIAN_POINT('Ctrl Pts',(-7.51751750182596,1.02947240619301,3.));
#695=CARTESIAN_POINT('Ctrl Pts',(-7.528579277374,0.830626276378499,3.));
#696=CARTESIAN_POINT('Ctrl Pts',(-7.53055635995449,0.795086302009342,3.));
#697=CARTESIAN_POINT('Ctrl Pts',(-7.53227934060901,0.75952466571241,3.));
#698=CARTESIAN_POINT('Ctrl Pts',(-7.5337467878588,0.723943878299416,3.));
#699=CARTESIAN_POINT('Ctrl Pts',(8.42448690830363,8.64672408335233E-5,2.76739977717518));
#700=CARTESIAN_POINT('Ctrl Pts',(8.42470351289661,0.550748157182483,2.78300091158936));
#701=CARTESIAN_POINT('Ctrl Pts',(8.37141995779062,1.10136829875827,2.79860204600354));
#702=CARTESIAN_POINT('Ctrl Pts',(8.26419330116598,1.6412748136393,2.81420318041773));
#703=CARTESIAN_POINT('Ctrl Pts',(8.00442193840598,2.94927280172005,2.85199908000976));
#704=CARTESIAN_POINT('Ctrl Pts',(7.42804910415791,4.19439064607454,2.8897949796018));
#705=CARTESIAN_POINT('Ctrl Pts',(6.59888808619021,5.23882061817321,2.92759087919383));
#706=CARTESIAN_POINT('Ctrl Pts',(6.06938778795825,5.90579117000177,2.95172725279589));
#707=CARTESIAN_POINT('Ctrl Pts',(5.43679870130242,6.49091980462599,2.97586362639794));
#708=CARTESIAN_POINT('Ctrl Pts',(4.73230040432236,6.96987880002535,3.));
#709=CARTESIAN_POINT('',(4.393707965779,6.16208735401071,1.));
#710=CARTESIAN_POINT('Ctrl Pts',(4.39370796577898,6.16208735401072,1.));
#711=CARTESIAN_POINT('Ctrl Pts',(4.56509314697964,6.05362432734644,1.));
#712=CARTESIAN_POINT('Ctrl Pts',(4.73192037051642,5.93846226034176,1.));
#713=CARTESIAN_POINT('Ctrl Pts',(4.89378408453947,5.81689291450077,1.));
#714=CARTESIAN_POINT('Ctrl Pts',(5.05597727152874,5.69507611472473,1.));
#715=CARTESIAN_POINT('Ctrl Pts',(5.2131873746364,5.56682562609763,1.));
#716=CARTESIAN_POINT('Ctrl Pts',(5.36498593127755,5.4323871773768,1.));
#717=CARTESIAN_POINT('Ctrl Pts',(5.38768336791826,5.4122854831352,1.));
#718=CARTESIAN_POINT('Ctrl Pts',(5.41025976957255,5.39204536101809,1.));
#719=CARTESIAN_POINT('Ctrl Pts',(5.43271365066622,5.3716675472511,1.));
#720=CARTESIAN_POINT('Ctrl Pts',(5.54619785172863,5.26867600182081,1.));
#721=CARTESIAN_POINT('Ctrl Pts',(5.65655329519823,5.16216832961214,1.));
#722=CARTESIAN_POINT('Ctrl Pts',(5.7636751023899,5.0523240216572,1.));
#723=CARTESIAN_POINT('Ctrl Pts',(5.80594248533164,5.00898241316479,1.));
#724=CARTESIAN_POINT('Ctrl Pts',(5.84770630568986,4.96512118743162,0.999999999999999));
#725=CARTESIAN_POINT('Ctrl Pts',(5.88895961189718,4.92075083771718,0.999999999999999));
#726=CARTESIAN_POINT('Ctrl Pts',(5.90869154329004,4.89952798852195,0.999999999999999));
#727=CARTESIAN_POINT('Ctrl Pts',(5.92830632576426,4.8781889543034,1.));
#728=CARTESIAN_POINT('Ctrl Pts',(5.94779399757882,4.85674521466381,1.));
#729=CARTESIAN_POINT('Ctrl Pts',(6.08429228524521,4.70654596203787,1.));
#730=CARTESIAN_POINT('Ctrl Pts',(6.2146758783874,4.55108614556555,0.999999999999999));
#731=CARTESIAN_POINT('Ctrl Pts',(6.33874190221857,4.39082179066808,0.999999999999999));
#732=CARTESIAN_POINT('Ctrl Pts',(6.46428639927615,4.22864759332909,0.999999999999999));
#733=CARTESIAN_POINT('Ctrl Pts',(6.58336234098412,4.06155319238124,0.999999999999999));
#734=CARTESIAN_POINT('Ctrl Pts',(6.69572577298525,3.88996997752405,0.999999999999998));
#735=CARTESIAN_POINT('Ctrl Pts',(6.77462408246164,3.76948927178501,0.999999999999998));
#736=CARTESIAN_POINT('Ctrl Pts',(6.85021213502665,3.6467945115049,0.999999999999999));
#737=CARTESIAN_POINT('Ctrl Pts',(6.92239375683326,3.52202510766869,0.999999999999999));
#738=CARTESIAN_POINT('Ctrl Pts',(6.95326870268032,3.46865627928278,0.999999999999999));
#739=CARTESIAN_POINT('Ctrl Pts',(6.98352027493536,3.41490778011543,1.));
#740=CARTESIAN_POINT('Ctrl Pts',(7.01314034705101,3.36079013928565,1.));
#741=CARTESIAN_POINT('Ctrl Pts',(7.02866184841868,3.33243142925702,1.));
#742=CARTESIAN_POINT('Ctrl Pts',(7.04400993578832,3.30397135063816,0.999999999999998));
#743=CARTESIAN_POINT('Ctrl Pts',(7.05918339811292,3.27541139631757,0.999999999999998));
#744=CARTESIAN_POINT('Ctrl Pts',(7.072016237307,3.25125703435681,0.999999999999998));
#745=CARTESIAN_POINT('Ctrl Pts',(7.08472031631865,3.22703844921643,0.999999999999999));
#746=CARTESIAN_POINT('Ctrl Pts',(7.09729284528073,3.20276115370348,0.999999999999999));
#747=CARTESIAN_POINT('Ctrl Pts',(7.19276122787878,3.01841366534472,0.999999999999999));
#748=CARTESIAN_POINT('Ctrl Pts',(7.28069056199074,2.83060289800403,1.));
#749=CARTESIAN_POINT('Ctrl Pts',(7.36086782899694,2.63978683028351,1.));
#750=CARTESIAN_POINT('Ctrl Pts',(7.40092000222783,2.54446556922098,1.));
#751=CARTESIAN_POINT('Ctrl Pts',(7.43903713134892,2.44839373642586,0.999999999999999));
#752=CARTESIAN_POINT('Ctrl Pts',(7.47518910080246,2.35162511794779,0.999999999999999));
#753=CARTESIAN_POINT('Ctrl Pts',(7.54706362331509,2.15923730747853,0.999999999999999));
#754=CARTESIAN_POINT('Ctrl Pts',(7.61117360919853,1.96409692141684,1.));
#755=CARTESIAN_POINT('Ctrl Pts',(7.66753564393633,1.76669441325528,1.));
#756=CARTESIAN_POINT('Ctrl Pts',(7.72434476987952,1.56772601192237,1.));
#757=CARTESIAN_POINT('Ctrl Pts',(7.77328272213587,1.36645881931351,1.));
#758=CARTESIAN_POINT('Ctrl Pts',(7.81431791895563,1.16337386473413,1.));
#759=CARTESIAN_POINT('Ctrl Pts',(7.85613786233388,0.956405165673425,1.));
#760=CARTESIAN_POINT('Ctrl Pts',(7.88975021516624,0.747547824207317,1.));
#761=CARTESIAN_POINT('Ctrl Pts',(7.91506735397672,0.537299156324799,1.));
#762=CARTESIAN_POINT('Ctrl Pts',(7.92129279581664,0.485599362614996,1.));
#763=CARTESIAN_POINT('Ctrl Pts',(7.92701639427537,0.433815414386338,0.999999999999999));
#764=CARTESIAN_POINT('Ctrl Pts',(7.93223632319266,0.38195467565838,0.999999999999999));
#765=CARTESIAN_POINT('Ctrl Pts',(7.93463284136905,0.358144925569398,0.999999999999999));
#766=CARTESIAN_POINT('Ctrl Pts',(7.93692311470521,0.33431935101375,0.999999999999999));
#767=CARTESIAN_POINT('Ctrl Pts',(7.93910582734255,0.310492400226712,0.999999999999999));
#768=CARTESIAN_POINT('Ctrl Pts',(7.95824850180774,0.101526934681476,0.999999999999999));
#769=CARTESIAN_POINT('Ctrl Pts',(7.96914990940321,-0.107812050072877,0.999999999999999));
#770=CARTESIAN_POINT('Ctrl Pts',(7.97184403466035,-0.317018705955243,0.999999999999999));
#771=CARTESIAN_POINT('Ctrl Pts',(7.97455886415199,-0.527833105816745,0.999999999999999));
#772=CARTESIAN_POINT('Ctrl Pts',(7.96893994898462,-0.738513808555688,0.999999999999999));
#773=CARTESIAN_POINT('Ctrl Pts',(7.95497221531426,-0.948560538837902,0.999999999999999));
#774=CARTESIAN_POINT('Ctrl Pts',(7.94582464799391,-1.08612162433839,0.999999999999999));
#775=CARTESIAN_POINT('Ctrl Pts',(7.93309522173861,-1.22341113040237,0.999999999999999));
#776=CARTESIAN_POINT('Ctrl Pts',(7.9167677292249,-1.3602903841224,0.999999999999999));
#777=CARTESIAN_POINT('Ctrl Pts',(7.89191964234121,-1.56860085103297,0.999999999999999));
#778=CARTESIAN_POINT('Ctrl Pts',(7.8587407950792,-1.77596160104254,1.));
#779=CARTESIAN_POINT('Ctrl Pts',(7.81743157673272,-1.98193191710639,1.));
#780=CARTESIAN_POINT('Ctrl Pts',(7.79092896536225,-2.11407557556797,1.));
#781=CARTESIAN_POINT('Ctrl Pts',(7.76107875583383,-2.24564688797688,0.999999999999999));
#782=CARTESIAN_POINT('Ctrl Pts',(7.72792277040469,-2.37652752009415,0.999999999999999));
#783=CARTESIAN_POINT('Ctrl Pts',(7.7100507427951,-2.44707593663151,0.999999999999999));
#784=CARTESIAN_POINT('Ctrl Pts',(7.69121806932582,-2.51742363903178,1.));
#785=CARTESIAN_POINT('Ctrl Pts',(7.67143029216677,-2.5875517770649,1.));
#786=CARTESIAN_POINT('Ctrl Pts',(7.6585320572102,-2.63326328847662,1.));
#787=CARTESIAN_POINT('Ctrl Pts',(7.64522800328364,-2.6788815064332,1.));
#788=CARTESIAN_POINT('Ctrl Pts',(7.63151950734105,-2.72440114648151,1.));
#789=CARTESIAN_POINT('Ctrl Pts',(7.62435845546147,-2.74817972184755,1.));
#790=CARTESIAN_POINT('Ctrl Pts',(7.6170899184844,-2.77192180885807,0.999999999999999));
#791=CARTESIAN_POINT('Ctrl Pts',(7.60971488685118,-2.79562503017097,0.999999999999999));
#792=CARTESIAN_POINT('Ctrl Pts',(7.54649768102828,-2.99880401229948,0.999999999999999));
#793=CARTESIAN_POINT('Ctrl Pts',(7.47544794465793,-3.19916766215117,1.));
#794=CARTESIAN_POINT('Ctrl Pts',(7.39684103664422,-3.39627755017646,1.));
#795=CARTESIAN_POINT('Ctrl Pts',(7.31766752676421,-3.59480821448264,1.));
#796=CARTESIAN_POINT('Ctrl Pts',(7.23082734867703,-3.79003870199869,0.999999999999999));
#797=CARTESIAN_POINT('Ctrl Pts',(7.1365486906042,-3.98151747842084,0.999999999999999));
#798=CARTESIAN_POINT('Ctrl Pts',(7.04235134009761,-4.17283112019198,0.999999999999999));
#799=CARTESIAN_POINT('Ctrl Pts',(6.94072811259869,-4.3604001831548,1.));
#800=CARTESIAN_POINT('Ctrl Pts',(6.83185668900712,-4.54376081775494,1.));
#801=CARTESIAN_POINT('Ctrl Pts',(6.75037395831375,-4.6809935709973,0.999999999999999));
#802=CARTESIAN_POINT('Ctrl Pts',(6.66483011800804,-4.81586876376648,0.999999999999999));
#803=CARTESIAN_POINT('Ctrl Pts',(6.5752824406325,-4.9481835916502,1.));
#804=CARTESIAN_POINT('Ctrl Pts',(6.4828992637841,-5.08468812758344,1.));
#805=CARTESIAN_POINT('Ctrl Pts',(6.38625462668662,-5.21846776313796,0.999999999999999));
#806=CARTESIAN_POINT('Ctrl Pts',(6.28550802303977,-5.34937665117749,0.999999999999999));
#807=CARTESIAN_POINT('Ctrl Pts',(6.25575228719959,-5.38804088551029,0.999999999999999));
#808=CARTESIAN_POINT('Ctrl Pts',(6.22563862991905,-5.42645461759692,0.999999999999999));
#809=CARTESIAN_POINT('Ctrl Pts',(6.19517092956255,-5.46461388425174,0.999999999999999));
#810=CARTESIAN_POINT('Ctrl Pts',(6.17885864213103,-5.48504420615216,0.999999999999999));
#811=CARTESIAN_POINT('Ctrl Pts',(6.16244381132368,-5.50540287950009,0.999999999999999));
#812=CARTESIAN_POINT('Ctrl Pts',(6.1459303266271,-5.52568522709633,0.999999999999999));
#813=CARTESIAN_POINT('Ctrl Pts',(6.01136691068849,-5.69095997230919,0.999999999999999));
#814=CARTESIAN_POINT('Ctrl Pts',(5.87061877296574,-5.8507252899048,0.999999999999999));
#815=CARTESIAN_POINT('Ctrl Pts',(5.72413250310521,-6.00473862333285,0.999999999999999));
#816=CARTESIAN_POINT('Ctrl Pts',(5.57469814553815,-6.16185152926931,0.999999999999999));
#817=CARTESIAN_POINT('Ctrl Pts',(5.41929204830403,-6.31297913727711,0.999999999999999));
#818=CARTESIAN_POINT('Ctrl Pts',(5.2583391952526,-6.45784038502891,0.999999999999999));
#819=CARTESIAN_POINT('Ctrl Pts',(5.09708869311164,-6.60296952376668,0.999999999999999));
#820=CARTESIAN_POINT('Ctrl Pts',(4.93027042330368,-6.74180959765498,1.));
#821=CARTESIAN_POINT('Ctrl Pts',(4.75826918311265,-6.87404686600923,1.));
#822=CARTESIAN_POINT('Ctrl Pts',(4.5867441834157,-7.00591799315458,1.));
#823=CARTESIAN_POINT('Ctrl Pts',(4.4100643749003,-7.13122330334045,0.999999999999999));
#824=CARTESIAN_POINT('Ctrl Pts',(4.22857646147305,-7.24961352473167,0.999999999999999));
#825=CARTESIAN_POINT('Ctrl Pts',(4.04708854804579,-7.36800374612288,0.999999999999999));
#826=CARTESIAN_POINT('Ctrl Pts',(3.86079204635097,-7.47947938717154,1.));
#827=CARTESIAN_POINT('Ctrl Pts',(3.67000604388605,-7.58364560339154,1.));
#828=CARTESIAN_POINT('Ctrl Pts',(4.393707965779,6.16208735401071,0.999999999999999));
#829=CARTESIAN_POINT('Ctrl Pts',(3.77032887102005,6.60599604189802,1.02413637360206));
#830=CARTESIAN_POINT('Ctrl Pts',(1.99890784675958,7.50456530253425,1.08606864679615));
#831=CARTESIAN_POINT('Ctrl Pts',(-1.24327057385103,7.75998972844436,1.18579681958227));
#832=CARTESIAN_POINT('Ctrl Pts',(-4.65430208496329,6.3324941305714,1.29918451835838));
#833=CARTESIAN_POINT('Ctrl Pts',(-7.03498059885355,3.50315587313166,1.41257221713449));
#834=CARTESIAN_POINT('Ctrl Pts',(-7.85828918669284,-0.101703209699913,1.5259599159106));
#835=CARTESIAN_POINT('Ctrl Pts',(-6.94196392401263,-3.68404369730394,1.63934761468671));
#836=CARTESIAN_POINT('Ctrl Pts',(-4.4888589345816,-6.45082938085472,1.75273531346281));
#837=CARTESIAN_POINT('Ctrl Pts',(-1.04202959148482,-7.78955810148481,1.86612301223892));
#838=CARTESIAN_POINT('Ctrl Pts',(2.6354778500694,-7.40387121621861,1.97951071101503));
#839=CARTESIAN_POINT('Ctrl Pts',(5.72955841152067,-5.37914616892637,2.09289840979114));
#840=CARTESIAN_POINT('Ctrl Pts',(7.30404986115754,-2.606043345614,2.19068497415306));
#841=CARTESIAN_POINT('Ctrl Pts',(7.56771225210767,-0.703668868781139,2.25067563892295));
#842=CARTESIAN_POINT('Ctrl Pts',(7.56798907313361,7.7676319154979E-5,2.2728704041008));
#843=CARTESIAN_POINT('Origin',(0.,0.,-1.7728704041008));
#844=CARTESIAN_POINT('',(-4.39382718345092,6.16244416481543,1.));
#845=CARTESIAN_POINT('Origin',(0.,0.,1.));
#846=CARTESIAN_POINT('Ctrl Pts',(-4.39382718345092,6.16244416481543,1.));
#847=CARTESIAN_POINT('Ctrl Pts',(-5.36945976040208,5.46681742597314,1.03779589959204));
#848=CARTESIAN_POINT('Ctrl Pts',(-6.98368665648264,3.60456144318559,1.11338769877611));
#849=CARTESIAN_POINT('Ctrl Pts',(-7.85895162600914,0.011515568710808,1.22677539755222));
#850=CARTESIAN_POINT('Ctrl Pts',(-6.99437534332641,-3.58345677837054,1.34016309632832));
#851=CARTESIAN_POINT('Ctrl Pts',(-4.58144479001293,-6.38544244070111,1.45355079510443));
#852=CARTESIAN_POINT('Ctrl Pts',(-1.15428024432933,-7.77370052923818,1.56693849388054));
#853=CARTESIAN_POINT('Ctrl Pts',(2.52840660093739,-7.44112373474562,1.68032619265665));
#854=CARTESIAN_POINT('Ctrl Pts',(5.65136966539173,-5.46122947489685,1.79371389143276));
#855=CARTESIAN_POINT('Ctrl Pts',(7.28465185488839,-2.67884555498238,1.89264835918027));
#856=CARTESIAN_POINT('Ctrl Pts',(7.56765676315977,-0.7400303609645,1.95378692733575));
#857=CARTESIAN_POINT('Ctrl Pts',(7.56803816528701,9.91023202363134E-5,1.9771295958992));
#858=CARTESIAN_POINT('Ctrl Pts',(-4.89109315917711,6.85987118743865,0.505470626925626));
#859=CARTESIAN_POINT('Ctrl Pts',(-5.97714175047566,6.08551774984623,0.543266526517662));
#860=CARTESIAN_POINT('Ctrl Pts',(-7.77405678584997,4.01250324159353,0.618858325701733));
#861=CARTESIAN_POINT('Ctrl Pts',(-8.74837878946508,0.0128188290057514,0.732246024477842));
#862=CARTESIAN_POINT('Ctrl Pts',(-7.78595515165259,-3.98901008235131,0.845633723253949));
#863=CARTESIAN_POINT('Ctrl Pts',(-5.09994415710732,-7.10810701833358,0.959021422030057));
#864=CARTESIAN_POINT('Ctrl Pts',(-1.284914488234,-8.65347950489621,1.07240912080617));
#865=CARTESIAN_POINT('Ctrl Pts',(2.81455590152508,-8.28326374161576,1.18579681958227));
#866=CARTESIAN_POINT('Ctrl Pts',(6.29095646148489,-6.0792973892945,1.29918451835838));
#867=CARTESIAN_POINT('Ctrl Pts',(8.37469157041338,-2.5295427310192,1.41257221713449));
#868=CARTESIAN_POINT('Ctrl Pts',(8.60447627105806,1.58020007183639,1.5259599159106));
#869=CARTESIAN_POINT('Ctrl Pts',(6.92944023445831,5.3401205897815,1.63934761468671));
#870=CARTESIAN_POINT('Ctrl Pts',(3.72039659524274,7.91787191662571,1.75273531346281));
#871=CARTESIAN_POINT('Ctrl Pts',(-0.312252517352126,8.74279865041767,1.86612301223892));
#872=CARTESIAN_POINT('Ctrl Pts',(-4.27577495694974,7.63228620295089,1.97951071101503));
#873=CARTESIAN_POINT('Ctrl Pts',(-7.29274887912512,4.83216919339797,2.09289840979114));
#874=CARTESIAN_POINT('Ctrl Pts',(-8.69528038668799,0.96233515194067,2.20628610856724));
#875=CARTESIAN_POINT('Ctrl Pts',(-8.17290346481468,-3.12054996607911,2.31967380734335));
#876=CARTESIAN_POINT('Ctrl Pts',(-5.84121846198543,-6.51259392739122,2.43306150611946));
#877=CARTESIAN_POINT('Ctrl Pts',(-2.21648744248651,-8.46296633616109,2.54644920489557));
#878=CARTESIAN_POINT('Ctrl Pts',(1.89903540673993,-8.53972854279303,2.65983690367168));
#879=CARTESIAN_POINT('Ctrl Pts',(5.59391948044751,-6.72624416837579,2.77322460244778));
#880=CARTESIAN_POINT('Ctrl Pts',(8.05093652332914,-3.42323856468458,2.88661230122389));
#881=CARTESIAN_POINT('Ctrl Pts',(8.49976221835836,-0.716792871295916,2.96220410040796));
#882=CARTESIAN_POINT('Ctrl Pts',(8.40263276777827,0.613504335648001,3.));
#883=CARTESIAN_POINT('Ctrl Pts',(-4.72533783393504,6.62739551323091,0.67031375128375));
#884=CARTESIAN_POINT('Ctrl Pts',(-5.7745810871178,5.8792843085552,0.708109650875786));
#885=CARTESIAN_POINT('Ctrl Pts',(-7.51060007606086,3.87652264212422,0.783701450059858));
#886=CARTESIAN_POINT('Ctrl Pts',(-8.4519030683131,0.0123844089074385,0.897089148835966));
#887=CARTESIAN_POINT('Ctrl Pts',(-7.52209521554386,-3.85382564769106,1.01047684761207));
#888=CARTESIAN_POINT('Ctrl Pts',(-4.92711103474253,-6.86721882578942,1.12386454638818));
#889=CARTESIAN_POINT('Ctrl Pts',(-1.24136974026577,-8.36021984634354,1.23725224516429));
#890=CARTESIAN_POINT('Ctrl Pts',(2.71917280132919,-8.00255040599238,1.3506399439404));
#891=CARTESIAN_POINT('Ctrl Pts',(6.07776086278717,-5.87327475116196,1.46402764271651));
#892=CARTESIAN_POINT('Ctrl Pts',(8.09087981711418,-2.44381850446116,1.57741534149262));
#893=CARTESIAN_POINT('Ctrl Pts',(8.3128772938088,1.52664832617737,1.69080304026872));
#894=CARTESIAN_POINT('Ctrl Pts',(6.69460691960865,5.15914807578834,1.80419073904483));
#895=CARTESIAN_POINT('Ctrl Pts',(3.59431526176479,7.6495414244324,1.91757843782094));
#896=CARTESIAN_POINT('Ctrl Pts',(-0.301670523534598,8.44651203581767,2.03096613659705));
#897=CARTESIAN_POINT('Ctrl Pts',(-4.13087228476872,7.37363398743604,2.14435383537315));
#898=CARTESIAN_POINT('Ctrl Pts',(-7.04560331819872,4.66841075531271,2.25774153414926));
#899=CARTESIAN_POINT('Ctrl Pts',(-8.40060412891479,0.929722365614466,2.37112923292537));
#900=CARTESIAN_POINT('Ctrl Pts',(-7.89593015273605,-3.01479696614063,2.48451693170148));
#901=CARTESIAN_POINT('Ctrl Pts',(-5.64326413266343,-6.29188720816245,2.59790463047758));
#902=CARTESIAN_POINT('Ctrl Pts',(-2.14137241503401,-8.176163020029,2.7112923292537));
#903=CARTESIAN_POINT('Ctrl Pts',(1.83467858072042,-8.25032381546051,2.8246800280298));
#904=CARTESIAN_POINT('Ctrl Pts',(5.40434592036928,-6.49829700942733,2.93806772680591));
#905=CARTESIAN_POINT('Ctrl Pts',(7.77809657559194,-3.30722768466161,3.05145542558202));
#906=CARTESIAN_POINT('Ctrl Pts',(8.21171191853106,-0.692501320992909,3.12704722476609));
#907=CARTESIAN_POINT('Ctrl Pts',(8.11787410913374,0.59271315310797,3.16484312435813));
#908=CARTESIAN_POINT('Ctrl Pts',(-4.55958250869298,6.39491983902317,0.835156875641875));
#909=CARTESIAN_POINT('Ctrl Pts',(-5.57202042375994,5.67305086726417,0.872952775233911));
#910=CARTESIAN_POINT('Ctrl Pts',(-7.24714336627175,3.7405420426549,0.948544574417982));
#911=CARTESIAN_POINT('Ctrl Pts',(-8.15542734716112,0.0119499888091246,1.06193227319409));
#912=CARTESIAN_POINT('Ctrl Pts',(-7.25823527943514,-3.7186412130308,1.1753199719702));
#913=CARTESIAN_POINT('Ctrl Pts',(-4.75427791237773,-6.62633063324526,1.28870767074631));
#914=CARTESIAN_POINT('Ctrl Pts',(-1.19782499229755,-8.06696018779086,1.40209536952241));
#915=CARTESIAN_POINT('Ctrl Pts',(2.62378970113329,-7.721837070369,1.51548306829852));
#916=CARTESIAN_POINT('Ctrl Pts',(5.86456526408945,-5.6672521130294,1.62887076707463));
#917=CARTESIAN_POINT('Ctrl Pts',(7.80706806381496,-2.35809427790312,1.74225846585074));
#918=CARTESIAN_POINT('Ctrl Pts',(8.02127831655956,1.47309658051837,1.85564616462685));
#919=CARTESIAN_POINT('Ctrl Pts',(6.45977360475898,4.97817556179516,1.96903386340295));
#920=CARTESIAN_POINT('Ctrl Pts',(3.46823392828685,7.3812109322391,2.08242156217906));
#921=CARTESIAN_POINT('Ctrl Pts',(-0.291088529717076,8.15022542121766,2.19580926095517));
#922=CARTESIAN_POINT('Ctrl Pts',(-3.9859696125877,7.1149817719212,2.30919695973128));
#923=CARTESIAN_POINT('Ctrl Pts',(-6.79845775727232,4.50465231722745,2.42258465850739));
#924=CARTESIAN_POINT('Ctrl Pts',(-8.1059278711416,0.897109579288263,2.53597235728349));
#925=CARTESIAN_POINT('Ctrl Pts',(-7.61895684065744,-2.90904396620215,2.6493600560596));
#926=CARTESIAN_POINT('Ctrl Pts',(-5.44530980334143,-6.0711804889337,2.76274775483571));
#927=CARTESIAN_POINT('Ctrl Pts',(-2.06625738758151,-7.88935970389689,2.87613545361182));
#928=CARTESIAN_POINT('Ctrl Pts',(1.77032175470091,-7.960919088128,2.98952315238792));
#929=CARTESIAN_POINT('Ctrl Pts',(5.21477236029105,-6.27034985047887,3.10291085116403));
#930=CARTESIAN_POINT('Ctrl Pts',(7.50525662785474,-3.19121680463864,3.21629854994014));
#931=CARTESIAN_POINT('Ctrl Pts',(7.92366161870377,-0.6682097706899,3.29189034912421));
#932=CARTESIAN_POINT('Ctrl Pts',(7.83311545048921,0.571921970567939,3.32968624871625));
#933=CARTESIAN_POINT('Ctrl Pts',(-4.39382718345092,6.16244416481543,1.));
#934=CARTESIAN_POINT('Ctrl Pts',(-5.36945976040208,5.46681742597314,1.03779589959204));
#935=CARTESIAN_POINT('Ctrl Pts',(-6.98368665648264,3.60456144318559,1.11338769877611));
#936=CARTESIAN_POINT('Ctrl Pts',(-7.85895162600914,0.011515568710808,1.22677539755222));
#937=CARTESIAN_POINT('Ctrl Pts',(-6.99437534332641,-3.58345677837054,1.34016309632832));
#938=CARTESIAN_POINT('Ctrl Pts',(-4.58144479001293,-6.38544244070111,1.45355079510443));
#939=CARTESIAN_POINT('Ctrl Pts',(-1.15428024432933,-7.77370052923818,1.56693849388054));
#940=CARTESIAN_POINT('Ctrl Pts',(2.52840660093739,-7.44112373474562,1.68032619265665));
#941=CARTESIAN_POINT('Ctrl Pts',(5.65136966539173,-5.46122947489685,1.79371389143276));
#942=CARTESIAN_POINT('Ctrl Pts',(7.52325631051574,-2.27237005134508,1.90710159020886));
#943=CARTESIAN_POINT('Ctrl Pts',(7.72967933931031,1.41954483485936,2.02048928898497));
#944=CARTESIAN_POINT('Ctrl Pts',(6.22494028990932,4.797203047802,2.13387698776108));
#945=CARTESIAN_POINT('Ctrl Pts',(3.3421525948089,7.11288044004579,2.24726468653719));
#946=CARTESIAN_POINT('Ctrl Pts',(-0.280506535899549,7.85393880661765,2.3606523853133));
#947=CARTESIAN_POINT('Ctrl Pts',(-3.84106694040668,6.85632955640636,2.4740400840894));
#948=CARTESIAN_POINT('Ctrl Pts',(-6.55131219634593,4.34089387914219,2.58742778286551));
#949=CARTESIAN_POINT('Ctrl Pts',(-7.81125161336839,0.864496792962058,2.70081548164162));
#950=CARTESIAN_POINT('Ctrl Pts',(-7.34198352857883,-2.80329096626367,2.81420318041773));
#951=CARTESIAN_POINT('Ctrl Pts',(-5.24735547401942,-5.85047376970493,2.92759087919383));
#952=CARTESIAN_POINT('Ctrl Pts',(-1.99114236012902,-7.6025563877648,3.04097857796994));
#953=CARTESIAN_POINT('Ctrl Pts',(1.70596492868141,-7.67151436079548,3.15436627674605));
#954=CARTESIAN_POINT('Ctrl Pts',(5.02519880021281,-6.04240269153041,3.26775397552216));
#955=CARTESIAN_POINT('Ctrl Pts',(7.23241668011756,-3.07520592461567,3.38114167429827));
#956=CARTESIAN_POINT('Ctrl Pts',(7.63561131887647,-0.643918220386893,3.45673347348234));
#957=CARTESIAN_POINT('Ctrl Pts',(7.54835679184468,0.551130788027907,3.49452937307437));
#958=CARTESIAN_POINT('',(8.40263276777827,0.613504335648001,3.));
#959=CARTESIAN_POINT('Ctrl Pts',(-3.13967028466462,-6.88610630197218,3.));
#960=CARTESIAN_POINT('Ctrl Pts',(-2.9604650001052,-6.98007898164212,3.));
#961=CARTESIAN_POINT('Ctrl Pts',(-2.77786247581845,-7.06673161224528,3.));
#962=CARTESIAN_POINT('Ctrl Pts',(-2.5923296347956,-7.14588632725374,3.));
#963=CARTESIAN_POINT('Ctrl Pts',(-2.40533344901781,-7.22566535565274,3.));
#964=CARTESIAN_POINT('Ctrl Pts',(-2.21535998798539,-7.29782816770008,3.));
#965=CARTESIAN_POINT('Ctrl Pts',(-2.02285181766557,-7.36215390891447,3.));
#966=CARTESIAN_POINT('Ctrl Pts',(-1.9938396268386,-7.37184820228445,3.));
#967=CARTESIAN_POINT('Ctrl Pts',(-1.9647698106491,-7.38136441866922,3.));
#968=CARTESIAN_POINT('Ctrl Pts',(-1.93564382702723,-7.39070171675383,3.));
#969=CARTESIAN_POINT('Ctrl Pts',(-1.74351394627551,-7.45229530929409,3.));
#970=CARTESIAN_POINT('Ctrl Pts',(-1.54894174178331,-7.50610741010537,3.));
#971=CARTESIAN_POINT('Ctrl Pts',(-1.35240885649151,-7.55215927724555,3.));
#972=CARTESIAN_POINT('Ctrl Pts',(-1.15488079967179,-7.59844433440336,3.));
#973=CARTESIAN_POINT('Ctrl Pts',(-0.955371487296219,-7.63689051066542,3.));
#974=CARTESIAN_POINT('Ctrl Pts',(-0.75435416272533,-7.66746920229091,3.));
#975=CARTESIAN_POINT('Ctrl Pts',(-0.652736252714866,-7.6829272865156,3.));
#976=CARTESIAN_POINT('Ctrl Pts',(-0.55073278566136,-7.69637403906325,3.));
#977=CARTESIAN_POINT('Ctrl Pts',(-0.44840421762179,-7.70780074123243,3.));
#978=CARTESIAN_POINT('Ctrl Pts',(-0.414093693511208,-7.71163208713897,3.));
#979=CARTESIAN_POINT('Ctrl Pts',(-0.379746618665427,-7.71523630148207,3.));
#980=CARTESIAN_POINT('Ctrl Pts',(-0.345365270060783,-7.71861296913574,3.));
#981=CARTESIAN_POINT('Ctrl Pts',(-0.315545540142983,-7.72154163021337,3.));
#982=CARTESIAN_POINT('Ctrl Pts',(-0.28569683972492,-7.72429933396669,3.));
#983=CARTESIAN_POINT('Ctrl Pts',(-0.255845946390342,-7.72688377593608,3.));
#984=CARTESIAN_POINT('Ctrl Pts',(-0.0511856930689231,-7.74460292900198,
3.));
#985=CARTESIAN_POINT('Ctrl Pts',(0.153811691545986,-7.75420670424946,3.));
#986=CARTESIAN_POINT('Ctrl Pts',(0.358642800955409,-7.75575963023012,3.));
#987=CARTESIAN_POINT('Ctrl Pts',(0.564946249678613,-7.75732371874356,3.));
#988=CARTESIAN_POINT('Ctrl Pts',(0.771081702689553,-7.75072093390556,3.));
#989=CARTESIAN_POINT('Ctrl Pts',(0.976552041839028,-7.7359671616326,3.));
#990=CARTESIAN_POINT('Ctrl Pts',(1.18197960121708,-7.72121646115583,3.));
#991=CARTESIAN_POINT('Ctrl Pts',(1.38674303060012,-7.69831824929916,3.));
#992=CARTESIAN_POINT('Ctrl Pts',(1.59035222849948,-7.66723704020757,3.));
#993=CARTESIAN_POINT('Ctrl Pts',(1.62728300256607,-7.66159950947458,3.));
#994=CARTESIAN_POINT('Ctrl Pts',(1.66417580497459,-7.65569262855205,3.));
#995=CARTESIAN_POINT('Ctrl Pts',(1.70102770655121,-7.64951600116023,3.));
#996=CARTESIAN_POINT('Ctrl Pts',(1.90406795877107,-7.61548508471225,3.));
#997=CARTESIAN_POINT('Ctrl Pts',(2.105867424018,-7.57326989805214,3.));
#998=CARTESIAN_POINT('Ctrl Pts',(2.30599783378878,-7.52306808241337,3.));
#999=CARTESIAN_POINT('Ctrl Pts',(2.37821948917686,-7.5049516040977,3.));
#1000=CARTESIAN_POINT('Ctrl Pts',(2.45022368177863,-7.48579454956897,3.));
#1001=CARTESIAN_POINT('Ctrl Pts',(2.52198984517317,-7.4656046001733,3.));
#1002=CARTESIAN_POINT('Ctrl Pts',(2.56413525031002,-7.45374784823443,3.));
#1003=CARTESIAN_POINT('Ctrl Pts',(2.60619855996886,-7.44153486150433,3.));
#1004=CARTESIAN_POINT('Ctrl Pts',(2.64817555767758,-7.42896706309838,3.));
#1005=CARTESIAN_POINT('Ctrl Pts',(2.68007346808509,-7.41941691588789,3.));
#1006=CARTESIAN_POINT('Ctrl Pts',(2.71192647016104,-7.4096602735574,3.));
#1007=CARTESIAN_POINT('Ctrl Pts',(2.74370311302551,-7.39970719471491,3.));
#1008=CARTESIAN_POINT('Ctrl Pts',(2.9407778207998,-7.33797946240836,3.));
#1009=CARTESIAN_POINT('Ctrl Pts',(3.13510588091152,-7.26864599768208,3.));
#1010=CARTESIAN_POINT('Ctrl Pts',(3.32627935729686,-7.19200079500376,3.));
#1011=CARTESIAN_POINT('Ctrl Pts',(3.52060847527049,-7.11409043361365,3.));
#1012=CARTESIAN_POINT('Ctrl Pts',(3.71167865034302,-7.02862485392623,3.));
#1013=CARTESIAN_POINT('Ctrl Pts',(3.8990579544853,-6.93585936731577,3.));
#1014=CARTESIAN_POINT('Ctrl Pts',(4.08683203938105,-6.84289843740987,3.));
#1015=CARTESIAN_POINT('Ctrl Pts',(4.27090034885929,-6.74260658034674,3.));
#1016=CARTESIAN_POINT('Ctrl Pts',(4.45081489903533,-6.63519014844131,3.));
#1017=CARTESIAN_POINT('Ctrl Pts',(4.62931324436694,-6.52861924943517,3.));
#1018=CARTESIAN_POINT('Ctrl Pts',(4.80372359072297,-6.41503520413171,3.));
#1019=CARTESIAN_POINT('Ctrl Pts',(4.97358577902781,-6.29459381094006,3.));
#1020=CARTESIAN_POINT('Ctrl Pts',(5.02834533638037,-6.25576635060931,3.));
#1021=CARTESIAN_POINT('Ctrl Pts',(5.08263200331794,-6.2162258909001,3.));
#1022=CARTESIAN_POINT('Ctrl Pts',(5.13642968937726,-6.17597670322456,3.));
#1023=CARTESIAN_POINT('Ctrl Pts',(5.20095440983354,-6.12770199526607,3.));
#1024=CARTESIAN_POINT('Ctrl Pts',(5.26477572687861,-6.07840776255718,3.));
#1025=CARTESIAN_POINT('Ctrl Pts',(5.32787610361435,-6.02811395188522,3.));
#1026=CARTESIAN_POINT('Ctrl Pts',(5.35040917751874,-6.01015408838787,3.));
#1027=CARTESIAN_POINT('Ctrl Pts',(5.37285031013022,-5.9920667513975,3.));
#1028=CARTESIAN_POINT('Ctrl Pts',(5.39519867810958,-5.97385282411077,3.));
#1029=CARTESIAN_POINT('Ctrl Pts',(5.41368385146707,-5.9587874017172,3.));
#1030=CARTESIAN_POINT('Ctrl Pts',(5.43210478319242,-5.94363595429926,3.));
#1031=CARTESIAN_POINT('Ctrl Pts',(5.45045120795628,-5.92840728713008,3.));
#1032=CARTESIAN_POINT('Ctrl Pts',(5.61099444013818,-5.79514647579316,3.));
#1033=CARTESIAN_POINT('Ctrl Pts',(5.76603623937131,-5.6558126458338,3.));
#1034=CARTESIAN_POINT('Ctrl Pts',(5.91535388869016,-5.51086519548014,3.));
#1035=CARTESIAN_POINT('Ctrl Pts',(6.0668071438879,-5.36384464373147,3.));
#1036=CARTESIAN_POINT('Ctrl Pts',(6.21237182904152,-5.21104836761907,3.));
#1037=CARTESIAN_POINT('Ctrl Pts',(6.35179155563427,-5.05290786118862,3.));
#1038=CARTESIAN_POINT('Ctrl Pts',(6.49245867726079,-4.89335246400218,3.));
#1039=CARTESIAN_POINT('Ctrl Pts',(6.62687090077961,-4.72835633029327,3.));
#1040=CARTESIAN_POINT('Ctrl Pts',(6.75473309517425,-4.55832056755552,3.));
#1041=CARTESIAN_POINT('Ctrl Pts',(6.88220296447126,-4.38880653289801,3.));
#1042=CARTESIAN_POINT('Ctrl Pts',(7.00316339634106,-4.21428322177217,3.));
#1043=CARTESIAN_POINT('Ctrl Pts',(7.1172833288628,-4.03511387698929,3.));
#1044=CARTESIAN_POINT('Ctrl Pts',(7.20078807285389,-3.90401066007935,3.));
#1045=CARTESIAN_POINT('Ctrl Pts',(7.28062946998991,-3.77041909783201,3.));
#1046=CARTESIAN_POINT('Ctrl Pts',(7.35666246496823,-3.63447230186439,3.));
#1047=CARTESIAN_POINT('Ctrl Pts',(7.37394148564952,-3.60357745812254,3.));
#1048=CARTESIAN_POINT('Ctrl Pts',(7.39102376149734,-3.57256094945153,3.));
#1049=CARTESIAN_POINT('Ctrl Pts',(7.40790748669796,-3.54142429231083,3.));
#1050=CARTESIAN_POINT('Ctrl Pts',(7.42136775090302,-3.51660111930865,3.));
#1051=CARTESIAN_POINT('Ctrl Pts',(7.43469751256734,-3.49170949118681,3.));
#1052=CARTESIAN_POINT('Ctrl Pts',(7.44789400459573,-3.46675434307568,3.));
#1053=CARTESIAN_POINT('Ctrl Pts',(7.49098233686189,-3.3852724074787,3.));
#1054=CARTESIAN_POINT('Ctrl Pts',(7.5326573317708,-3.30309978815967,3.));
#1055=CARTESIAN_POINT('Ctrl Pts',(7.57289676886781,-3.22026947402455,3.));
#1056=CARTESIAN_POINT('Ctrl Pts',(7.66608002180106,-3.02845769261256,3.));
#1057=CARTESIAN_POINT('Ctrl Pts',(7.75156803145934,-2.83312109020512,3.));
#1058=CARTESIAN_POINT('Ctrl Pts',(7.82934086582009,-2.63476044142495,3.));
#1059=CARTESIAN_POINT('Ctrl Pts',(7.90783432589814,-2.43456182716514,3.));
#1060=CARTESIAN_POINT('Ctrl Pts',(7.97846921776688,-2.23128226789029,3.));
#1061=CARTESIAN_POINT('Ctrl Pts',(8.04117922131406,-2.02540959212789,3.));
#1062=CARTESIAN_POINT('Ctrl Pts',(8.07364107764826,-1.91883952601859,3.));
#1063=CARTESIAN_POINT('Ctrl Pts',(8.1039785972646,-1.81157421973361,3.));
#1064=CARTESIAN_POINT('Ctrl Pts',(8.1321774916103,-1.70367936024734,3.));
#1065=CARTESIAN_POINT('Ctrl Pts',(8.14273863593253,-1.66327021623293,3.));
#1066=CARTESIAN_POINT('Ctrl Pts',(8.15299976440522,-1.62277275552624,3.));
#1067=CARTESIAN_POINT('Ctrl Pts',(8.16295999689009,-1.58219039448147,3.));
#1068=CARTESIAN_POINT('Ctrl Pts',(8.1715813755697,-1.54706311177891,3.));
#1069=CARTESIAN_POINT('Ctrl Pts',(8.17997766958202,-1.51187036480935,3.));
#1070=CARTESIAN_POINT('Ctrl Pts',(8.18814345475923,-1.47663606393735,3.));
#1071=CARTESIAN_POINT('Ctrl Pts',(8.23727675277338,-1.26463227403888,3.));
#1072=CARTESIAN_POINT('Ctrl Pts',(8.27811204024698,-1.05095361369043,3.));
#1073=CARTESIAN_POINT('Ctrl Pts',(8.31061196938141,-0.836108725671774,3.));
#1074=CARTESIAN_POINT('Ctrl Pts',(8.34320419224738,-0.620653718279109,3.));
#1075=CARTESIAN_POINT('Ctrl Pts',(8.36741384388703,-0.404025187787084,3.));
#1076=CARTESIAN_POINT('Ctrl Pts',(8.38315436432782,-0.186717335956132,3.));
#1077=CARTESIAN_POINT('Ctrl Pts',(8.39879621569778,0.0292283268730885,3.));
#1078=CARTESIAN_POINT('Ctrl Pts',(8.40607490914851,0.245845492754051,3.));
#1079=CARTESIAN_POINT('Ctrl Pts',(8.40485497461695,0.46265771769436,3.));
#1080=CARTESIAN_POINT('Ctrl Pts',(8.40457210033156,0.512931401739058,3.));
#1081=CARTESIAN_POINT('Ctrl Pts',(8.40383206210548,0.563215585486228,3.));
#1082=CARTESIAN_POINT('Ctrl Pts',(8.40263276777827,0.613504335648001,3.));
#1083=CARTESIAN_POINT('Ctrl Pts',(-3.66994176678153,-7.58323177178867,1.));
#1084=CARTESIAN_POINT('Ctrl Pts',(-3.86137543419681,-7.47886196842335,1.));
#1085=CARTESIAN_POINT('Ctrl Pts',(-4.04851976446758,-7.36725515332995,1.));
#1086=CARTESIAN_POINT('Ctrl Pts',(-4.23092741597878,-7.24861420810099,1.));
#1087=CARTESIAN_POINT('Ctrl Pts',(-4.41184450056365,-7.13094275218677,1.));
#1088=CARTESIAN_POINT('Ctrl Pts',(-4.58810254129323,-7.00635128408628,1.));
#1089=CARTESIAN_POINT('Ctrl Pts',(-4.75923429043717,-6.87499696305758,1.));
#1090=CARTESIAN_POINT('Ctrl Pts',(-4.7965331394377,-6.84636776356581,1.));
#1091=CARTESIAN_POINT('Ctrl Pts',(-4.83358833501602,-6.81741715886045,1.));
#1092=CARTESIAN_POINT('Ctrl Pts',(-4.87039480449688,-6.78814654242285,1.));
#1093=CARTESIAN_POINT('Ctrl Pts',(-4.99838768171101,-6.68635926240057,1.));
#1094=CARTESIAN_POINT('Ctrl Pts',(-5.12337381737222,-6.58070290486546,1.));
#1095=CARTESIAN_POINT('Ctrl Pts',(-5.24520918658132,-6.47133817201074,1.));
#1096=CARTESIAN_POINT('Ctrl Pts',(-5.2936377108326,-6.42786661977045,1.));
#1097=CARTESIAN_POINT('Ctrl Pts',(-5.34156826494917,-6.38380904065984,0.999999999999999));
#1098=CARTESIAN_POINT('Ctrl Pts',(-5.38899118613796,-6.33917513911526,0.999999999999999));
#1099=CARTESIAN_POINT('Ctrl Pts',(-5.41511260492735,-6.31458996373542,0.999999999999999));
#1100=CARTESIAN_POINT('Ctrl Pts',(-5.4410813177664,-6.2898285590393,1.));
#1101=CARTESIAN_POINT('Ctrl Pts',(-5.46688010423477,-6.26490784072561,1.));
#1102=CARTESIAN_POINT('Ctrl Pts',(-5.62202892751927,-6.11503954647407,1.));
#1103=CARTESIAN_POINT('Ctrl Pts',(-5.77116323591887,-5.95929365305731,1.));
#1104=CARTESIAN_POINT('Ctrl Pts',(-5.91399741791501,-5.79807947250188,1.));
#1105=CARTESIAN_POINT('Ctrl Pts',(-6.05665492920916,-5.63706469675313,1.));
#1106=CARTESIAN_POINT('Ctrl Pts',(-6.19302827282266,-5.47059457346333,1.));
#1107=CARTESIAN_POINT('Ctrl Pts',(-6.32279164179814,-5.29904597960389,1.));
#1108=CARTESIAN_POINT('Ctrl Pts',(-6.41534319797998,-5.17669180948753,1.));
#1109=CARTESIAN_POINT('Ctrl Pts',(-6.5045314041035,-5.05175355136307,1.));
#1110=CARTESIAN_POINT('Ctrl Pts',(-6.59022356079614,-4.92436075592036,1.));
#1111=CARTESIAN_POINT('Ctrl Pts',(-6.62982676867805,-4.86548531672852,1.));
#1112=CARTESIAN_POINT('Ctrl Pts',(-6.66868308189237,-4.80608554414495,1.));
#1113=CARTESIAN_POINT('Ctrl Pts',(-6.70677845461894,-4.74617390144208,1.));
#1114=CARTESIAN_POINT('Ctrl Pts',(-6.72676059454524,-4.71474848827457,1.));
#1115=CARTESIAN_POINT('Ctrl Pts',(-6.74653336592188,-4.68318224073967,1.));
#1116=CARTESIAN_POINT('Ctrl Pts',(-6.7660946727714,-4.65147693917614,1.));
#1117=CARTESIAN_POINT('Ctrl Pts',(-6.78014353119308,-4.62870630854756,1.));
#1118=CARTESIAN_POINT('Ctrl Pts',(-6.79407844026116,-4.60587183781135,1.));
#1119=CARTESIAN_POINT('Ctrl Pts',(-6.80789767609996,-4.58297629608967,1.));
#1120=CARTESIAN_POINT('Ctrl Pts',(-6.91804184693267,-4.40049077459515,1.));
#1121=CARTESIAN_POINT('Ctrl Pts',(-7.02086659096382,-4.2140869470245,1.));
#1122=CARTESIAN_POINT('Ctrl Pts',(-7.11609316227554,-4.02414865371626,1.));
#1123=CARTESIAN_POINT('Ctrl Pts',(-7.16644134650483,-3.92372449634138,1.));
#1124=CARTESIAN_POINT('Ctrl Pts',(-7.21466478060709,-3.82231180379562,1.));
#1125=CARTESIAN_POINT('Ctrl Pts',(-7.26071710132777,-3.7199644641614,1.));
#1126=CARTESIAN_POINT('Ctrl Pts',(-7.34792213149723,-3.52615875142217,1.));
#1127=CARTESIAN_POINT('Ctrl Pts',(-7.42734515707818,-3.32900241197007,1.));
#1128=CARTESIAN_POINT('Ctrl Pts',(-7.49890678810282,-3.12898658408198,1.));
#1129=CARTESIAN_POINT('Ctrl Pts',(-7.57045909222941,-2.9289968250133,1.));
#1130=CARTESIAN_POINT('Ctrl Pts',(-7.63415214630508,-2.72614762354618,1.));
#1131=CARTESIAN_POINT('Ctrl Pts',(-7.6898554520584,-2.52092087461092,1.));
#1132=CARTESIAN_POINT('Ctrl Pts',(-7.74566667694282,-2.31529652104302,1.));
#1133=CARTESIAN_POINT('Ctrl Pts',(-7.79345728967699,-2.10728469918521,1.));
#1134=CARTESIAN_POINT('Ctrl Pts',(-7.83304301192955,-1.89737151754421,1.));
#1135=CARTESIAN_POINT('Ctrl Pts',(-7.84290960365014,-1.845051450051,1.));
#1136=CARTESIAN_POINT('Ctrl Pts',(-7.85226621517048,-1.79261329884034,1.));
#1137=CARTESIAN_POINT('Ctrl Pts',(-7.86110946728212,-1.74006468323752,1.));
#1138=CARTESIAN_POINT('Ctrl Pts',(-7.86591397287076,-1.71151521815926,1.));
#1139=CARTESIAN_POINT('Ctrl Pts',(-7.87056717232909,-1.68293133019433,1.));
#1140=CARTESIAN_POINT('Ctrl Pts',(-7.87506525114399,-1.65433602402017,1.));
#1141=CARTESIAN_POINT('Ctrl Pts',(-7.90772224643144,-1.44672810575084,1.));
#1142=CARTESIAN_POINT('Ctrl Pts',(-7.93225118596504,-1.23826450779129,1.));
#1143=CARTESIAN_POINT('Ctrl Pts',(-7.94859444437078,-1.02941873960929,1.));
#1144=CARTESIAN_POINT('Ctrl Pts',(-7.96487665255639,-0.821353114517594,
1.));
#1145=CARTESIAN_POINT('Ctrl Pts',(-7.97303425889009,-0.612907486306013,
1.));
#1146=CARTESIAN_POINT('Ctrl Pts',(-7.97295911904439,-0.404545432984676,
1.));
#1147=CARTESIAN_POINT('Ctrl Pts',(-7.97290904430248,-0.265688666014482,
1.));
#1148=CARTESIAN_POINT('Ctrl Pts',(-7.96920162071939,-0.12686893613983,1.));
#1149=CARTESIAN_POINT('Ctrl Pts',(-7.9617920008801,0.0117754602396199,1.));
#1150=CARTESIAN_POINT('Ctrl Pts',(-7.9506231207271,0.220760898174793,1.));
#1151=CARTESIAN_POINT('Ctrl Pts',(-7.93104462888786,0.429348973226956,1.));
#1152=CARTESIAN_POINT('Ctrl Pts',(-7.90316836877355,0.637052709197799,1.));
#1153=CARTESIAN_POINT('Ctrl Pts',(-7.88592400555141,0.765539050299137,1.));
#1154=CARTESIAN_POINT('Ctrl Pts',(-7.86550334354894,0.893686698902552,1.));
#1155=CARTESIAN_POINT('Ctrl Pts',(-7.84192371806726,1.02137629598463,1.));
#1156=CARTESIAN_POINT('Ctrl Pts',(-7.82952164746902,1.08853662467191,1.));
#1157=CARTESIAN_POINT('Ctrl Pts',(-7.81624556831408,1.15557017760482,1.));
#1158=CARTESIAN_POINT('Ctrl Pts',(-7.80209726255643,1.22245913447399,1.));
#1159=CARTESIAN_POINT('Ctrl Pts',(-7.79424357342865,1.25958902707952,1.));
#1160=CARTESIAN_POINT('Ctrl Pts',(-7.78612111335848,1.29667435888943,1.));
#1161=CARTESIAN_POINT('Ctrl Pts',(-7.77773012107398,1.33371203465013,1.));
#1162=CARTESIAN_POINT('Ctrl Pts',(-7.77108718086249,1.36303384276394,1.));
#1163=CARTESIAN_POINT('Ctrl Pts',(-7.76427519605928,1.39232862787648,1.));
#1164=CARTESIAN_POINT('Ctrl Pts',(-7.75730020495332,1.42157071762667,1.));
#1165=CARTESIAN_POINT('Ctrl Pts',(-7.70927588828837,1.62290880634594,1.));
#1166=CARTESIAN_POINT('Ctrl Pts',(-7.65347676976576,1.82198492572764,1.));
#1167=CARTESIAN_POINT('Ctrl Pts',(-7.59008267113919,2.0183497955386,1.));
#1168=CARTESIAN_POINT('Ctrl Pts',(-7.52668141238647,2.21473684402658,1.));
#1169=CARTESIAN_POINT('Ctrl Pts',(-7.45568320187974,2.40841268981551,1.));
#1170=CARTESIAN_POINT('Ctrl Pts',(-7.37721818532368,2.59891241519323,1.));
#1171=CARTESIAN_POINT('Ctrl Pts',(-7.29966982029471,2.7871866664445,1.));
#1172=CARTESIAN_POINT('Ctrl Pts',(-7.21482776963409,2.97235915087988,1.));
#1173=CARTESIAN_POINT('Ctrl Pts',(-7.12277351128051,3.15395679220258,1.));
#1174=CARTESIAN_POINT('Ctrl Pts',(-7.05285113638313,3.29189433669157,1.));
#1175=CARTESIAN_POINT('Ctrl Pts',(-6.97876670180193,3.4277689213505,1.));
#1176=CARTESIAN_POINT('Ctrl Pts',(-6.90054019081451,3.56136061210696,1.));
#1177=CARTESIAN_POINT('Ctrl Pts',(-6.82379209884368,3.69242752585906,1.));
#1178=CARTESIAN_POINT('Ctrl Pts',(-6.74305675441212,3.82129703285364,1.));
#1179=CARTESIAN_POINT('Ctrl Pts',(-6.65845181513376,3.94780866882068,1.));
#1180=CARTESIAN_POINT('Ctrl Pts',(-6.62757323378326,3.99398209411136,1.));
#1181=CARTESIAN_POINT('Ctrl Pts',(-6.59617911131394,4.0398413180746,1.));
#1182=CARTESIAN_POINT('Ctrl Pts',(-6.56427487876957,4.08537811262949,1.));
#1183=CARTESIAN_POINT('Ctrl Pts',(-6.54536642916329,4.11236607367433,1.));
#1184=CARTESIAN_POINT('Ctrl Pts',(-6.5262757133568,4.13924495316953,1.));
#1185=CARTESIAN_POINT('Ctrl Pts',(-6.50702210058722,4.16598797101536,1.));
#1186=CARTESIAN_POINT('Ctrl Pts',(-6.388682218043,4.33036052948672,1.));
#1187=CARTESIAN_POINT('Ctrl Pts',(-6.26408249697192,4.48976356581508,1.));
#1188=CARTESIAN_POINT('Ctrl Pts',(-6.1335932626298,4.64389702531009,1.));
#1189=CARTESIAN_POINT('Ctrl Pts',(-6.0022308745576,4.7990618511532,1.));
#1190=CARTESIAN_POINT('Ctrl Pts',(-5.86489940175163,4.94888684741724,1.));
#1191=CARTESIAN_POINT('Ctrl Pts',(-5.72193624794306,5.09303235860803,1.));
#1192=CARTESIAN_POINT('Ctrl Pts',(-5.57966088093601,5.23648439474981,1.));
#1193=CARTESIAN_POINT('Ctrl Pts',(-5.43180735024111,5.37431189368662,1.));
#1194=CARTESIAN_POINT('Ctrl Pts',(-5.27867615410462,5.50614005655593,1.));
#1195=CARTESIAN_POINT('Ctrl Pts',(-5.12834353002534,5.63555897413579,1.));
#1196=CARTESIAN_POINT('Ctrl Pts',(-4.97292384426255,5.75919613551228,1.));
#1197=CARTESIAN_POINT('Ctrl Pts',(-4.81267849774104,5.87665300349662,1.));
#1198=CARTESIAN_POINT('Ctrl Pts',(-4.67649667734684,5.97647175297752,1.));
#1199=CARTESIAN_POINT('Ctrl Pts',(-4.53682915713165,6.07182640876956,1.));
#1200=CARTESIAN_POINT('Ctrl Pts',(-4.39382718345093,6.16244416481543,1.));
#1201=CARTESIAN_POINT('Ctrl Pts',(8.40263276777827,0.613504335648001,3.));
#1202=CARTESIAN_POINT('Ctrl Pts',(8.41753765442367,0.409365128067038,2.99420007427494));
#1203=CARTESIAN_POINT('Ctrl Pts',(8.42487083751673,0.204686065701908,2.98840014854988));
#1204=CARTESIAN_POINT('Ctrl Pts',(8.42471993059419,5.69702505448522E-6,
2.98260022282482));
#1205=CARTESIAN_POINT('Origin',(0.,0.,1.));
#1206=CARTESIAN_POINT('Origin',(0.,0.,3.));
#1207=CARTESIAN_POINT('Origin',(0.,0.,3.));
#1208=CARTESIAN_POINT('Origin',(0.,0.,1.));
#1209=UNCERTAINTY_MEASURE_WITH_UNIT(LENGTH_MEASURE(0.01),#1213,
'DISTANCE_ACCURACY_VALUE',
'Maximum model space distance between geometric entities at asserted c
onnectivities');
#1210=UNCERTAINTY_MEASURE_WITH_UNIT(LENGTH_MEASURE(0.01),#1213,
'DISTANCE_ACCURACY_VALUE',
'Maximum model space distance between geometric entities at asserted c
onnectivities');
#1211=(
GEOMETRIC_REPRESENTATION_CONTEXT(3)
GLOBAL_UNCERTAINTY_ASSIGNED_CONTEXT((#1209))
GLOBAL_UNIT_ASSIGNED_CONTEXT((#1213,#1215,#1216))
REPRESENTATION_CONTEXT('','3D')
);
#1212=(
GEOMETRIC_REPRESENTATION_CONTEXT(3)
GLOBAL_UNCERTAINTY_ASSIGNED_CONTEXT((#1210))
GLOBAL_UNIT_ASSIGNED_CONTEXT((#1213,#1215,#1216))
REPRESENTATION_CONTEXT('','3D')
);
#1213=(
LENGTH_UNIT()
NAMED_UNIT(*)
SI_UNIT(.MILLI.,.METRE.)
);
#1214=(
LENGTH_UNIT()
NAMED_UNIT(*)
SI_UNIT($,.METRE.)
);
#1215=(
NAMED_UNIT(*)
PLANE_ANGLE_UNIT()
SI_UNIT($,.RADIAN.)
);
#1216=(
NAMED_UNIT(*)
SI_UNIT($,.STERADIAN.)
SOLID_ANGLE_UNIT()
);
#1217=SHAPE_DEFINITION_REPRESENTATION(#1218,#1219);
#1218=PRODUCT_DEFINITION_SHAPE('',$,#1221);
#1219=SHAPE_REPRESENTATION('',(#228),#1211);
#1220=PRODUCT_DEFINITION_CONTEXT('part definition',#1225,'design');
#1221=PRODUCT_DEFINITION('Electrode Case Cap','Electrode Case Cap v19',
#1222,#1220);
#1222=PRODUCT_DEFINITION_FORMATION('',$,#1227);
#1223=PRODUCT_RELATED_PRODUCT_CATEGORY('Electrode Case Cap v19',
'Electrode Case Cap v19',(#1227));
#1224=APPLICATION_PROTOCOL_DEFINITION('international standard',
'automotive_design',2009,#1225);
#1225=APPLICATION_CONTEXT(
'Core Data for Automotive Mechanical Design Process');
#1226=PRODUCT_CONTEXT('part definition',#1225,'mechanical');
#1227=PRODUCT('Electrode Case Cap','Electrode Case Cap v19',$,(#1226));
#1228=PRESENTATION_STYLE_ASSIGNMENT((#1230));
#1229=PRESENTATION_STYLE_ASSIGNMENT((#1231));
#1230=SURFACE_STYLE_USAGE(.BOTH.,#1232);
#1231=SURFACE_STYLE_USAGE(.BOTH.,#1233);
#1232=SURFACE_SIDE_STYLE('',(#1234));
#1233=SURFACE_SIDE_STYLE('',(#1235));
#1234=SURFACE_STYLE_FILL_AREA(#1236);
#1235=SURFACE_STYLE_FILL_AREA(#1237);
#1236=FILL_AREA_STYLE('Steel - Satin',(#1238));
#1237=FILL_AREA_STYLE('Tough 2000 (with Formlabs SLA 3D Printers)',(#1239));
#1238=FILL_AREA_STYLE_COLOUR('Steel - Satin',#1240);
#1239=FILL_AREA_STYLE_COLOUR(
'Tough 2000 (with Formlabs SLA 3D Printers)',#1241);
#1240=COLOUR_RGB('Steel - Satin',0.627450980392157,0.627450980392157,0.627450980392157);
#1241=COLOUR_RGB('Tough 2000 (with Formlabs SLA 3D Printers)',0.0588235294117647,
0.0588235294117647,0.0588235294117647);
ENDSEC;
END-ISO-10303-21;
