ISO-10303-21;
HEADER;
/* Generated by software containing ST-Developer
 * from STEP Tools, Inc. (www.steptools.com) 
 */

FILE_DESCRIPTION(
/* description */ (''),
/* implementation_level */ '2;1');

FILE_NAME(
/* name */ 'PCB Lock.step',
/* time_stamp */ '2026-04-28T10:40:34-04:00',
/* author */ (''),
/* organization */ (''),
/* preprocessor_version */ 'ST-DEVELOPER v20.1',
/* originating_system */ 'Autodesk Translation Framework v15.8.0.0',
/* authorisation */ '');

FILE_SCHEMA (('AUTOMOTIVE_DESIGN { 1 0 10303 214 3 1 1 }'));
ENDSEC;

DATA;
#10=MECHANICAL_DESIGN_GEOMETRIC_PRESENTATION_REPRESENTATION('',(#13),#529);
#11=SHAPE_REPRESENTATION_RELATIONSHIP('SRR','None',#536,#12);
#12=ADVANCED_BREP_SHAPE_REPRESENTATION('',(#14),#528);
#13=STYLED_ITEM('',(#546),#14);
#14=MANIFOLD_SOLID_BREP('Body1',#301);
#15=CYLINDRICAL_SURFACE('',#324,8.175);
#16=CYLINDRICAL_SURFACE('',#327,8.675);
#17=CYLINDRICAL_SURFACE('',#330,8.175);
#18=CYLINDRICAL_SURFACE('',#333,2.5);
#19=CYLINDRICAL_SURFACE('',#335,8.675);
#20=CYLINDRICAL_SURFACE('',#339,8.175);
#21=CYLINDRICAL_SURFACE('',#344,2.5);
#22=CYLINDRICAL_SURFACE('',#346,6.5);
#23=FACE_OUTER_BOUND('',#39,.T.);
#24=FACE_OUTER_BOUND('',#40,.T.);
#25=FACE_OUTER_BOUND('',#41,.T.);
#26=FACE_OUTER_BOUND('',#42,.T.);
#27=FACE_OUTER_BOUND('',#43,.T.);
#28=FACE_OUTER_BOUND('',#44,.T.);
#29=FACE_OUTER_BOUND('',#45,.T.);
#30=FACE_OUTER_BOUND('',#46,.T.);
#31=FACE_OUTER_BOUND('',#47,.T.);
#32=FACE_OUTER_BOUND('',#48,.T.);
#33=FACE_OUTER_BOUND('',#49,.T.);
#34=FACE_OUTER_BOUND('',#50,.T.);
#35=FACE_OUTER_BOUND('',#51,.T.);
#36=FACE_OUTER_BOUND('',#52,.T.);
#37=FACE_OUTER_BOUND('',#53,.T.);
#38=FACE_OUTER_BOUND('',#54,.T.);
#39=EDGE_LOOP('',(#193,#194,#195,#196,#197,#198,#199,#200,#201,#202,#203,
#204,#205,#206));
#40=EDGE_LOOP('',(#207,#208,#209,#210));
#41=EDGE_LOOP('',(#211,#212,#213,#214));
#42=EDGE_LOOP('',(#215,#216,#217,#218));
#43=EDGE_LOOP('',(#219,#220,#221,#222));
#44=EDGE_LOOP('',(#223,#224,#225,#226));
#45=EDGE_LOOP('',(#227,#228,#229,#230));
#46=EDGE_LOOP('',(#231,#232,#233,#234));
#47=EDGE_LOOP('',(#235,#236,#237,#238));
#48=EDGE_LOOP('',(#239,#240,#241,#242));
#49=EDGE_LOOP('',(#243,#244,#245,#246));
#50=EDGE_LOOP('',(#247,#248,#249,#250));
#51=EDGE_LOOP('',(#251,#252,#253,#254,#255,#256,#257,#258,#259,#260,#261,
#262,#263,#264));
#52=EDGE_LOOP('',(#265,#266,#267,#268));
#53=EDGE_LOOP('',(#269,#270,#271,#272));
#54=EDGE_LOOP('',(#273,#274,#275,#276));
#55=LINE('',#445,#81);
#56=LINE('',#449,#82);
#57=LINE('',#453,#83);
#58=LINE('',#457,#84);
#59=LINE('',#461,#85);
#60=LINE('',#465,#86);
#61=LINE('',#471,#87);
#62=LINE('',#474,#88);
#63=LINE('',#477,#89);
#64=LINE('',#478,#90);
#65=LINE('',#481,#91);
#66=LINE('',#485,#92);
#67=LINE('',#486,#93);
#68=LINE('',#489,#94);
#69=LINE('',#493,#95);
#70=LINE('',#494,#96);
#71=LINE('',#497,#97);
#72=LINE('',#501,#98);
#73=LINE('',#504,#99);
#74=LINE('',#507,#100);
#75=LINE('',#508,#101);
#76=LINE('',#510,#102);
#77=LINE('',#514,#103);
#78=LINE('',#520,#104);
#79=LINE('',#522,#105);
#80=LINE('',#523,#106);
#81=VECTOR('',#353,10.);
#82=VECTOR('',#356,10.);
#83=VECTOR('',#359,10.);
#84=VECTOR('',#362,10.);
#85=VECTOR('',#365,10.);
#86=VECTOR('',#368,10.);
#87=VECTOR('',#375,10.);
#88=VECTOR('',#378,10.);
#89=VECTOR('',#381,10.);
#90=VECTOR('',#382,10.);
#91=VECTOR('',#385,10.);
#92=VECTOR('',#390,10.);
#93=VECTOR('',#391,10.);
#94=VECTOR('',#394,10.);
#95=VECTOR('',#399,10.);
#96=VECTOR('',#400,10.);
#97=VECTOR('',#403,10.);
#98=VECTOR('',#408,10.);
#99=VECTOR('',#411,10.);
#100=VECTOR('',#414,10.);
#101=VECTOR('',#415,10.);
#102=VECTOR('',#418,10.);
#103=VECTOR('',#423,10.);
#104=VECTOR('',#430,10.);
#105=VECTOR('',#433,10.);
#106=VECTOR('',#434,10.);
#107=CIRCLE('',#316,2.5);
#108=CIRCLE('',#317,8.175);
#109=CIRCLE('',#318,8.675);
#110=CIRCLE('',#319,8.175);
#111=CIRCLE('',#320,8.675);
#112=CIRCLE('',#321,8.175);
#113=CIRCLE('',#322,2.5);
#114=CIRCLE('',#323,6.5);
#115=CIRCLE('',#325,8.175);
#116=CIRCLE('',#328,8.675);
#117=CIRCLE('',#331,8.175);
#118=CIRCLE('',#334,2.5);
#119=CIRCLE('',#336,8.675);
#120=CIRCLE('',#340,8.175);
#121=CIRCLE('',#342,6.5);
#122=CIRCLE('',#343,2.5);
#123=VERTEX_POINT('',#441);
#124=VERTEX_POINT('',#442);
#125=VERTEX_POINT('',#444);
#126=VERTEX_POINT('',#446);
#127=VERTEX_POINT('',#448);
#128=VERTEX_POINT('',#450);
#129=VERTEX_POINT('',#452);
#130=VERTEX_POINT('',#454);
#131=VERTEX_POINT('',#456);
#132=VERTEX_POINT('',#458);
#133=VERTEX_POINT('',#460);
#134=VERTEX_POINT('',#462);
#135=VERTEX_POINT('',#464);
#136=VERTEX_POINT('',#466);
#137=VERTEX_POINT('',#470);
#138=VERTEX_POINT('',#472);
#139=VERTEX_POINT('',#476);
#140=VERTEX_POINT('',#480);
#141=VERTEX_POINT('',#484);
#142=VERTEX_POINT('',#488);
#143=VERTEX_POINT('',#492);
#144=VERTEX_POINT('',#496);
#145=VERTEX_POINT('',#500);
#146=VERTEX_POINT('',#502);
#147=VERTEX_POINT('',#506);
#148=VERTEX_POINT('',#512);
#149=VERTEX_POINT('',#516);
#150=VERTEX_POINT('',#518);
#151=EDGE_CURVE('',#123,#124,#107,.T.);
#152=EDGE_CURVE('',#125,#123,#55,.T.);
#153=EDGE_CURVE('',#126,#125,#108,.T.);
#154=EDGE_CURVE('',#127,#126,#56,.T.);
#155=EDGE_CURVE('',#128,#127,#109,.T.);
#156=EDGE_CURVE('',#129,#128,#57,.T.);
#157=EDGE_CURVE('',#130,#129,#110,.T.);
#158=EDGE_CURVE('',#131,#130,#58,.T.);
#159=EDGE_CURVE('',#132,#131,#111,.T.);
#160=EDGE_CURVE('',#133,#132,#59,.T.);
#161=EDGE_CURVE('',#134,#133,#112,.T.);
#162=EDGE_CURVE('',#135,#134,#60,.T.);
#163=EDGE_CURVE('',#136,#135,#113,.T.);
#164=EDGE_CURVE('',#124,#136,#114,.T.);
#165=EDGE_CURVE('',#129,#137,#61,.T.);
#166=EDGE_CURVE('',#137,#138,#115,.T.);
#167=EDGE_CURVE('',#138,#130,#62,.T.);
#168=EDGE_CURVE('',#128,#139,#63,.T.);
#169=EDGE_CURVE('',#137,#139,#64,.T.);
#170=EDGE_CURVE('',#127,#140,#65,.T.);
#171=EDGE_CURVE('',#139,#140,#116,.T.);
#172=EDGE_CURVE('',#141,#126,#66,.T.);
#173=EDGE_CURVE('',#140,#141,#67,.T.);
#174=EDGE_CURVE('',#125,#142,#68,.T.);
#175=EDGE_CURVE('',#142,#141,#117,.T.);
#176=EDGE_CURVE('',#143,#123,#69,.T.);
#177=EDGE_CURVE('',#142,#143,#70,.T.);
#178=EDGE_CURVE('',#124,#144,#71,.T.);
#179=EDGE_CURVE('',#144,#143,#118,.T.);
#180=EDGE_CURVE('',#131,#145,#72,.T.);
#181=EDGE_CURVE('',#146,#145,#119,.T.);
#182=EDGE_CURVE('',#132,#146,#73,.T.);
#183=EDGE_CURVE('',#147,#146,#74,.T.);
#184=EDGE_CURVE('',#133,#147,#75,.T.);
#185=EDGE_CURVE('',#145,#138,#76,.T.);
#186=EDGE_CURVE('',#147,#148,#120,.T.);
#187=EDGE_CURVE('',#148,#134,#77,.T.);
#188=EDGE_CURVE('',#149,#144,#121,.T.);
#189=EDGE_CURVE('',#150,#149,#122,.T.);
#190=EDGE_CURVE('',#150,#148,#78,.T.);
#191=EDGE_CURVE('',#135,#150,#79,.T.);
#192=EDGE_CURVE('',#149,#136,#80,.T.);
#193=ORIENTED_EDGE('',*,*,#151,.F.);
#194=ORIENTED_EDGE('',*,*,#152,.F.);
#195=ORIENTED_EDGE('',*,*,#153,.F.);
#196=ORIENTED_EDGE('',*,*,#154,.F.);
#197=ORIENTED_EDGE('',*,*,#155,.F.);
#198=ORIENTED_EDGE('',*,*,#156,.F.);
#199=ORIENTED_EDGE('',*,*,#157,.F.);
#200=ORIENTED_EDGE('',*,*,#158,.F.);
#201=ORIENTED_EDGE('',*,*,#159,.F.);
#202=ORIENTED_EDGE('',*,*,#160,.F.);
#203=ORIENTED_EDGE('',*,*,#161,.F.);
#204=ORIENTED_EDGE('',*,*,#162,.F.);
#205=ORIENTED_EDGE('',*,*,#163,.F.);
#206=ORIENTED_EDGE('',*,*,#164,.F.);
#207=ORIENTED_EDGE('',*,*,#157,.T.);
#208=ORIENTED_EDGE('',*,*,#165,.T.);
#209=ORIENTED_EDGE('',*,*,#166,.T.);
#210=ORIENTED_EDGE('',*,*,#167,.T.);
#211=ORIENTED_EDGE('',*,*,#156,.T.);
#212=ORIENTED_EDGE('',*,*,#168,.T.);
#213=ORIENTED_EDGE('',*,*,#169,.F.);
#214=ORIENTED_EDGE('',*,*,#165,.F.);
#215=ORIENTED_EDGE('',*,*,#155,.T.);
#216=ORIENTED_EDGE('',*,*,#170,.T.);
#217=ORIENTED_EDGE('',*,*,#171,.F.);
#218=ORIENTED_EDGE('',*,*,#168,.F.);
#219=ORIENTED_EDGE('',*,*,#154,.T.);
#220=ORIENTED_EDGE('',*,*,#172,.F.);
#221=ORIENTED_EDGE('',*,*,#173,.F.);
#222=ORIENTED_EDGE('',*,*,#170,.F.);
#223=ORIENTED_EDGE('',*,*,#153,.T.);
#224=ORIENTED_EDGE('',*,*,#174,.T.);
#225=ORIENTED_EDGE('',*,*,#175,.T.);
#226=ORIENTED_EDGE('',*,*,#172,.T.);
#227=ORIENTED_EDGE('',*,*,#152,.T.);
#228=ORIENTED_EDGE('',*,*,#176,.F.);
#229=ORIENTED_EDGE('',*,*,#177,.F.);
#230=ORIENTED_EDGE('',*,*,#174,.F.);
#231=ORIENTED_EDGE('',*,*,#151,.T.);
#232=ORIENTED_EDGE('',*,*,#178,.T.);
#233=ORIENTED_EDGE('',*,*,#179,.T.);
#234=ORIENTED_EDGE('',*,*,#176,.T.);
#235=ORIENTED_EDGE('',*,*,#159,.T.);
#236=ORIENTED_EDGE('',*,*,#180,.T.);
#237=ORIENTED_EDGE('',*,*,#181,.F.);
#238=ORIENTED_EDGE('',*,*,#182,.F.);
#239=ORIENTED_EDGE('',*,*,#160,.T.);
#240=ORIENTED_EDGE('',*,*,#182,.T.);
#241=ORIENTED_EDGE('',*,*,#183,.F.);
#242=ORIENTED_EDGE('',*,*,#184,.F.);
#243=ORIENTED_EDGE('',*,*,#158,.T.);
#244=ORIENTED_EDGE('',*,*,#167,.F.);
#245=ORIENTED_EDGE('',*,*,#185,.F.);
#246=ORIENTED_EDGE('',*,*,#180,.F.);
#247=ORIENTED_EDGE('',*,*,#161,.T.);
#248=ORIENTED_EDGE('',*,*,#184,.T.);
#249=ORIENTED_EDGE('',*,*,#186,.T.);
#250=ORIENTED_EDGE('',*,*,#187,.T.);
#251=ORIENTED_EDGE('',*,*,#179,.F.);
#252=ORIENTED_EDGE('',*,*,#188,.F.);
#253=ORIENTED_EDGE('',*,*,#189,.F.);
#254=ORIENTED_EDGE('',*,*,#190,.T.);
#255=ORIENTED_EDGE('',*,*,#186,.F.);
#256=ORIENTED_EDGE('',*,*,#183,.T.);
#257=ORIENTED_EDGE('',*,*,#181,.T.);
#258=ORIENTED_EDGE('',*,*,#185,.T.);
#259=ORIENTED_EDGE('',*,*,#166,.F.);
#260=ORIENTED_EDGE('',*,*,#169,.T.);
#261=ORIENTED_EDGE('',*,*,#171,.T.);
#262=ORIENTED_EDGE('',*,*,#173,.T.);
#263=ORIENTED_EDGE('',*,*,#175,.F.);
#264=ORIENTED_EDGE('',*,*,#177,.T.);
#265=ORIENTED_EDGE('',*,*,#163,.T.);
#266=ORIENTED_EDGE('',*,*,#191,.T.);
#267=ORIENTED_EDGE('',*,*,#189,.T.);
#268=ORIENTED_EDGE('',*,*,#192,.T.);
#269=ORIENTED_EDGE('',*,*,#162,.T.);
#270=ORIENTED_EDGE('',*,*,#187,.F.);
#271=ORIENTED_EDGE('',*,*,#190,.F.);
#272=ORIENTED_EDGE('',*,*,#191,.F.);
#273=ORIENTED_EDGE('',*,*,#164,.T.);
#274=ORIENTED_EDGE('',*,*,#192,.F.);
#275=ORIENTED_EDGE('',*,*,#188,.T.);
#276=ORIENTED_EDGE('',*,*,#178,.F.);
#277=PLANE('',#315);
#278=PLANE('',#326);
#279=PLANE('',#329);
#280=PLANE('',#332);
#281=PLANE('',#337);
#282=PLANE('',#338);
#283=PLANE('',#341);
#284=PLANE('',#345);
#285=ADVANCED_FACE('',(#23),#277,.T.);
#286=ADVANCED_FACE('',(#24),#15,.T.);
#287=ADVANCED_FACE('',(#25),#278,.T.);
#288=ADVANCED_FACE('',(#26),#16,.T.);
#289=ADVANCED_FACE('',(#27),#279,.T.);
#290=ADVANCED_FACE('',(#28),#17,.T.);
#291=ADVANCED_FACE('',(#29),#280,.F.);
#292=ADVANCED_FACE('',(#30),#18,.T.);
#293=ADVANCED_FACE('',(#31),#19,.T.);
#294=ADVANCED_FACE('',(#32),#281,.T.);
#295=ADVANCED_FACE('',(#33),#282,.T.);
#296=ADVANCED_FACE('',(#34),#20,.T.);
#297=ADVANCED_FACE('',(#35),#283,.F.);
#298=ADVANCED_FACE('',(#36),#21,.T.);
#299=ADVANCED_FACE('',(#37),#284,.F.);
#300=ADVANCED_FACE('',(#38),#22,.F.);
#301=CLOSED_SHELL('',(#285,#286,#287,#288,#289,#290,#291,#292,#293,#294,
#295,#296,#297,#298,#299,#300));
#302=DERIVED_UNIT_ELEMENT(#304,1.);
#303=DERIVED_UNIT_ELEMENT(#531,-3.);
#304=(
MASS_UNIT()
NAMED_UNIT(*)
SI_UNIT(.KILO.,.GRAM.)
);
#305=DERIVED_UNIT((#302,#303));
#306=MEASURE_REPRESENTATION_ITEM('density measure',
POSITIVE_RATIO_MEASURE(7850.),#305);
#307=PROPERTY_DEFINITION_REPRESENTATION(#312,#309);
#308=PROPERTY_DEFINITION_REPRESENTATION(#313,#310);
#309=REPRESENTATION('material name',(#311),#528);
#310=REPRESENTATION('density',(#306),#528);
#311=DESCRIPTIVE_REPRESENTATION_ITEM('Steel','Steel');
#312=PROPERTY_DEFINITION('material property','material name',#538);
#313=PROPERTY_DEFINITION('material property','density of part',#538);
#314=AXIS2_PLACEMENT_3D('',#439,#347,#348);
#315=AXIS2_PLACEMENT_3D('',#440,#349,#350);
#316=AXIS2_PLACEMENT_3D('',#443,#351,#352);
#317=AXIS2_PLACEMENT_3D('',#447,#354,#355);
#318=AXIS2_PLACEMENT_3D('',#451,#357,#358);
#319=AXIS2_PLACEMENT_3D('',#455,#360,#361);
#320=AXIS2_PLACEMENT_3D('',#459,#363,#364);
#321=AXIS2_PLACEMENT_3D('',#463,#366,#367);
#322=AXIS2_PLACEMENT_3D('',#467,#369,#370);
#323=AXIS2_PLACEMENT_3D('',#468,#371,#372);
#324=AXIS2_PLACEMENT_3D('',#469,#373,#374);
#325=AXIS2_PLACEMENT_3D('',#473,#376,#377);
#326=AXIS2_PLACEMENT_3D('',#475,#379,#380);
#327=AXIS2_PLACEMENT_3D('',#479,#383,#384);
#328=AXIS2_PLACEMENT_3D('',#482,#386,#387);
#329=AXIS2_PLACEMENT_3D('',#483,#388,#389);
#330=AXIS2_PLACEMENT_3D('',#487,#392,#393);
#331=AXIS2_PLACEMENT_3D('',#490,#395,#396);
#332=AXIS2_PLACEMENT_3D('',#491,#397,#398);
#333=AXIS2_PLACEMENT_3D('',#495,#401,#402);
#334=AXIS2_PLACEMENT_3D('',#498,#404,#405);
#335=AXIS2_PLACEMENT_3D('',#499,#406,#407);
#336=AXIS2_PLACEMENT_3D('',#503,#409,#410);
#337=AXIS2_PLACEMENT_3D('',#505,#412,#413);
#338=AXIS2_PLACEMENT_3D('',#509,#416,#417);
#339=AXIS2_PLACEMENT_3D('',#511,#419,#420);
#340=AXIS2_PLACEMENT_3D('',#513,#421,#422);
#341=AXIS2_PLACEMENT_3D('',#515,#424,#425);
#342=AXIS2_PLACEMENT_3D('',#517,#426,#427);
#343=AXIS2_PLACEMENT_3D('',#519,#428,#429);
#344=AXIS2_PLACEMENT_3D('',#521,#431,#432);
#345=AXIS2_PLACEMENT_3D('',#524,#435,#436);
#346=AXIS2_PLACEMENT_3D('',#525,#437,#438);
#347=DIRECTION('axis',(0.,0.,1.));
#348=DIRECTION('refdir',(1.,0.,0.));
#349=DIRECTION('center_axis',(0.,0.,1.));
#350=DIRECTION('ref_axis',(1.,0.,0.));
#351=DIRECTION('center_axis',(0.,0.,-1.));
#352=DIRECTION('ref_axis',(-0.927960727138337,0.372677996249965,0.));
#353=DIRECTION('',(0.,1.,0.));
#354=DIRECTION('center_axis',(0.,0.,-1.));
#355=DIRECTION('ref_axis',(1.,0.,0.));
#356=DIRECTION('',(-1.,0.,0.));
#357=DIRECTION('center_axis',(0.,0.,-1.));
#358=DIRECTION('ref_axis',(-1.,0.,0.));
#359=DIRECTION('',(1.,0.,0.));
#360=DIRECTION('center_axis',(0.,0.,-1.));
#361=DIRECTION('ref_axis',(1.,0.,0.));
#362=DIRECTION('',(1.,0.,0.));
#363=DIRECTION('center_axis',(0.,0.,-1.));
#364=DIRECTION('ref_axis',(-1.,0.,0.));
#365=DIRECTION('',(-1.,0.,0.));
#366=DIRECTION('center_axis',(0.,0.,-1.));
#367=DIRECTION('ref_axis',(1.,0.,0.));
#368=DIRECTION('',(0.,-1.,0.));
#369=DIRECTION('center_axis',(0.,0.,-1.));
#370=DIRECTION('ref_axis',(0.927960727138337,0.372677996249965,0.));
#371=DIRECTION('center_axis',(0.,0.,1.));
#372=DIRECTION('ref_axis',(1.,0.,0.));
#373=DIRECTION('center_axis',(0.,0.,1.));
#374=DIRECTION('ref_axis',(1.,0.,0.));
#375=DIRECTION('',(0.,0.,-1.));
#376=DIRECTION('center_axis',(0.,0.,1.));
#377=DIRECTION('ref_axis',(1.,0.,0.));
#378=DIRECTION('',(0.,0.,1.));
#379=DIRECTION('center_axis',(0.,1.,0.));
#380=DIRECTION('ref_axis',(1.,0.,0.));
#381=DIRECTION('',(0.,0.,-1.));
#382=DIRECTION('',(1.,0.,0.));
#383=DIRECTION('center_axis',(0.,0.,-1.));
#384=DIRECTION('ref_axis',(1.,1.22464679914735E-16,0.));
#385=DIRECTION('',(0.,0.,-1.));
#386=DIRECTION('center_axis',(0.,0.,-1.));
#387=DIRECTION('ref_axis',(-1.,0.,0.));
#388=DIRECTION('center_axis',(0.,-1.,0.));
#389=DIRECTION('ref_axis',(-1.,0.,0.));
#390=DIRECTION('',(0.,0.,1.));
#391=DIRECTION('',(-1.,0.,0.));
#392=DIRECTION('center_axis',(0.,0.,1.));
#393=DIRECTION('ref_axis',(1.,0.,0.));
#394=DIRECTION('',(0.,0.,-1.));
#395=DIRECTION('center_axis',(0.,0.,1.));
#396=DIRECTION('ref_axis',(1.,0.,0.));
#397=DIRECTION('center_axis',(1.,0.,0.));
#398=DIRECTION('ref_axis',(0.,-1.,0.));
#399=DIRECTION('',(0.,0.,1.));
#400=DIRECTION('',(0.,1.,0.));
#401=DIRECTION('center_axis',(0.,0.,1.));
#402=DIRECTION('ref_axis',(-0.927960727138337,0.372677996249965,0.));
#403=DIRECTION('',(0.,0.,-1.));
#404=DIRECTION('center_axis',(0.,0.,1.));
#405=DIRECTION('ref_axis',(-0.927960727138337,0.372677996249965,0.));
#406=DIRECTION('center_axis',(0.,0.,-1.));
#407=DIRECTION('ref_axis',(-1.,0.,0.));
#408=DIRECTION('',(0.,0.,-1.));
#409=DIRECTION('center_axis',(0.,0.,-1.));
#410=DIRECTION('ref_axis',(-1.,0.,0.));
#411=DIRECTION('',(0.,0.,-1.));
#412=DIRECTION('center_axis',(0.,-1.,0.));
#413=DIRECTION('ref_axis',(-1.,0.,0.));
#414=DIRECTION('',(-1.,0.,0.));
#415=DIRECTION('',(0.,0.,-1.));
#416=DIRECTION('center_axis',(0.,1.,0.));
#417=DIRECTION('ref_axis',(1.,0.,0.));
#418=DIRECTION('',(1.,0.,0.));
#419=DIRECTION('center_axis',(0.,0.,1.));
#420=DIRECTION('ref_axis',(1.,0.,0.));
#421=DIRECTION('center_axis',(0.,0.,1.));
#422=DIRECTION('ref_axis',(1.,0.,0.));
#423=DIRECTION('',(0.,0.,1.));
#424=DIRECTION('center_axis',(0.,0.,1.));
#425=DIRECTION('ref_axis',(1.,0.,0.));
#426=DIRECTION('center_axis',(0.,0.,-1.));
#427=DIRECTION('ref_axis',(1.,0.,0.));
#428=DIRECTION('center_axis',(0.,0.,1.));
#429=DIRECTION('ref_axis',(0.927960727138337,0.372677996249965,0.));
#430=DIRECTION('',(0.,-1.,0.));
#431=DIRECTION('center_axis',(0.,0.,-1.));
#432=DIRECTION('ref_axis',(0.927960727138337,0.372677996249965,0.));
#433=DIRECTION('',(0.,0.,-1.));
#434=DIRECTION('',(0.,0.,1.));
#435=DIRECTION('center_axis',(-1.,0.,0.));
#436=DIRECTION('ref_axis',(0.,1.,0.));
#437=DIRECTION('center_axis',(0.,0.,1.));
#438=DIRECTION('ref_axis',(6.12323399573677E-17,1.,0.));
#439=CARTESIAN_POINT('',(0.,0.,0.));
#440=CARTESIAN_POINT('Origin',(0.,0.,1.35));
#441=CARTESIAN_POINT('',(4.,-6.22494979899437,1.35));
#442=CARTESIAN_POINT('',(4.69444444444444,-4.49579707705149,1.35));
#443=CARTESIAN_POINT('Origin',(6.5,-6.22494979899437,1.35));
#444=CARTESIAN_POINT('',(4.,-7.12955994434439,1.35));
#445=CARTESIAN_POINT('',(4.,-2.5617376914899,1.35));
#446=CARTESIAN_POINT('',(8.11360739745275,-1.,1.35));
#447=CARTESIAN_POINT('Origin',(0.,0.,1.35));
#448=CARTESIAN_POINT('',(8.61717035923046,-1.,1.35));
#449=CARTESIAN_POINT('',(4.30858517961523,-1.,1.35));
#450=CARTESIAN_POINT('',(8.61717035923046,1.,1.35));
#451=CARTESIAN_POINT('Origin',(0.,0.,1.35));
#452=CARTESIAN_POINT('',(8.11360739745275,1.,1.35));
#453=CARTESIAN_POINT('',(4.05680369872638,1.,1.35));
#454=CARTESIAN_POINT('',(-8.11360739745275,1.,1.35));
#455=CARTESIAN_POINT('Origin',(0.,0.,1.35));
#456=CARTESIAN_POINT('',(-8.61717035923046,1.,1.35));
#457=CARTESIAN_POINT('',(-4.30858517961523,1.,1.35));
#458=CARTESIAN_POINT('',(-8.61717035923046,-1.,1.35));
#459=CARTESIAN_POINT('Origin',(0.,0.,1.35));
#460=CARTESIAN_POINT('',(-8.11360739745275,-1.,1.35));
#461=CARTESIAN_POINT('',(-4.05680369872638,-1.,1.35));
#462=CARTESIAN_POINT('',(-4.,-7.12955994434439,1.35));
#463=CARTESIAN_POINT('Origin',(0.,0.,1.35));
#464=CARTESIAN_POINT('',(-4.,-6.22494979899437,1.35));
#465=CARTESIAN_POINT('',(-4.,-3.5647799721722,1.35));
#466=CARTESIAN_POINT('',(-4.69444444444444,-4.49579707705149,1.35));
#467=CARTESIAN_POINT('Origin',(-6.5,-6.22494979899437,1.35));
#468=CARTESIAN_POINT('Origin',(0.,0.,1.35));
#469=CARTESIAN_POINT('Origin',(0.,0.,0.));
#470=CARTESIAN_POINT('',(8.11360739745275,1.,0.));
#471=CARTESIAN_POINT('',(8.11360739745275,1.,0.));
#472=CARTESIAN_POINT('',(-8.11360739745275,1.,0.));
#473=CARTESIAN_POINT('Origin',(0.,0.,0.));
#474=CARTESIAN_POINT('',(-8.11360739745275,1.,0.));
#475=CARTESIAN_POINT('Origin',(8.11360739745275,1.,1.5));
#476=CARTESIAN_POINT('',(8.61717035923046,0.999999999999999,0.));
#477=CARTESIAN_POINT('',(8.61717035923046,0.999999999999999,1.5));
#478=CARTESIAN_POINT('',(-10.6029313705098,1.,0.));
#479=CARTESIAN_POINT('Origin',(0.,0.,1.5));
#480=CARTESIAN_POINT('',(8.61717035923046,-1.,0.));
#481=CARTESIAN_POINT('',(8.61717035923046,-1.,1.5));
#482=CARTESIAN_POINT('Origin',(0.,0.,0.));
#483=CARTESIAN_POINT('Origin',(8.61717035923046,-1.,1.5));
#484=CARTESIAN_POINT('',(8.11360739745275,-1.,0.));
#485=CARTESIAN_POINT('',(8.11360739745275,-1.,0.));
#486=CARTESIAN_POINT('',(9.82144041292242,-1.,0.));
#487=CARTESIAN_POINT('Origin',(0.,0.,0.));
#488=CARTESIAN_POINT('',(4.,-7.12955994434439,0.));
#489=CARTESIAN_POINT('',(4.,-7.12955994434439,0.));
#490=CARTESIAN_POINT('Origin',(0.,0.,0.));
#491=CARTESIAN_POINT('Origin',(4.,-5.1234753829798,1.5));
#492=CARTESIAN_POINT('',(4.,-6.22494979899437,0.));
#493=CARTESIAN_POINT('',(4.,-6.22494979899437,0.));
#494=CARTESIAN_POINT('',(4.,-2.5617376914899,0.));
#495=CARTESIAN_POINT('Origin',(6.5,-6.22494979899437,0.));
#496=CARTESIAN_POINT('',(4.69444444444444,-4.49579707705149,0.));
#497=CARTESIAN_POINT('',(4.69444444444444,-4.49579707705149,0.));
#498=CARTESIAN_POINT('Origin',(6.5,-6.22494979899437,0.));
#499=CARTESIAN_POINT('Origin',(0.,0.,1.5));
#500=CARTESIAN_POINT('',(-8.61717035923046,1.,0.));
#501=CARTESIAN_POINT('',(-8.61717035923046,1.,1.5));
#502=CARTESIAN_POINT('',(-8.61717035923046,-1.,0.));
#503=CARTESIAN_POINT('Origin',(0.,0.,0.));
#504=CARTESIAN_POINT('',(-8.61717035923046,-1.,1.5));
#505=CARTESIAN_POINT('Origin',(-8.11360739745275,-1.,1.5));
#506=CARTESIAN_POINT('',(-8.11360739745275,-1.,0.));
#507=CARTESIAN_POINT('',(9.82144041292242,-1.,0.));
#508=CARTESIAN_POINT('',(-8.11360739745275,-1.,0.));
#509=CARTESIAN_POINT('Origin',(-8.61717035923046,1.,1.5));
#510=CARTESIAN_POINT('',(-10.6029313705098,1.,0.));
#511=CARTESIAN_POINT('Origin',(0.,0.,0.));
#512=CARTESIAN_POINT('',(-4.,-7.12955994434439,0.));
#513=CARTESIAN_POINT('Origin',(0.,0.,0.));
#514=CARTESIAN_POINT('',(-4.,-7.12955994434439,0.));
#515=CARTESIAN_POINT('Origin',(0.,0.,0.));
#516=CARTESIAN_POINT('',(-4.69444444444444,-4.49579707705149,0.));
#517=CARTESIAN_POINT('Origin',(0.,0.,0.));
#518=CARTESIAN_POINT('',(-4.,-6.22494979899437,0.));
#519=CARTESIAN_POINT('Origin',(-6.5,-6.22494979899437,0.));
#520=CARTESIAN_POINT('',(-4.,-3.5647799721722,0.));
#521=CARTESIAN_POINT('Origin',(-6.5,-6.22494979899437,0.));
#522=CARTESIAN_POINT('',(-4.,-6.22494979899437,0.));
#523=CARTESIAN_POINT('',(-4.69444444444445,-4.49579707705149,0.));
#524=CARTESIAN_POINT('Origin',(-4.,-7.12955994434439,1.5));
#525=CARTESIAN_POINT('Origin',(0.,0.,0.));
#526=UNCERTAINTY_MEASURE_WITH_UNIT(LENGTH_MEASURE(0.01),#530,
'DISTANCE_ACCURACY_VALUE',
'Maximum model space distance between geometric entities at asserted c
onnectivities');
#527=UNCERTAINTY_MEASURE_WITH_UNIT(LENGTH_MEASURE(0.01),#530,
'DISTANCE_ACCURACY_VALUE',
'Maximum model space distance between geometric entities at asserted c
onnectivities');
#528=(
GEOMETRIC_REPRESENTATION_CONTEXT(3)
GLOBAL_UNCERTAINTY_ASSIGNED_CONTEXT((#526))
GLOBAL_UNIT_ASSIGNED_CONTEXT((#530,#532,#533))
REPRESENTATION_CONTEXT('','3D')
);
#529=(
GEOMETRIC_REPRESENTATION_CONTEXT(3)
GLOBAL_UNCERTAINTY_ASSIGNED_CONTEXT((#527))
GLOBAL_UNIT_ASSIGNED_CONTEXT((#530,#532,#533))
REPRESENTATION_CONTEXT('','3D')
);
#530=(
LENGTH_UNIT()
NAMED_UNIT(*)
SI_UNIT(.MILLI.,.METRE.)
);
#531=(
LENGTH_UNIT()
NAMED_UNIT(*)
SI_UNIT($,.METRE.)
);
#532=(
NAMED_UNIT(*)
PLANE_ANGLE_UNIT()
SI_UNIT($,.RADIAN.)
);
#533=(
NAMED_UNIT(*)
SI_UNIT($,.STERADIAN.)
SOLID_ANGLE_UNIT()
);
#534=SHAPE_DEFINITION_REPRESENTATION(#535,#536);
#535=PRODUCT_DEFINITION_SHAPE('',$,#538);
#536=SHAPE_REPRESENTATION('',(#314),#528);
#537=PRODUCT_DEFINITION_CONTEXT('part definition',#542,'design');
#538=PRODUCT_DEFINITION('PCB Lock','PCB Lock v14',#539,#537);
#539=PRODUCT_DEFINITION_FORMATION('',$,#544);
#540=PRODUCT_RELATED_PRODUCT_CATEGORY('PCB Lock v14','PCB Lock v14',(#544));
#541=APPLICATION_PROTOCOL_DEFINITION('international standard',
'automotive_design',2009,#542);
#542=APPLICATION_CONTEXT(
'Core Data for Automotive Mechanical Design Process');
#543=PRODUCT_CONTEXT('part definition',#542,'mechanical');
#544=PRODUCT('PCB Lock','PCB Lock v14',$,(#543));
#545=PRESENTATION_STYLE_ASSIGNMENT((#547));
#546=PRESENTATION_STYLE_ASSIGNMENT((#548));
#547=SURFACE_STYLE_USAGE(.BOTH.,#549);
#548=SURFACE_STYLE_USAGE(.BOTH.,#550);
#549=SURFACE_SIDE_STYLE('',(#551));
#550=SURFACE_SIDE_STYLE('',(#552));
#551=SURFACE_STYLE_FILL_AREA(#553);
#552=SURFACE_STYLE_FILL_AREA(#554);
#553=FILL_AREA_STYLE('Steel - Satin',(#555));
#554=FILL_AREA_STYLE('Tough 2000 (with Formlabs SLA 3D Printers)',(#556));
#555=FILL_AREA_STYLE_COLOUR('Steel - Satin',#557);
#556=FILL_AREA_STYLE_COLOUR(
'Tough 2000 (with Formlabs SLA 3D Printers)',#558);
#557=COLOUR_RGB('Steel - Satin',0.627450980392157,0.627450980392157,0.627450980392157);
#558=COLOUR_RGB('Tough 2000 (with Formlabs SLA 3D Printers)',0.392156862745098,
0.392156862745098,0.392156862745098);
ENDSEC;
END-ISO-10303-21;
