ISO-10303-21;
HEADER;
/* Generated by software containing ST-Developer
 * from STEP Tools, Inc. (www.steptools.com) 
 */

FILE_DESCRIPTION(
/* description */ (''),
/* implementation_level */ '2;1');

FILE_NAME(
/* name */ 'PCB Soldering Holder.step',
/* time_stamp */ '2026-04-28T10:40:36-04:00',
/* author */ (''),
/* organization */ (''),
/* preprocessor_version */ 'ST-DEVELOPER v20.1',
/* originating_system */ 'Autodesk Translation Framework v15.8.0.0',
/* authorisation */ '');

FILE_SCHEMA (('AUTOMOTIVE_DESIGN { 1 0 10303 214 3 1 1 }'));
ENDSEC;

DATA;
#10=MECHANICAL_DESIGN_GEOMETRIC_PRESENTATION_REPRESENTATION('',(#13),#239);
#11=SHAPE_REPRESENTATION_RELATIONSHIP('SRR','None',#246,#12);
#12=ADVANCED_BREP_SHAPE_REPRESENTATION('',(#14),#238);
#13=STYLED_ITEM('',(#256),#14);
#14=MANIFOLD_SOLID_BREP('Body2',#114);
#15=LINE('',#222,#18);
#16=LINE('',#230,#19);
#17=LINE('',#234,#20);
#18=VECTOR('',#162,5.25);
#19=VECTOR('',#173,7.675);
#20=VECTOR('',#178,8.075);
#21=CYLINDRICAL_SURFACE('',#135,5.25);
#22=CYLINDRICAL_SURFACE('',#139,7.675);
#23=CYLINDRICAL_SURFACE('',#141,8.075);
#24=FACE_BOUND('',#42,.T.);
#25=FACE_BOUND('',#44,.T.);
#26=FACE_BOUND('',#47,.T.);
#27=FACE_BOUND('',#51,.T.);
#28=PLANE('',#131);
#29=PLANE('',#133);
#30=PLANE('',#137);
#31=PLANE('',#143);
#32=FACE_OUTER_BOUND('',#40,.T.);
#33=FACE_OUTER_BOUND('',#41,.T.);
#34=FACE_OUTER_BOUND('',#43,.T.);
#35=FACE_OUTER_BOUND('',#45,.T.);
#36=FACE_OUTER_BOUND('',#46,.T.);
#37=FACE_OUTER_BOUND('',#48,.T.);
#38=FACE_OUTER_BOUND('',#49,.T.);
#39=FACE_OUTER_BOUND('',#50,.T.);
#40=EDGE_LOOP('',(#81,#82,#83,#84));
#41=EDGE_LOOP('',(#85));
#42=EDGE_LOOP('',(#86));
#43=EDGE_LOOP('',(#87));
#44=EDGE_LOOP('',(#88));
#45=EDGE_LOOP('',(#89,#90,#91,#92));
#46=EDGE_LOOP('',(#93));
#47=EDGE_LOOP('',(#94));
#48=EDGE_LOOP('',(#95,#96,#97,#98));
#49=EDGE_LOOP('',(#99,#100,#101,#102));
#50=EDGE_LOOP('',(#103));
#51=EDGE_LOOP('',(#104));
#52=CIRCLE('',#128,4.45);
#53=CIRCLE('',#129,10.);
#54=CIRCLE('',#130,2.875);
#55=CIRCLE('',#132,8.075);
#56=CIRCLE('',#134,5.25);
#57=CIRCLE('',#136,5.25);
#58=CIRCLE('',#138,7.675);
#59=CIRCLE('',#140,7.675);
#60=CIRCLE('',#142,8.075);
#61=VERTEX_POINT('',#209);
#62=VERTEX_POINT('',#211);
#63=VERTEX_POINT('',#215);
#64=VERTEX_POINT('',#218);
#65=VERTEX_POINT('',#221);
#66=VERTEX_POINT('',#225);
#67=VERTEX_POINT('',#228);
#68=VERTEX_POINT('',#232);
#69=EDGE_CURVE('',#61,#61,#52,.T.);
#70=EDGE_CURVE('',#61,#62,#53,.T.);
#71=EDGE_CURVE('',#62,#62,#54,.T.);
#72=EDGE_CURVE('',#63,#63,#55,.T.);
#73=EDGE_CURVE('',#64,#64,#56,.T.);
#74=EDGE_CURVE('',#64,#65,#15,.T.);
#75=EDGE_CURVE('',#65,#65,#57,.T.);
#76=EDGE_CURVE('',#66,#66,#58,.T.);
#77=EDGE_CURVE('',#67,#67,#59,.T.);
#78=EDGE_CURVE('',#67,#66,#16,.T.);
#79=EDGE_CURVE('',#68,#68,#60,.T.);
#80=EDGE_CURVE('',#68,#63,#17,.T.);
#81=ORIENTED_EDGE('',*,*,#69,.T.);
#82=ORIENTED_EDGE('',*,*,#70,.T.);
#83=ORIENTED_EDGE('',*,*,#71,.T.);
#84=ORIENTED_EDGE('',*,*,#70,.F.);
#85=ORIENTED_EDGE('',*,*,#72,.T.);
#86=ORIENTED_EDGE('',*,*,#69,.F.);
#87=ORIENTED_EDGE('',*,*,#73,.F.);
#88=ORIENTED_EDGE('',*,*,#71,.F.);
#89=ORIENTED_EDGE('',*,*,#73,.T.);
#90=ORIENTED_EDGE('',*,*,#74,.T.);
#91=ORIENTED_EDGE('',*,*,#75,.F.);
#92=ORIENTED_EDGE('',*,*,#74,.F.);
#93=ORIENTED_EDGE('',*,*,#76,.T.);
#94=ORIENTED_EDGE('',*,*,#75,.T.);
#95=ORIENTED_EDGE('',*,*,#77,.F.);
#96=ORIENTED_EDGE('',*,*,#78,.T.);
#97=ORIENTED_EDGE('',*,*,#76,.F.);
#98=ORIENTED_EDGE('',*,*,#78,.F.);
#99=ORIENTED_EDGE('',*,*,#79,.F.);
#100=ORIENTED_EDGE('',*,*,#80,.T.);
#101=ORIENTED_EDGE('',*,*,#72,.F.);
#102=ORIENTED_EDGE('',*,*,#80,.F.);
#103=ORIENTED_EDGE('',*,*,#79,.T.);
#104=ORIENTED_EDGE('',*,*,#77,.T.);
#105=(
BOUNDED_SURFACE()
B_SPLINE_SURFACE(2,2,((#182,#183,#184,#185,#186,#187,#188,#189,#190),(#191,
#192,#193,#194,#195,#196,#197,#198,#199),(#200,#201,#202,#203,#204,#205,
#206,#207,#208)),.UNSPECIFIED.,.F.,.T.,.F.)
B_SPLINE_SURFACE_WITH_KNOTS((3,3),(3,2,2,2,3),(-0.949713869829185,-0.738594102397158),
(-3.14159265358979,-1.5707963267949,0.,1.5707963267949,3.14159265358979),
 .UNSPECIFIED.)
GEOMETRIC_REPRESENTATION_ITEM()
RATIONAL_B_SPLINE_SURFACE(((1.,0.707106781186548,1.,0.707106781186548,1.,
0.707106781186548,1.,0.707106781186548,1.),(0.994433727052752,0.703170831839613,
0.994433727052752,0.703170831839613,0.994433727052752,0.703170831839613,
0.994433727052752,0.703170831839613,0.994433727052752),(1.,0.707106781186548,
1.,0.707106781186548,1.,0.707106781186548,1.,0.707106781186548,1.)))
REPRESENTATION_ITEM('')
SURFACE()
);
#106=ADVANCED_FACE('',(#32),#105,.T.);
#107=ADVANCED_FACE('',(#33,#24),#28,.T.);
#108=ADVANCED_FACE('',(#34,#25),#29,.T.);
#109=ADVANCED_FACE('',(#35),#21,.F.);
#110=ADVANCED_FACE('',(#36,#26),#30,.F.);
#111=ADVANCED_FACE('',(#37),#22,.F.);
#112=ADVANCED_FACE('',(#38),#23,.T.);
#113=ADVANCED_FACE('',(#39,#27),#31,.F.);
#114=CLOSED_SHELL('',(#106,#107,#108,#109,#110,#111,#112,#113));
#115=DERIVED_UNIT_ELEMENT(#117,1.);
#116=DERIVED_UNIT_ELEMENT(#241,-3.);
#117=(
MASS_UNIT()
NAMED_UNIT(*)
SI_UNIT(.KILO.,.GRAM.)
);
#118=DERIVED_UNIT((#115,#116));
#119=MEASURE_REPRESENTATION_ITEM('density measure',
POSITIVE_RATIO_MEASURE(7850.),#118);
#120=PROPERTY_DEFINITION_REPRESENTATION(#125,#122);
#121=PROPERTY_DEFINITION_REPRESENTATION(#126,#123);
#122=REPRESENTATION('material name',(#124),#238);
#123=REPRESENTATION('density',(#119),#238);
#124=DESCRIPTIVE_REPRESENTATION_ITEM('Steel','Steel');
#125=PROPERTY_DEFINITION('material property','material name',#248);
#126=PROPERTY_DEFINITION('material property','density of part',#248);
#127=AXIS2_PLACEMENT_3D('',#181,#144,#145);
#128=AXIS2_PLACEMENT_3D('',#210,#146,#147);
#129=AXIS2_PLACEMENT_3D('',#212,#148,#149);
#130=AXIS2_PLACEMENT_3D('',#213,#150,#151);
#131=AXIS2_PLACEMENT_3D('',#214,#152,#153);
#132=AXIS2_PLACEMENT_3D('',#216,#154,#155);
#133=AXIS2_PLACEMENT_3D('',#217,#156,#157);
#134=AXIS2_PLACEMENT_3D('',#219,#158,#159);
#135=AXIS2_PLACEMENT_3D('',#220,#160,#161);
#136=AXIS2_PLACEMENT_3D('',#223,#163,#164);
#137=AXIS2_PLACEMENT_3D('',#224,#165,#166);
#138=AXIS2_PLACEMENT_3D('',#226,#167,#168);
#139=AXIS2_PLACEMENT_3D('',#227,#169,#170);
#140=AXIS2_PLACEMENT_3D('',#229,#171,#172);
#141=AXIS2_PLACEMENT_3D('',#231,#174,#175);
#142=AXIS2_PLACEMENT_3D('',#233,#176,#177);
#143=AXIS2_PLACEMENT_3D('',#235,#179,#180);
#144=DIRECTION('axis',(0.,0.,1.));
#145=DIRECTION('refdir',(1.,0.,0.));
#146=DIRECTION('center_axis',(0.,0.,1.));
#147=DIRECTION('ref_axis',(-1.,0.,0.));
#148=DIRECTION('center_axis',(-1.22464679914735E-16,1.,6.08100479576617E-17));
#149=DIRECTION('ref_axis',(1.,1.22464679914735E-16,0.));
#150=DIRECTION('center_axis',(0.,0.,-1.));
#151=DIRECTION('ref_axis',(-1.,0.,0.));
#152=DIRECTION('center_axis',(0.,0.,1.));
#153=DIRECTION('ref_axis',(-1.,0.,0.));
#154=DIRECTION('center_axis',(0.,0.,1.));
#155=DIRECTION('ref_axis',(-1.,0.,0.));
#156=DIRECTION('center_axis',(0.,0.,-1.));
#157=DIRECTION('ref_axis',(1.,0.,0.));
#158=DIRECTION('center_axis',(0.,0.,1.));
#159=DIRECTION('ref_axis',(1.,0.,0.));
#160=DIRECTION('center_axis',(0.,0.,-1.));
#161=DIRECTION('ref_axis',(1.,0.,0.));
#162=DIRECTION('',(0.,0.,-1.));
#163=DIRECTION('center_axis',(0.,0.,1.));
#164=DIRECTION('ref_axis',(1.,0.,0.));
#165=DIRECTION('center_axis',(0.,0.,1.));
#166=DIRECTION('ref_axis',(-1.,0.,0.));
#167=DIRECTION('center_axis',(0.,0.,-1.));
#168=DIRECTION('ref_axis',(1.,0.,0.));
#169=DIRECTION('center_axis',(0.,0.,-1.));
#170=DIRECTION('ref_axis',(1.,0.,0.));
#171=DIRECTION('center_axis',(0.,0.,1.));
#172=DIRECTION('ref_axis',(1.,0.,0.));
#173=DIRECTION('',(0.,0.,1.));
#174=DIRECTION('center_axis',(0.,0.,-1.));
#175=DIRECTION('ref_axis',(1.,0.,0.));
#176=DIRECTION('center_axis',(0.,0.,-1.));
#177=DIRECTION('ref_axis',(1.,0.,0.));
#178=DIRECTION('',(0.,0.,1.));
#179=DIRECTION('center_axis',(0.,0.,1.));
#180=DIRECTION('ref_axis',(1.,0.,0.));
#181=CARTESIAN_POINT('',(0.,0.,0.));
#182=CARTESIAN_POINT('Ctrl Pts',(2.875,4.94537127841486E-16,0.5));
#183=CARTESIAN_POINT('Ctrl Pts',(2.875,2.875,0.500000000000001));
#184=CARTESIAN_POINT('Ctrl Pts',(1.97533201377097E-31,2.875,0.500000000000001));
#185=CARTESIAN_POINT('Ctrl Pts',(-2.875,2.875,0.500000000000001));
#186=CARTESIAN_POINT('Ctrl Pts',(-2.875,4.94537127841486E-16,0.5));
#187=CARTESIAN_POINT('Ctrl Pts',(-2.875,-2.875,0.5));
#188=CARTESIAN_POINT('Ctrl Pts',(7.42736849363137E-32,-2.875,0.5));
#189=CARTESIAN_POINT('Ctrl Pts',(2.875,-2.875,0.5));
#190=CARTESIAN_POINT('Ctrl Pts',(2.875,4.94537127841486E-16,0.5));
#191=CARTESIAN_POINT('Ctrl Pts',(3.73666760392237,4.57043996766476E-16,
1.11656144558732));
#192=CARTESIAN_POINT('Ctrl Pts',(3.73666760392237,3.73666760392237,1.11656144558732));
#193=CARTESIAN_POINT('Ctrl Pts',(2.65737674208866E-31,3.73666760392237,
1.11656144558732));
#194=CARTESIAN_POINT('Ctrl Pts',(-3.73666760392237,3.73666760392237,1.11656144558732));
#195=CARTESIAN_POINT('Ctrl Pts',(-3.73666760392237,4.57043996766476E-16,
1.11656144558732));
#196=CARTESIAN_POINT('Ctrl Pts',(-3.73666760392237,-3.73666760392237,1.11656144558732));
#197=CARTESIAN_POINT('Ctrl Pts',(-1.4537716358278E-32,-3.73666760392237,
1.11656144558732));
#198=CARTESIAN_POINT('Ctrl Pts',(3.73666760392237,-3.73666760392237,1.11656144558732));
#199=CARTESIAN_POINT('Ctrl Pts',(3.73666760392237,4.57043996766476E-16,
1.11656144558732));
#200=CARTESIAN_POINT('Ctrl Pts',(4.45,4.09403060700759E-16,1.9));
#201=CARTESIAN_POINT('Ctrl Pts',(4.45,4.45,1.9));
#202=CARTESIAN_POINT('Ctrl Pts',(2.3576731910259E-31,4.45,1.9));
#203=CARTESIAN_POINT('Ctrl Pts',(-4.45,4.45,1.9));
#204=CARTESIAN_POINT('Ctrl Pts',(-4.45,4.0940306070076E-16,1.9));
#205=CARTESIAN_POINT('Ctrl Pts',(-4.45,-4.45,1.9));
#206=CARTESIAN_POINT('Ctrl Pts',(-1.07517137789759E-32,-4.45,1.9));
#207=CARTESIAN_POINT('Ctrl Pts',(4.45,-4.45,1.9));
#208=CARTESIAN_POINT('Ctrl Pts',(4.45,4.09403060700759E-16,1.9));
#209=CARTESIAN_POINT('',(4.45,5.44967825620572E-16,1.9));
#210=CARTESIAN_POINT('Origin',(0.,0.,1.9));
#211=CARTESIAN_POINT('',(2.875,-3.52085954754864E-16,0.5));
#212=CARTESIAN_POINT('Origin',(-2.94415808366702,-3.60555377334662E-16,
8.6324903441254));
#213=CARTESIAN_POINT('Origin',(0.,0.,0.5));
#214=CARTESIAN_POINT('Origin',(0.,0.,1.9));
#215=CARTESIAN_POINT('',(-8.075,9.88902290311488E-16,1.9));
#216=CARTESIAN_POINT('Origin',(0.,0.,1.9));
#217=CARTESIAN_POINT('Origin',(0.,0.,0.5));
#218=CARTESIAN_POINT('',(-5.25,6.42939569552361E-16,0.5));
#219=CARTESIAN_POINT('Origin',(0.,0.,0.5));
#220=CARTESIAN_POINT('Origin',(0.,0.,0.));
#221=CARTESIAN_POINT('',(-5.25,-6.42939569552361E-16,0.));
#222=CARTESIAN_POINT('',(-5.25,6.42939569552361E-16,0.));
#223=CARTESIAN_POINT('Origin',(0.,0.,0.));
#224=CARTESIAN_POINT('Origin',(0.,0.,0.));
#225=CARTESIAN_POINT('',(-7.675,-9.39916418345594E-16,0.));
#226=CARTESIAN_POINT('Origin',(0.,0.,0.));
#227=CARTESIAN_POINT('Origin',(0.,0.,0.));
#228=CARTESIAN_POINT('',(-7.675,-9.39916418345594E-16,-1.6));
#229=CARTESIAN_POINT('Origin',(0.,0.,-1.6));
#230=CARTESIAN_POINT('',(-7.675,9.39916418345594E-16,0.));
#231=CARTESIAN_POINT('Origin',(0.,0.,0.));
#232=CARTESIAN_POINT('',(-8.075,-9.88902290311488E-16,-1.6));
#233=CARTESIAN_POINT('Origin',(0.,0.,-1.6));
#234=CARTESIAN_POINT('',(-8.075,9.88902290311488E-16,0.));
#235=CARTESIAN_POINT('Origin',(0.,0.,-1.6));
#236=UNCERTAINTY_MEASURE_WITH_UNIT(LENGTH_MEASURE(0.01),#240,
'DISTANCE_ACCURACY_VALUE',
'Maximum model space distance between geometric entities at asserted c
onnectivities');
#237=UNCERTAINTY_MEASURE_WITH_UNIT(LENGTH_MEASURE(0.01),#240,
'DISTANCE_ACCURACY_VALUE',
'Maximum model space distance between geometric entities at asserted c
onnectivities');
#238=(
GEOMETRIC_REPRESENTATION_CONTEXT(3)
GLOBAL_UNCERTAINTY_ASSIGNED_CONTEXT((#236))
GLOBAL_UNIT_ASSIGNED_CONTEXT((#240,#242,#243))
REPRESENTATION_CONTEXT('','3D')
);
#239=(
GEOMETRIC_REPRESENTATION_CONTEXT(3)
GLOBAL_UNCERTAINTY_ASSIGNED_CONTEXT((#237))
GLOBAL_UNIT_ASSIGNED_CONTEXT((#240,#242,#243))
REPRESENTATION_CONTEXT('','3D')
);
#240=(
LENGTH_UNIT()
NAMED_UNIT(*)
SI_UNIT(.MILLI.,.METRE.)
);
#241=(
LENGTH_UNIT()
NAMED_UNIT(*)
SI_UNIT($,.METRE.)
);
#242=(
NAMED_UNIT(*)
PLANE_ANGLE_UNIT()
SI_UNIT($,.RADIAN.)
);
#243=(
NAMED_UNIT(*)
SI_UNIT($,.STERADIAN.)
SOLID_ANGLE_UNIT()
);
#244=SHAPE_DEFINITION_REPRESENTATION(#245,#246);
#245=PRODUCT_DEFINITION_SHAPE('',$,#248);
#246=SHAPE_REPRESENTATION('',(#127),#238);
#247=PRODUCT_DEFINITION_CONTEXT('part definition',#252,'design');
#248=PRODUCT_DEFINITION('PCB Soldering Holder',
'PCB Soldering Holder v52',#249,#247);
#249=PRODUCT_DEFINITION_FORMATION('',$,#254);
#250=PRODUCT_RELATED_PRODUCT_CATEGORY('PCB Soldering Holder v52',
'PCB Soldering Holder v52',(#254));
#251=APPLICATION_PROTOCOL_DEFINITION('international standard',
'automotive_design',2009,#252);
#252=APPLICATION_CONTEXT(
'Core Data for Automotive Mechanical Design Process');
#253=PRODUCT_CONTEXT('part definition',#252,'mechanical');
#254=PRODUCT('PCB Soldering Holder','PCB Soldering Holder v52',$,(#253));
#255=PRESENTATION_STYLE_ASSIGNMENT((#257));
#256=PRESENTATION_STYLE_ASSIGNMENT((#258));
#257=SURFACE_STYLE_USAGE(.BOTH.,#259);
#258=SURFACE_STYLE_USAGE(.BOTH.,#260);
#259=SURFACE_SIDE_STYLE('',(#261));
#260=SURFACE_SIDE_STYLE('',(#262));
#261=SURFACE_STYLE_FILL_AREA(#263);
#262=SURFACE_STYLE_FILL_AREA(#264);
#263=FILL_AREA_STYLE('Steel - Satin',(#265));
#264=FILL_AREA_STYLE('Tough 2000 (with Formlabs SLA 3D Printers)',(#266));
#265=FILL_AREA_STYLE_COLOUR('Steel - Satin',#267);
#266=FILL_AREA_STYLE_COLOUR(
'Tough 2000 (with Formlabs SLA 3D Printers)',#268);
#267=COLOUR_RGB('Steel - Satin',0.627450980392157,0.627450980392157,0.627450980392157);
#268=COLOUR_RGB('Tough 2000 (with Formlabs SLA 3D Printers)',0.392156862745098,
0.392156862745098,0.392156862745098);
ENDSEC;
END-ISO-10303-21;
