ISO-10303-21;
HEADER;
/* Generated by software containing ST-Developer
 * from STEP Tools, Inc. (www.steptools.com) 
 */

FILE_DESCRIPTION(
/* description */ ('STEP AP214'),
/* implementation_level */ '2;1');

FILE_NAME(
/* name */ 'Snap Button.step',
/* time_stamp */ '2026-04-28T10:40:39-04:00',
/* author */ (''),
/* organization */ (''),
/* preprocessor_version */ 'ST-DEVELOPER v20.1',
/* originating_system */ 'Autodesk Translation Framework v15.8.0.0',
/* authorisation */ '');

FILE_SCHEMA (('AUTOMOTIVE_DESIGN { 1 0 10303 214 3 1 1 }'));
ENDSEC;

DATA;
#10=MECHANICAL_DESIGN_GEOMETRIC_PRESENTATION_REPRESENTATION('',(#13,#14),
#639);
#11=SHAPE_REPRESENTATION_RELATIONSHIP('SRR','None',#646,#12);
#12=ADVANCED_BREP_SHAPE_REPRESENTATION('',(#15,#16),#638);
#13=STYLED_ITEM('',(#655),#15);
#14=STYLED_ITEM('',(#655),#16);
#15=MANIFOLD_SOLID_BREP('Body1',#273);
#16=MANIFOLD_SOLID_BREP('Body3',#274);
#17=SPHERICAL_SURFACE('',#306,2.);
#18=SPHERICAL_SURFACE('',#323,7.32142857142857);
#19=B_SPLINE_CURVE_WITH_KNOTS('',3,(#433,#434,#435,#436,#437,#438,#439,
#440,#441,#442,#443,#444,#445,#446,#447,#448,#449,#450),.UNSPECIFIED.,.F.,
 .F.,(4,2,2,2,2,2,2,2,4),(0.0492039808641446,0.0908724853297892,0.104422569803543,
0.107844835661222,0.111267101518901,0.114689367376579,0.118111633234258,
0.131661717708012,0.173330222173657),.UNSPECIFIED.);
#20=B_SPLINE_CURVE_WITH_KNOTS('',3,(#452,#453,#454,#455,#456,#457,#458,
#459,#460,#461),.UNSPECIFIED.,.F.,.F.,(4,2,2,2,4),(-0.0492039808641446,
-0.0336962861139497,-0.0181885913637548,-0.0090942956818774,0.),
 .UNSPECIFIED.);
#21=B_SPLINE_CURVE_WITH_KNOTS('',3,(#465,#466,#467,#468,#469,#470,#471,
#472,#473,#474),.UNSPECIFIED.,.F.,.F.,(4,2,2,2,4),(0.222534203037802,0.231628498719679,
0.240722794401556,0.256230489151751,0.271738183901946),.UNSPECIFIED.);
#22=B_SPLINE_CURVE_WITH_KNOTS('',3,(#476,#477,#478,#479,#480,#481,#482,
#483,#484,#485,#486,#487,#488,#489,#490,#491,#492,#493),.UNSPECIFIED.,.F.,
 .F.,(4,2,2,2,2,2,2,2,4),(-0.173330222173657,-0.131661717708012,-0.118111633234258,
-0.114689367376579,-0.111267101518901,-0.107844835661222,-0.104422569803543,
-0.0908724853297891,-0.0492039808641446),.UNSPECIFIED.);
#23=B_SPLINE_CURVE_WITH_KNOTS('',3,(#494,#495,#496,#497,#498,#499,#500,
#501,#502,#503),.UNSPECIFIED.,.F.,.F.,(4,2,2,2,4),(0.173330222173657,0.188837916923852,
0.204345611674047,0.213439907355924,0.222534203037802),.UNSPECIFIED.);
#24=B_SPLINE_CURVE_WITH_KNOTS('',3,(#504,#505,#506,#507,#508,#509,#510,
#511,#512,#513),.UNSPECIFIED.,.F.,.F.,(4,2,2,2,4),(0.,0.00909429568187742,
0.0181885913637548,0.0336962861139497,0.0492039808641446),.UNSPECIFIED.);
#25=B_SPLINE_CURVE_WITH_KNOTS('',3,(#517,#518,#519,#520,#521,#522,#523,
#524,#525,#526,#527,#528,#529,#530,#531,#532,#533,#534),.UNSPECIFIED.,.F.,
 .F.,(4,2,2,2,2,2,2,2,4),(0.0620631206547562,0.0775708154049511,0.093078510155146,
0.102172805837023,0.111267101518901,0.120361397200778,0.129455692882656,
0.14496338763285,0.160471082383045),.UNSPECIFIED.);
#26=B_SPLINE_CURVE_WITH_KNOTS('',3,(#536,#537,#538,#539,#540,#541,#542,
#543,#544,#545),.UNSPECIFIED.,.F.,.F.,(4,2,2,2,4),(-0.0620631206547562,
-0.0203946161891116,-0.00684453171535736,-0.00342226585767868,0.),
 .UNSPECIFIED.);
#27=B_SPLINE_CURVE_WITH_KNOTS('',3,(#549,#550,#551,#552,#553,#554,#555,
#556,#557,#558),.UNSPECIFIED.,.F.,.F.,(4,2,2,2,4),(0.222534203037802,0.22595646889548,
0.229378734753159,0.242928819226913,0.284597323692558),.UNSPECIFIED.);
#28=B_SPLINE_CURVE_WITH_KNOTS('',3,(#560,#561,#562,#563,#564,#565,#566,
#567,#568,#569,#570,#571,#572,#573,#574,#575,#576,#577),.UNSPECIFIED.,.F.,
 .F.,(4,2,2,2,2,2,2,2,4),(-0.160471082383045,-0.14496338763285,-0.129455692882656,
-0.120361397200778,-0.111267101518901,-0.102172805837023,-0.0930785101551459,
-0.0775708154049511,-0.0620631206547562),.UNSPECIFIED.);
#29=B_SPLINE_CURVE_WITH_KNOTS('',3,(#578,#579,#580,#581,#582,#583,#584,
#585,#586,#587),.UNSPECIFIED.,.F.,.F.,(4,2,2,2,4),(0.160471082383045,0.20213958684869,
0.215689671322444,0.219111937180123,0.222534203037802),.UNSPECIFIED.);
#30=B_SPLINE_CURVE_WITH_KNOTS('',3,(#588,#589,#590,#591,#592,#593,#594,
#595,#596,#597),.UNSPECIFIED.,.F.,.F.,(4,2,2,2,4),(0.,0.00342226585767866,
0.00684453171535732,0.0203946161891116,0.0620631206547562),
 .UNSPECIFIED.);
#31=FACE_BOUND('',#71,.T.);
#32=FACE_BOUND('',#82,.T.);
#33=FACE_BOUND('',#84,.T.);
#34=PLANE('',#294);
#35=PLANE('',#321);
#36=PLANE('',#322);
#37=PLANE('',#328);
#38=LINE('',#425,#41);
#39=LINE('',#463,#42);
#40=LINE('',#547,#43);
#41=VECTOR('',#341,6.);
#42=VECTOR('',#350,0.25);
#43=VECTOR('',#353,0.25);
#44=CYLINDRICAL_SURFACE('',#292,6.);
#45=CYLINDRICAL_SURFACE('',#296,0.25);
#46=CYLINDRICAL_SURFACE('',#297,0.25);
#47=CYLINDRICAL_SURFACE('',#314,2.);
#48=CYLINDRICAL_SURFACE('',#318,2.);
#49=CYLINDRICAL_SURFACE('',#319,2.);
#50=CYLINDRICAL_SURFACE('',#320,2.);
#51=FACE_OUTER_BOUND('',#68,.T.);
#52=FACE_OUTER_BOUND('',#69,.T.);
#53=FACE_OUTER_BOUND('',#70,.T.);
#54=FACE_OUTER_BOUND('',#72,.T.);
#55=FACE_OUTER_BOUND('',#73,.T.);
#56=FACE_OUTER_BOUND('',#74,.T.);
#57=FACE_OUTER_BOUND('',#75,.T.);
#58=FACE_OUTER_BOUND('',#76,.T.);
#59=FACE_OUTER_BOUND('',#77,.T.);
#60=FACE_OUTER_BOUND('',#78,.T.);
#61=FACE_OUTER_BOUND('',#79,.T.);
#62=FACE_OUTER_BOUND('',#80,.T.);
#63=FACE_OUTER_BOUND('',#81,.T.);
#64=FACE_OUTER_BOUND('',#83,.T.);
#65=FACE_OUTER_BOUND('',#85,.T.);
#66=FACE_OUTER_BOUND('',#86,.T.);
#67=FACE_OUTER_BOUND('',#87,.T.);
#68=EDGE_LOOP('',(#174,#175,#176,#177));
#69=EDGE_LOOP('',(#178,#179,#180,#181));
#70=EDGE_LOOP('',(#182));
#71=EDGE_LOOP('',(#183));
#72=EDGE_LOOP('',(#184,#185,#186,#187,#188,#189,#190,#191));
#73=EDGE_LOOP('',(#192,#193,#194,#195,#196,#197,#198,#199));
#74=EDGE_LOOP('',(#200,#201,#202,#203,#204,#205,#206,#207));
#75=EDGE_LOOP('',(#208,#209,#210,#211,#212,#213,#214,#215));
#76=EDGE_LOOP('',(#216,#217,#218,#219,#220,#221));
#77=EDGE_LOOP('',(#222,#223,#224,#225));
#78=EDGE_LOOP('',(#226,#227,#228,#229,#230,#231));
#79=EDGE_LOOP('',(#232,#233,#234,#235,#236,#237));
#80=EDGE_LOOP('',(#238,#239,#240,#241));
#81=EDGE_LOOP('',(#242));
#82=EDGE_LOOP('',(#243));
#83=EDGE_LOOP('',(#244));
#84=EDGE_LOOP('',(#245));
#85=EDGE_LOOP('',(#246));
#86=EDGE_LOOP('',(#247,#248,#249,#250));
#87=EDGE_LOOP('',(#251));
#88=CIRCLE('',#289,6.);
#89=CIRCLE('',#290,0.25);
#90=CIRCLE('',#291,6.25);
#91=CIRCLE('',#293,6.);
#92=CIRCLE('',#295,6.375);
#93=CIRCLE('',#299,2.);
#94=CIRCLE('',#300,2.);
#95=CIRCLE('',#301,2.);
#96=CIRCLE('',#302,0.5);
#97=CIRCLE('',#303,2.5);
#98=CIRCLE('',#304,2.);
#99=CIRCLE('',#305,2.);
#100=CIRCLE('',#307,1.89142803193777);
#101=CIRCLE('',#308,2.);
#102=CIRCLE('',#309,2.);
#103=CIRCLE('',#310,2.);
#104=CIRCLE('',#311,2.);
#105=CIRCLE('',#312,2.);
#106=CIRCLE('',#313,2.);
#107=CIRCLE('',#316,6.375);
#108=CIRCLE('',#317,0.125);
#109=CIRCLE('',#324,4.70847897067276);
#110=CIRCLE('',#326,0.15);
#111=CIRCLE('',#327,4.8049453690963);
#112=VERTEX_POINT('',#418);
#113=VERTEX_POINT('',#420);
#114=VERTEX_POINT('',#424);
#115=VERTEX_POINT('',#428);
#116=VERTEX_POINT('',#431);
#117=VERTEX_POINT('',#432);
#118=VERTEX_POINT('',#451);
#119=VERTEX_POINT('',#462);
#120=VERTEX_POINT('',#464);
#121=VERTEX_POINT('',#475);
#122=VERTEX_POINT('',#515);
#123=VERTEX_POINT('',#516);
#124=VERTEX_POINT('',#535);
#125=VERTEX_POINT('',#546);
#126=VERTEX_POINT('',#548);
#127=VERTEX_POINT('',#559);
#128=VERTEX_POINT('',#601);
#129=VERTEX_POINT('',#603);
#130=VERTEX_POINT('',#609);
#131=VERTEX_POINT('',#611);
#132=VERTEX_POINT('',#620);
#133=VERTEX_POINT('',#629);
#134=VERTEX_POINT('',#632);
#135=EDGE_CURVE('',#112,#112,#88,.T.);
#136=EDGE_CURVE('',#112,#113,#89,.T.);
#137=EDGE_CURVE('',#113,#113,#90,.T.);
#138=EDGE_CURVE('',#112,#114,#38,.T.);
#139=EDGE_CURVE('',#114,#114,#91,.T.);
#140=EDGE_CURVE('',#115,#115,#92,.T.);
#141=EDGE_CURVE('',#116,#117,#19,.F.);
#142=EDGE_CURVE('',#117,#118,#20,.T.);
#143=EDGE_CURVE('',#118,#119,#39,.T.);
#144=EDGE_CURVE('',#119,#120,#21,.T.);
#145=EDGE_CURVE('',#120,#121,#22,.F.);
#146=EDGE_CURVE('',#121,#119,#23,.T.);
#147=EDGE_CURVE('',#118,#116,#24,.T.);
#148=EDGE_CURVE('',#122,#123,#25,.T.);
#149=EDGE_CURVE('',#124,#122,#26,.F.);
#150=EDGE_CURVE('',#124,#125,#40,.T.);
#151=EDGE_CURVE('',#126,#125,#27,.F.);
#152=EDGE_CURVE('',#127,#126,#28,.T.);
#153=EDGE_CURVE('',#125,#127,#29,.F.);
#154=EDGE_CURVE('',#123,#124,#30,.F.);
#155=EDGE_CURVE('',#121,#127,#93,.T.);
#156=EDGE_CURVE('',#116,#121,#94,.T.);
#157=EDGE_CURVE('',#128,#116,#95,.T.);
#158=EDGE_CURVE('',#128,#129,#96,.T.);
#159=EDGE_CURVE('',#129,#129,#97,.T.);
#160=EDGE_CURVE('',#123,#128,#98,.T.);
#161=EDGE_CURVE('',#127,#123,#99,.T.);
#162=EDGE_CURVE('',#130,#130,#100,.T.);
#163=EDGE_CURVE('',#130,#131,#101,.T.);
#164=EDGE_CURVE('',#126,#131,#102,.T.);
#165=EDGE_CURVE('',#122,#126,#103,.T.);
#166=EDGE_CURVE('',#117,#122,#104,.T.);
#167=EDGE_CURVE('',#120,#117,#105,.T.);
#168=EDGE_CURVE('',#131,#120,#106,.T.);
#169=EDGE_CURVE('',#132,#132,#107,.T.);
#170=EDGE_CURVE('',#132,#115,#108,.T.);
#171=EDGE_CURVE('',#133,#133,#109,.T.);
#172=EDGE_CURVE('',#133,#134,#110,.T.);
#173=EDGE_CURVE('',#134,#134,#111,.T.);
#174=ORIENTED_EDGE('',*,*,#135,.T.);
#175=ORIENTED_EDGE('',*,*,#136,.T.);
#176=ORIENTED_EDGE('',*,*,#137,.T.);
#177=ORIENTED_EDGE('',*,*,#136,.F.);
#178=ORIENTED_EDGE('',*,*,#135,.F.);
#179=ORIENTED_EDGE('',*,*,#138,.T.);
#180=ORIENTED_EDGE('',*,*,#139,.T.);
#181=ORIENTED_EDGE('',*,*,#138,.F.);
#182=ORIENTED_EDGE('',*,*,#140,.T.);
#183=ORIENTED_EDGE('',*,*,#137,.F.);
#184=ORIENTED_EDGE('',*,*,#141,.T.);
#185=ORIENTED_EDGE('',*,*,#142,.T.);
#186=ORIENTED_EDGE('',*,*,#143,.T.);
#187=ORIENTED_EDGE('',*,*,#144,.T.);
#188=ORIENTED_EDGE('',*,*,#145,.T.);
#189=ORIENTED_EDGE('',*,*,#146,.T.);
#190=ORIENTED_EDGE('',*,*,#143,.F.);
#191=ORIENTED_EDGE('',*,*,#147,.T.);
#192=ORIENTED_EDGE('',*,*,#148,.F.);
#193=ORIENTED_EDGE('',*,*,#149,.F.);
#194=ORIENTED_EDGE('',*,*,#150,.T.);
#195=ORIENTED_EDGE('',*,*,#151,.F.);
#196=ORIENTED_EDGE('',*,*,#152,.F.);
#197=ORIENTED_EDGE('',*,*,#153,.F.);
#198=ORIENTED_EDGE('',*,*,#150,.F.);
#199=ORIENTED_EDGE('',*,*,#154,.F.);
#200=ORIENTED_EDGE('',*,*,#155,.F.);
#201=ORIENTED_EDGE('',*,*,#156,.F.);
#202=ORIENTED_EDGE('',*,*,#157,.F.);
#203=ORIENTED_EDGE('',*,*,#158,.T.);
#204=ORIENTED_EDGE('',*,*,#159,.F.);
#205=ORIENTED_EDGE('',*,*,#158,.F.);
#206=ORIENTED_EDGE('',*,*,#160,.F.);
#207=ORIENTED_EDGE('',*,*,#161,.F.);
#208=ORIENTED_EDGE('',*,*,#162,.T.);
#209=ORIENTED_EDGE('',*,*,#163,.T.);
#210=ORIENTED_EDGE('',*,*,#164,.F.);
#211=ORIENTED_EDGE('',*,*,#165,.F.);
#212=ORIENTED_EDGE('',*,*,#166,.F.);
#213=ORIENTED_EDGE('',*,*,#167,.F.);
#214=ORIENTED_EDGE('',*,*,#168,.F.);
#215=ORIENTED_EDGE('',*,*,#163,.F.);
#216=ORIENTED_EDGE('',*,*,#160,.T.);
#217=ORIENTED_EDGE('',*,*,#157,.T.);
#218=ORIENTED_EDGE('',*,*,#147,.F.);
#219=ORIENTED_EDGE('',*,*,#142,.F.);
#220=ORIENTED_EDGE('',*,*,#166,.T.);
#221=ORIENTED_EDGE('',*,*,#148,.T.);
#222=ORIENTED_EDGE('',*,*,#169,.F.);
#223=ORIENTED_EDGE('',*,*,#170,.T.);
#224=ORIENTED_EDGE('',*,*,#140,.F.);
#225=ORIENTED_EDGE('',*,*,#170,.F.);
#226=ORIENTED_EDGE('',*,*,#146,.F.);
#227=ORIENTED_EDGE('',*,*,#155,.T.);
#228=ORIENTED_EDGE('',*,*,#152,.T.);
#229=ORIENTED_EDGE('',*,*,#164,.T.);
#230=ORIENTED_EDGE('',*,*,#168,.T.);
#231=ORIENTED_EDGE('',*,*,#144,.F.);
#232=ORIENTED_EDGE('',*,*,#165,.T.);
#233=ORIENTED_EDGE('',*,*,#151,.T.);
#234=ORIENTED_EDGE('',*,*,#153,.T.);
#235=ORIENTED_EDGE('',*,*,#161,.T.);
#236=ORIENTED_EDGE('',*,*,#154,.T.);
#237=ORIENTED_EDGE('',*,*,#149,.T.);
#238=ORIENTED_EDGE('',*,*,#145,.F.);
#239=ORIENTED_EDGE('',*,*,#167,.T.);
#240=ORIENTED_EDGE('',*,*,#141,.F.);
#241=ORIENTED_EDGE('',*,*,#156,.T.);
#242=ORIENTED_EDGE('',*,*,#169,.T.);
#243=ORIENTED_EDGE('',*,*,#162,.F.);
#244=ORIENTED_EDGE('',*,*,#139,.F.);
#245=ORIENTED_EDGE('',*,*,#159,.T.);
#246=ORIENTED_EDGE('',*,*,#171,.F.);
#247=ORIENTED_EDGE('',*,*,#171,.T.);
#248=ORIENTED_EDGE('',*,*,#172,.T.);
#249=ORIENTED_EDGE('',*,*,#173,.F.);
#250=ORIENTED_EDGE('',*,*,#172,.F.);
#251=ORIENTED_EDGE('',*,*,#173,.T.);
#252=TOROIDAL_SURFACE('',#288,6.25,0.25);
#253=TOROIDAL_SURFACE('',#298,2.5,0.5);
#254=TOROIDAL_SURFACE('',#315,6.375,0.125);
#255=TOROIDAL_SURFACE('',#325,4.8049453690963,0.15);
#256=ADVANCED_FACE('',(#51),#252,.F.);
#257=ADVANCED_FACE('',(#52),#44,.T.);
#258=ADVANCED_FACE('',(#53,#31),#34,.T.);
#259=ADVANCED_FACE('',(#54),#45,.T.);
#260=ADVANCED_FACE('',(#55),#46,.T.);
#261=ADVANCED_FACE('',(#56),#253,.T.);
#262=ADVANCED_FACE('',(#57),#17,.F.);
#263=ADVANCED_FACE('',(#58),#47,.F.);
#264=ADVANCED_FACE('',(#59),#254,.T.);
#265=ADVANCED_FACE('',(#60),#48,.F.);
#266=ADVANCED_FACE('',(#61),#49,.F.);
#267=ADVANCED_FACE('',(#62),#50,.F.);
#268=ADVANCED_FACE('',(#63,#32),#35,.T.);
#269=ADVANCED_FACE('',(#64,#33),#36,.T.);
#270=ADVANCED_FACE('',(#65),#18,.T.);
#271=ADVANCED_FACE('',(#66),#255,.F.);
#272=ADVANCED_FACE('',(#67),#37,.T.);
#273=CLOSED_SHELL('',(#256,#257,#258,#259,#260,#261,#262,#263,#264,#265,
#266,#267,#268,#269));
#274=CLOSED_SHELL('',(#270,#271,#272));
#275=DERIVED_UNIT_ELEMENT(#277,1.);
#276=DERIVED_UNIT_ELEMENT(#641,-3.);
#277=(
MASS_UNIT()
NAMED_UNIT(*)
SI_UNIT(.KILO.,.GRAM.)
);
#278=DERIVED_UNIT((#275,#276));
#279=MEASURE_REPRESENTATION_ITEM('density measure',
POSITIVE_RATIO_MEASURE(7850.),#278);
#280=PROPERTY_DEFINITION_REPRESENTATION(#285,#282);
#281=PROPERTY_DEFINITION_REPRESENTATION(#286,#283);
#282=REPRESENTATION('material name',(#284),#638);
#283=REPRESENTATION('density',(#279),#638);
#284=DESCRIPTIVE_REPRESENTATION_ITEM('Steel','Steel');
#285=PROPERTY_DEFINITION('material property','material name',#648);
#286=PROPERTY_DEFINITION('material property','density of part',#648);
#287=AXIS2_PLACEMENT_3D('',#416,#329,#330);
#288=AXIS2_PLACEMENT_3D('',#417,#331,#332);
#289=AXIS2_PLACEMENT_3D('',#419,#333,#334);
#290=AXIS2_PLACEMENT_3D('',#421,#335,#336);
#291=AXIS2_PLACEMENT_3D('',#422,#337,#338);
#292=AXIS2_PLACEMENT_3D('',#423,#339,#340);
#293=AXIS2_PLACEMENT_3D('',#426,#342,#343);
#294=AXIS2_PLACEMENT_3D('',#427,#344,#345);
#295=AXIS2_PLACEMENT_3D('',#429,#346,#347);
#296=AXIS2_PLACEMENT_3D('',#430,#348,#349);
#297=AXIS2_PLACEMENT_3D('',#514,#351,#352);
#298=AXIS2_PLACEMENT_3D('',#598,#354,#355);
#299=AXIS2_PLACEMENT_3D('',#599,#356,#357);
#300=AXIS2_PLACEMENT_3D('',#600,#358,#359);
#301=AXIS2_PLACEMENT_3D('',#602,#360,#361);
#302=AXIS2_PLACEMENT_3D('',#604,#362,#363);
#303=AXIS2_PLACEMENT_3D('',#605,#364,#365);
#304=AXIS2_PLACEMENT_3D('',#606,#366,#367);
#305=AXIS2_PLACEMENT_3D('',#607,#368,#369);
#306=AXIS2_PLACEMENT_3D('',#608,#370,#371);
#307=AXIS2_PLACEMENT_3D('',#610,#372,#373);
#308=AXIS2_PLACEMENT_3D('',#612,#374,#375);
#309=AXIS2_PLACEMENT_3D('',#613,#376,#377);
#310=AXIS2_PLACEMENT_3D('',#614,#378,#379);
#311=AXIS2_PLACEMENT_3D('',#615,#380,#381);
#312=AXIS2_PLACEMENT_3D('',#616,#382,#383);
#313=AXIS2_PLACEMENT_3D('',#617,#384,#385);
#314=AXIS2_PLACEMENT_3D('',#618,#386,#387);
#315=AXIS2_PLACEMENT_3D('',#619,#388,#389);
#316=AXIS2_PLACEMENT_3D('',#621,#390,#391);
#317=AXIS2_PLACEMENT_3D('',#622,#392,#393);
#318=AXIS2_PLACEMENT_3D('',#623,#394,#395);
#319=AXIS2_PLACEMENT_3D('',#624,#396,#397);
#320=AXIS2_PLACEMENT_3D('',#625,#398,#399);
#321=AXIS2_PLACEMENT_3D('',#626,#400,#401);
#322=AXIS2_PLACEMENT_3D('',#627,#402,#403);
#323=AXIS2_PLACEMENT_3D('',#628,#404,#405);
#324=AXIS2_PLACEMENT_3D('',#630,#406,#407);
#325=AXIS2_PLACEMENT_3D('',#631,#408,#409);
#326=AXIS2_PLACEMENT_3D('',#633,#410,#411);
#327=AXIS2_PLACEMENT_3D('',#634,#412,#413);
#328=AXIS2_PLACEMENT_3D('',#635,#414,#415);
#329=DIRECTION('axis',(0.,0.,1.));
#330=DIRECTION('refdir',(1.,0.,0.));
#331=DIRECTION('center_axis',(0.,-1.,0.));
#332=DIRECTION('ref_axis',(0.,0.,-1.));
#333=DIRECTION('center_axis',(0.,-1.,0.));
#334=DIRECTION('ref_axis',(1.22464679914735E-16,0.,1.));
#335=DIRECTION('center_axis',(-1.,0.,-1.22464679914735E-16));
#336=DIRECTION('ref_axis',(-1.22464679914735E-16,0.,1.));
#337=DIRECTION('center_axis',(0.,1.,0.));
#338=DIRECTION('ref_axis',(1.22464679914735E-16,0.,1.));
#339=DIRECTION('center_axis',(0.,-1.,0.));
#340=DIRECTION('ref_axis',(0.,0.,-1.));
#341=DIRECTION('',(0.,1.,0.));
#342=DIRECTION('center_axis',(0.,-1.,0.));
#343=DIRECTION('ref_axis',(0.,0.,-1.));
#344=DIRECTION('center_axis',(0.,1.,0.));
#345=DIRECTION('ref_axis',(0.,0.,1.));
#346=DIRECTION('center_axis',(0.,1.,0.));
#347=DIRECTION('ref_axis',(0.,0.,1.));
#348=DIRECTION('center_axis',(0.,0.,-1.));
#349=DIRECTION('ref_axis',(-1.,0.,0.));
#350=DIRECTION('',(0.,0.,1.));
#351=DIRECTION('center_axis',(0.,0.,-1.));
#352=DIRECTION('ref_axis',(-1.,0.,0.));
#353=DIRECTION('',(0.,0.,1.));
#354=DIRECTION('center_axis',(0.,1.,0.));
#355=DIRECTION('ref_axis',(0.,0.,1.));
#356=DIRECTION('center_axis',(0.,1.,0.));
#357=DIRECTION('ref_axis',(0.,0.,1.));
#358=DIRECTION('center_axis',(0.,1.,0.));
#359=DIRECTION('ref_axis',(0.,0.,1.));
#360=DIRECTION('center_axis',(0.,1.,0.));
#361=DIRECTION('ref_axis',(0.,0.,1.));
#362=DIRECTION('center_axis',(-1.,0.,1.22464679914735E-16));
#363=DIRECTION('ref_axis',(-1.22464679914735E-16,0.,-1.));
#364=DIRECTION('center_axis',(0.,-1.,0.));
#365=DIRECTION('ref_axis',(0.,0.,1.));
#366=DIRECTION('center_axis',(0.,1.,0.));
#367=DIRECTION('ref_axis',(0.,0.,1.));
#368=DIRECTION('center_axis',(0.,1.,0.));
#369=DIRECTION('ref_axis',(0.,0.,1.));
#370=DIRECTION('center_axis',(0.,1.,-6.12323399573677E-17));
#371=DIRECTION('ref_axis',(0.,0.,-1.));
#372=DIRECTION('center_axis',(0.,-1.,0.));
#373=DIRECTION('ref_axis',(0.,0.,-1.));
#374=DIRECTION('center_axis',(-1.,0.,1.22464679914735E-16));
#375=DIRECTION('ref_axis',(1.22464679914735E-16,0.,1.));
#376=DIRECTION('center_axis',(0.,-1.,0.));
#377=DIRECTION('ref_axis',(0.,0.,-1.));
#378=DIRECTION('center_axis',(0.,-1.,0.));
#379=DIRECTION('ref_axis',(0.,0.,-1.));
#380=DIRECTION('center_axis',(0.,-1.,0.));
#381=DIRECTION('ref_axis',(0.,0.,-1.));
#382=DIRECTION('center_axis',(0.,-1.,0.));
#383=DIRECTION('ref_axis',(0.,0.,-1.));
#384=DIRECTION('center_axis',(0.,-1.,0.));
#385=DIRECTION('ref_axis',(0.,0.,-1.));
#386=DIRECTION('center_axis',(0.,-1.,0.));
#387=DIRECTION('ref_axis',(0.,0.,-1.));
#388=DIRECTION('center_axis',(0.,-1.,0.));
#389=DIRECTION('ref_axis',(0.,0.,-1.));
#390=DIRECTION('center_axis',(0.,-1.,0.));
#391=DIRECTION('ref_axis',(0.,0.,-1.));
#392=DIRECTION('center_axis',(-1.,0.,-1.22464679914735E-16));
#393=DIRECTION('ref_axis',(-1.22464679914735E-16,0.,1.));
#394=DIRECTION('center_axis',(0.,-1.,0.));
#395=DIRECTION('ref_axis',(-1.22464679914735E-16,0.,1.));
#396=DIRECTION('center_axis',(0.,-1.,0.));
#397=DIRECTION('ref_axis',(0.,0.,-1.));
#398=DIRECTION('center_axis',(0.,-1.,0.));
#399=DIRECTION('ref_axis',(0.,0.,-1.));
#400=DIRECTION('center_axis',(0.,-1.,0.));
#401=DIRECTION('ref_axis',(0.,0.,-1.));
#402=DIRECTION('center_axis',(0.,1.,0.));
#403=DIRECTION('ref_axis',(0.,0.,1.));
#404=DIRECTION('center_axis',(6.12323399573677E-17,0.,1.));
#405=DIRECTION('ref_axis',(1.,0.,0.));
#406=DIRECTION('center_axis',(0.,1.,0.));
#407=DIRECTION('ref_axis',(1.,0.,0.));
#408=DIRECTION('center_axis',(0.,1.,0.));
#409=DIRECTION('ref_axis',(0.,0.,1.));
#410=DIRECTION('center_axis',(-1.,0.,1.22464679914735E-16));
#411=DIRECTION('ref_axis',(-1.22464679914735E-16,0.,-1.));
#412=DIRECTION('center_axis',(0.,1.,0.));
#413=DIRECTION('ref_axis',(1.,0.,0.));
#414=DIRECTION('center_axis',(0.,1.,0.));
#415=DIRECTION('ref_axis',(0.,0.,1.));
#416=CARTESIAN_POINT('',(0.,0.,0.));
#417=CARTESIAN_POINT('Origin',(0.,2.25,0.));
#418=CARTESIAN_POINT('',(-7.34788079488412E-16,2.25,6.));
#419=CARTESIAN_POINT('Origin',(0.,2.25,0.));
#420=CARTESIAN_POINT('',(-7.65404249467096E-16,2.,6.25));
#421=CARTESIAN_POINT('Origin',(-7.65404249467096E-16,2.25,6.25));
#422=CARTESIAN_POINT('Origin',(0.,2.,0.));
#423=CARTESIAN_POINT('Origin',(0.,0.,0.));
#424=CARTESIAN_POINT('',(-7.34788079488412E-16,3.4,6.));
#425=CARTESIAN_POINT('',(-7.34788079488412E-16,0.,6.));
#426=CARTESIAN_POINT('Origin',(0.,3.4,0.));
#427=CARTESIAN_POINT('Origin',(6.5,2.,0.));
#428=CARTESIAN_POINT('',(-7.80712334456438E-16,2.,6.375));
#429=CARTESIAN_POINT('Origin',(0.,2.,0.));
#430=CARTESIAN_POINT('Origin',(-1.65,2.65,3.));
#431=CARTESIAN_POINT('',(-1.65,2.9,-1.13026545554573));
#432=CARTESIAN_POINT('',(-1.65,2.4,-1.13026545554573));
#433=CARTESIAN_POINT('Ctrl Pts',(-1.65,2.4,-1.13026545554573));
#434=CARTESIAN_POINT('Ctrl Pts',(-1.72849411863629,2.4,-1.01567706826521));
#435=CARTESIAN_POINT('Ctrl Pts',(-1.80409884325396,2.43798258241223,-0.872075267164949));
#436=CARTESIAN_POINT('Ctrl Pts',(-1.86616972796359,2.52183584056683,-0.720435422005504));
#437=CARTESIAN_POINT('Ctrl Pts',(-1.88209171026579,2.55033568471061,-0.677169661971932));
#438=CARTESIAN_POINT('Ctrl Pts',(-1.89380445442641,2.59394392296759,-0.643084366673156));
#439=CARTESIAN_POINT('Ctrl Pts',(-1.89605256040673,2.60430401591811,-0.636400409383864));
#440=CARTESIAN_POINT('Ctrl Pts',(-1.89915320980684,2.6266212536283,-0.627092225923272));
#441=CARTESIAN_POINT('Ctrl Pts',(-1.9,2.63859244714107,-0.62449979983984));
#442=CARTESIAN_POINT('Ctrl Pts',(-1.9,2.66140755285893,-0.62449979983984));
#443=CARTESIAN_POINT('Ctrl Pts',(-1.89915320980684,2.6733787463717,-0.627092225923272));
#444=CARTESIAN_POINT('Ctrl Pts',(-1.89605256040673,2.69569598408189,-0.636400409383864));
#445=CARTESIAN_POINT('Ctrl Pts',(-1.89380445442641,2.70605607703241,-0.643084366673156));
#446=CARTESIAN_POINT('Ctrl Pts',(-1.88209171026579,2.74966431528939,-0.677169661971932));
#447=CARTESIAN_POINT('Ctrl Pts',(-1.86616972796359,2.77816415943317,-0.720435422005504));
#448=CARTESIAN_POINT('Ctrl Pts',(-1.80409884325396,2.86201741758777,-0.872075267164949));
#449=CARTESIAN_POINT('Ctrl Pts',(-1.72849411863629,2.9,-1.01567706826521));
#450=CARTESIAN_POINT('Ctrl Pts',(-1.65,2.9,-1.13026545554573));
#451=CARTESIAN_POINT('',(-1.4,2.65,-1.42828568570857));
#452=CARTESIAN_POINT('Ctrl Pts',(-1.65,2.4,-1.13026545554573));
#453=CARTESIAN_POINT('Ctrl Pts',(-1.62078698054784,2.4,-1.17291161610877));
#454=CARTESIAN_POINT('Ctrl Pts',(-1.58709129944478,2.40523767113886,-1.21818208548167));
#455=CARTESIAN_POINT('Ctrl Pts',(-1.51993670419963,2.4334999990745,-1.30101958991738));
#456=CARTESIAN_POINT('Ctrl Pts',(-1.48645252737183,2.45618101764588,-1.33868300049777));
#457=CARTESIAN_POINT('Ctrl Pts',(-1.4428681985775,2.50780252700787,-1.38516648360332));
#458=CARTESIAN_POINT('Ctrl Pts',(-1.42737252120055,2.53238100478549,-1.40101366457902));
#459=CARTESIAN_POINT('Ctrl Pts',(-1.40588773418295,2.58830360046142,-1.42257205667417));
#460=CARTESIAN_POINT('Ctrl Pts',(-1.4,2.61968568106041,-1.42828568570857));
#461=CARTESIAN_POINT('Ctrl Pts',(-1.4,2.65,-1.42828568570857));
#462=CARTESIAN_POINT('',(-1.4,2.65,1.42828568570857));
#463=CARTESIAN_POINT('',(-1.4,2.65,3.));
#464=CARTESIAN_POINT('',(-1.65,2.4,1.13026545554573));
#465=CARTESIAN_POINT('Ctrl Pts',(-1.4,2.65,1.42828568570857));
#466=CARTESIAN_POINT('Ctrl Pts',(-1.4,2.61968568106041,1.42828568570857));
#467=CARTESIAN_POINT('Ctrl Pts',(-1.40588773418295,2.58830360046142,1.42257205667418));
#468=CARTESIAN_POINT('Ctrl Pts',(-1.42737252120055,2.53238100478549,1.40101366457902));
#469=CARTESIAN_POINT('Ctrl Pts',(-1.4428681985775,2.50780252700787,1.38516648360332));
#470=CARTESIAN_POINT('Ctrl Pts',(-1.48645252737183,2.45618101764588,1.33868300049777));
#471=CARTESIAN_POINT('Ctrl Pts',(-1.51993670419963,2.4334999990745,1.30101958991738));
#472=CARTESIAN_POINT('Ctrl Pts',(-1.58709129944478,2.40523767113886,1.21818208548167));
#473=CARTESIAN_POINT('Ctrl Pts',(-1.62078698054784,2.4,1.17291161610877));
#474=CARTESIAN_POINT('Ctrl Pts',(-1.65,2.4,1.13026545554573));
#475=CARTESIAN_POINT('',(-1.64999999999935,2.90000000000094,1.13026545554453));
#476=CARTESIAN_POINT('Ctrl Pts',(-1.65,2.9,1.13026545554573));
#477=CARTESIAN_POINT('Ctrl Pts',(-1.72849411863629,2.9,1.01567706826521));
#478=CARTESIAN_POINT('Ctrl Pts',(-1.80409884325396,2.86201741758777,0.872075267164949));
#479=CARTESIAN_POINT('Ctrl Pts',(-1.86616972796359,2.77816415943317,0.720435422005504));
#480=CARTESIAN_POINT('Ctrl Pts',(-1.88209171026579,2.74966431528939,0.677169661971932));
#481=CARTESIAN_POINT('Ctrl Pts',(-1.89380445442641,2.70605607703241,0.643084366673156));
#482=CARTESIAN_POINT('Ctrl Pts',(-1.89605256040673,2.69569598408189,0.636400409383864));
#483=CARTESIAN_POINT('Ctrl Pts',(-1.89915320980684,2.6733787463717,0.627092225923272));
#484=CARTESIAN_POINT('Ctrl Pts',(-1.9,2.66140755285893,0.62449979983984));
#485=CARTESIAN_POINT('Ctrl Pts',(-1.9,2.63859244714107,0.62449979983984));
#486=CARTESIAN_POINT('Ctrl Pts',(-1.89915320980684,2.6266212536283,0.627092225923272));
#487=CARTESIAN_POINT('Ctrl Pts',(-1.89605256040673,2.60430401591811,0.636400409383864));
#488=CARTESIAN_POINT('Ctrl Pts',(-1.89380445442641,2.59394392296759,0.643084366673156));
#489=CARTESIAN_POINT('Ctrl Pts',(-1.88209171026579,2.55033568471061,0.677169661971932));
#490=CARTESIAN_POINT('Ctrl Pts',(-1.86616972796359,2.52183584056683,0.720435422005504));
#491=CARTESIAN_POINT('Ctrl Pts',(-1.80409884325396,2.43798258241223,0.872075267164949));
#492=CARTESIAN_POINT('Ctrl Pts',(-1.72849411863629,2.4,1.01567706826521));
#493=CARTESIAN_POINT('Ctrl Pts',(-1.65,2.4,1.13026545554573));
#494=CARTESIAN_POINT('Ctrl Pts',(-1.65,2.9,1.13026545554573));
#495=CARTESIAN_POINT('Ctrl Pts',(-1.62078698054784,2.9,1.17291161610877));
#496=CARTESIAN_POINT('Ctrl Pts',(-1.58709129944478,2.89476232886114,1.21818208548167));
#497=CARTESIAN_POINT('Ctrl Pts',(-1.51993670419963,2.8665000009255,1.30101958991738));
#498=CARTESIAN_POINT('Ctrl Pts',(-1.48645252737183,2.84381898235412,1.33868300049777));
#499=CARTESIAN_POINT('Ctrl Pts',(-1.4428681985775,2.79219747299213,1.38516648360332));
#500=CARTESIAN_POINT('Ctrl Pts',(-1.42737252120055,2.76761899521451,1.40101366457902));
#501=CARTESIAN_POINT('Ctrl Pts',(-1.40588773418295,2.71169639953858,1.42257205667418));
#502=CARTESIAN_POINT('Ctrl Pts',(-1.4,2.68031431893959,1.42828568570857));
#503=CARTESIAN_POINT('Ctrl Pts',(-1.4,2.65,1.42828568570857));
#504=CARTESIAN_POINT('Ctrl Pts',(-1.4,2.65,-1.42828568570857));
#505=CARTESIAN_POINT('Ctrl Pts',(-1.4,2.68031431893959,-1.42828568570857));
#506=CARTESIAN_POINT('Ctrl Pts',(-1.40588773418295,2.71169639953858,-1.42257205667417));
#507=CARTESIAN_POINT('Ctrl Pts',(-1.42737252120055,2.76761899521451,-1.40101366457902));
#508=CARTESIAN_POINT('Ctrl Pts',(-1.4428681985775,2.79219747299213,-1.38516648360332));
#509=CARTESIAN_POINT('Ctrl Pts',(-1.48645252737183,2.84381898235412,-1.33868300049777));
#510=CARTESIAN_POINT('Ctrl Pts',(-1.51993670419963,2.8665000009255,-1.30101958991738));
#511=CARTESIAN_POINT('Ctrl Pts',(-1.58709129944478,2.89476232886114,-1.21818208548167));
#512=CARTESIAN_POINT('Ctrl Pts',(-1.62078698054784,2.9,-1.17291161610877));
#513=CARTESIAN_POINT('Ctrl Pts',(-1.65,2.9,-1.13026545554573));
#514=CARTESIAN_POINT('Origin',(1.65,2.65,3.));
#515=CARTESIAN_POINT('',(1.65,2.4,-1.13026545554573));
#516=CARTESIAN_POINT('',(1.65,2.9,-1.13026545554573));
#517=CARTESIAN_POINT('Ctrl Pts',(1.65,2.4,-1.13026545554573));
#518=CARTESIAN_POINT('Ctrl Pts',(1.62078698054784,2.4,-1.17291161610877));
#519=CARTESIAN_POINT('Ctrl Pts',(1.58709129944478,2.40523767113886,-1.21818208548167));
#520=CARTESIAN_POINT('Ctrl Pts',(1.51993670419963,2.4334999990745,-1.30101958991738));
#521=CARTESIAN_POINT('Ctrl Pts',(1.48645252737183,2.45618101764588,-1.33868300049777));
#522=CARTESIAN_POINT('Ctrl Pts',(1.4428681985775,2.50780252700787,-1.38516648360332));
#523=CARTESIAN_POINT('Ctrl Pts',(1.42737252120055,2.53238100478549,-1.40101366457902));
#524=CARTESIAN_POINT('Ctrl Pts',(1.40588773418295,2.58830360046142,-1.42257205667417));
#525=CARTESIAN_POINT('Ctrl Pts',(1.4,2.61968568106041,-1.42828568570857));
#526=CARTESIAN_POINT('Ctrl Pts',(1.4,2.68031431893959,-1.42828568570857));
#527=CARTESIAN_POINT('Ctrl Pts',(1.40588773418295,2.71169639953858,-1.42257205667417));
#528=CARTESIAN_POINT('Ctrl Pts',(1.42737252120055,2.76761899521451,-1.40101366457902));
#529=CARTESIAN_POINT('Ctrl Pts',(1.4428681985775,2.79219747299213,-1.38516648360332));
#530=CARTESIAN_POINT('Ctrl Pts',(1.48645252737183,2.84381898235412,-1.33868300049777));
#531=CARTESIAN_POINT('Ctrl Pts',(1.51993670419963,2.8665000009255,-1.30101958991738));
#532=CARTESIAN_POINT('Ctrl Pts',(1.58709129944478,2.89476232886114,-1.21818208548167));
#533=CARTESIAN_POINT('Ctrl Pts',(1.62078698054784,2.9,-1.17291161610877));
#534=CARTESIAN_POINT('Ctrl Pts',(1.65,2.9,-1.13026545554573));
#535=CARTESIAN_POINT('',(1.9,2.65,-0.62449979983984));
#536=CARTESIAN_POINT('Ctrl Pts',(1.65,2.4,-1.13026545554573));
#537=CARTESIAN_POINT('Ctrl Pts',(1.72849411863629,2.4,-1.01567706826521));
#538=CARTESIAN_POINT('Ctrl Pts',(1.80409884325396,2.43798258241223,-0.872075267164949));
#539=CARTESIAN_POINT('Ctrl Pts',(1.86616972796359,2.52183584056683,-0.720435422005504));
#540=CARTESIAN_POINT('Ctrl Pts',(1.88209171026579,2.55033568471061,-0.677169661971932));
#541=CARTESIAN_POINT('Ctrl Pts',(1.89380445442641,2.59394392296759,-0.643084366673156));
#542=CARTESIAN_POINT('Ctrl Pts',(1.89605256040673,2.60430401591811,-0.636400409383864));
#543=CARTESIAN_POINT('Ctrl Pts',(1.89915320980684,2.6266212536283,-0.627092225923272));
#544=CARTESIAN_POINT('Ctrl Pts',(1.9,2.63859244714107,-0.62449979983984));
#545=CARTESIAN_POINT('Ctrl Pts',(1.9,2.65,-0.62449979983984));
#546=CARTESIAN_POINT('',(1.9,2.65,0.62449979983984));
#547=CARTESIAN_POINT('',(1.9,2.65,3.));
#548=CARTESIAN_POINT('',(1.65,2.4,1.13026545554573));
#549=CARTESIAN_POINT('Ctrl Pts',(1.9,2.65,0.62449979983984));
#550=CARTESIAN_POINT('Ctrl Pts',(1.9,2.63859244714107,0.62449979983984));
#551=CARTESIAN_POINT('Ctrl Pts',(1.89915320980684,2.6266212536283,0.627092225923272));
#552=CARTESIAN_POINT('Ctrl Pts',(1.89605256040673,2.60430401591811,0.636400409383864));
#553=CARTESIAN_POINT('Ctrl Pts',(1.89380445442641,2.59394392296759,0.643084366673156));
#554=CARTESIAN_POINT('Ctrl Pts',(1.88209171026579,2.55033568471061,0.677169661971932));
#555=CARTESIAN_POINT('Ctrl Pts',(1.86616972796359,2.52183584056683,0.720435422005504));
#556=CARTESIAN_POINT('Ctrl Pts',(1.80409884325396,2.43798258241223,0.872075267164949));
#557=CARTESIAN_POINT('Ctrl Pts',(1.72849411863629,2.4,1.01567706826521));
#558=CARTESIAN_POINT('Ctrl Pts',(1.65,2.4,1.13026545554573));
#559=CARTESIAN_POINT('',(1.64999999999935,2.90000000000094,1.13026545554453));
#560=CARTESIAN_POINT('Ctrl Pts',(1.65,2.9,1.13026545554573));
#561=CARTESIAN_POINT('Ctrl Pts',(1.62078698054784,2.9,1.17291161610877));
#562=CARTESIAN_POINT('Ctrl Pts',(1.58709129944478,2.89476232886114,1.21818208548167));
#563=CARTESIAN_POINT('Ctrl Pts',(1.51993670419963,2.8665000009255,1.30101958991738));
#564=CARTESIAN_POINT('Ctrl Pts',(1.48645252737183,2.84381898235412,1.33868300049777));
#565=CARTESIAN_POINT('Ctrl Pts',(1.4428681985775,2.79219747299213,1.38516648360332));
#566=CARTESIAN_POINT('Ctrl Pts',(1.42737252120055,2.76761899521451,1.40101366457902));
#567=CARTESIAN_POINT('Ctrl Pts',(1.40588773418295,2.71169639953858,1.42257205667417));
#568=CARTESIAN_POINT('Ctrl Pts',(1.4,2.68031431893959,1.42828568570857));
#569=CARTESIAN_POINT('Ctrl Pts',(1.4,2.61968568106041,1.42828568570857));
#570=CARTESIAN_POINT('Ctrl Pts',(1.40588773418295,2.58830360046142,1.42257205667418));
#571=CARTESIAN_POINT('Ctrl Pts',(1.42737252120055,2.53238100478549,1.40101366457902));
#572=CARTESIAN_POINT('Ctrl Pts',(1.4428681985775,2.50780252700787,1.38516648360332));
#573=CARTESIAN_POINT('Ctrl Pts',(1.48645252737183,2.45618101764588,1.33868300049777));
#574=CARTESIAN_POINT('Ctrl Pts',(1.51993670419963,2.4334999990745,1.30101958991738));
#575=CARTESIAN_POINT('Ctrl Pts',(1.58709129944478,2.40523767113886,1.21818208548167));
#576=CARTESIAN_POINT('Ctrl Pts',(1.62078698054784,2.4,1.17291161610877));
#577=CARTESIAN_POINT('Ctrl Pts',(1.65,2.4,1.13026545554573));
#578=CARTESIAN_POINT('Ctrl Pts',(1.65,2.9,1.13026545554573));
#579=CARTESIAN_POINT('Ctrl Pts',(1.72849411863628,2.9,1.01567706826521));
#580=CARTESIAN_POINT('Ctrl Pts',(1.80409884325396,2.86201741758777,0.872075267164949));
#581=CARTESIAN_POINT('Ctrl Pts',(1.86616972796359,2.77816415943317,0.720435422005504));
#582=CARTESIAN_POINT('Ctrl Pts',(1.88209171026579,2.74966431528939,0.677169661971932));
#583=CARTESIAN_POINT('Ctrl Pts',(1.89380445442641,2.70605607703241,0.643084366673156));
#584=CARTESIAN_POINT('Ctrl Pts',(1.89605256040673,2.69569598408189,0.636400409383864));
#585=CARTESIAN_POINT('Ctrl Pts',(1.89915320980684,2.6733787463717,0.627092225923272));
#586=CARTESIAN_POINT('Ctrl Pts',(1.9,2.66140755285893,0.62449979983984));
#587=CARTESIAN_POINT('Ctrl Pts',(1.9,2.65,0.62449979983984));
#588=CARTESIAN_POINT('Ctrl Pts',(1.9,2.65,-0.62449979983984));
#589=CARTESIAN_POINT('Ctrl Pts',(1.9,2.66140755285893,-0.62449979983984));
#590=CARTESIAN_POINT('Ctrl Pts',(1.89915320980684,2.6733787463717,-0.627092225923272));
#591=CARTESIAN_POINT('Ctrl Pts',(1.89605256040673,2.69569598408189,-0.636400409383864));
#592=CARTESIAN_POINT('Ctrl Pts',(1.89380445442641,2.70605607703241,-0.643084366673156));
#593=CARTESIAN_POINT('Ctrl Pts',(1.88209171026579,2.74966431528939,-0.677169661971932));
#594=CARTESIAN_POINT('Ctrl Pts',(1.86616972796359,2.77816415943317,-0.720435422005504));
#595=CARTESIAN_POINT('Ctrl Pts',(1.80409884325396,2.86201741758777,-0.872075267164949));
#596=CARTESIAN_POINT('Ctrl Pts',(1.72849411863629,2.9,-1.01567706826521));
#597=CARTESIAN_POINT('Ctrl Pts',(1.65,2.9,-1.13026545554573));
#598=CARTESIAN_POINT('Origin',(0.,2.9,0.));
#599=CARTESIAN_POINT('Origin',(0.,2.9,0.));
#600=CARTESIAN_POINT('Origin',(0.,2.9,0.));
#601=CARTESIAN_POINT('',(-2.44929359829471E-16,2.9,-2.));
#602=CARTESIAN_POINT('Origin',(0.,2.9,0.));
#603=CARTESIAN_POINT('',(-3.06161699786838E-16,3.4,-2.5));
#604=CARTESIAN_POINT('Origin',(-3.06161699786838E-16,2.9,-2.5));
#605=CARTESIAN_POINT('Origin',(0.,3.4,0.));
#606=CARTESIAN_POINT('Origin',(0.,2.9,0.));
#607=CARTESIAN_POINT('Origin',(0.,2.9,0.));
#608=CARTESIAN_POINT('Origin',(0.,2.4,0.));
#609=CARTESIAN_POINT('',(-2.31633128513017E-16,1.75,1.89142803193777));
#610=CARTESIAN_POINT('Origin',(0.,1.75,0.));
#611=CARTESIAN_POINT('',(2.44929359829471E-16,2.4,2.));
#612=CARTESIAN_POINT('Origin',(0.,2.4,0.));
#613=CARTESIAN_POINT('Origin',(0.,2.4,0.));
#614=CARTESIAN_POINT('Origin',(0.,2.4,0.));
#615=CARTESIAN_POINT('Origin',(0.,2.4,0.));
#616=CARTESIAN_POINT('Origin',(0.,2.4,0.));
#617=CARTESIAN_POINT('Origin',(0.,2.4,0.));
#618=CARTESIAN_POINT('Origin',(0.,0.,0.));
#619=CARTESIAN_POINT('Origin',(0.,1.875,0.));
#620=CARTESIAN_POINT('',(-7.80712334456438E-16,1.75,6.375));
#621=CARTESIAN_POINT('Origin',(0.,1.75,0.));
#622=CARTESIAN_POINT('Origin',(-7.80712334456438E-16,1.875,6.375));
#623=CARTESIAN_POINT('Origin',(0.,0.,0.));
#624=CARTESIAN_POINT('Origin',(0.,0.,0.));
#625=CARTESIAN_POINT('Origin',(0.,0.,0.));
#626=CARTESIAN_POINT('Origin',(6.5,1.75,0.));
#627=CARTESIAN_POINT('Origin',(5.8,3.4,0.));
#628=CARTESIAN_POINT('Origin',(0.,7.32142857142857,0.));
#629=CARTESIAN_POINT('',(-5.76622370028703E-16,1.71486615678776,-4.70847897067276));
#630=CARTESIAN_POINT('Origin',(0.,1.71486615678776,0.));
#631=CARTESIAN_POINT('Origin',(0.,1.6,0.));
#632=CARTESIAN_POINT('',(-5.88436096634169E-16,1.75,-4.8049453690963));
#633=CARTESIAN_POINT('Origin',(-5.88436096634169E-16,1.6,-4.8049453690963));
#634=CARTESIAN_POINT('Origin',(0.,1.75,0.));
#635=CARTESIAN_POINT('Origin',(0.,1.75,0.));
#636=UNCERTAINTY_MEASURE_WITH_UNIT(LENGTH_MEASURE(0.01),#640,
'DISTANCE_ACCURACY_VALUE',
'Maximum model space distance between geometric entities at asserted c
onnectivities');
#637=UNCERTAINTY_MEASURE_WITH_UNIT(LENGTH_MEASURE(0.01),#640,
'DISTANCE_ACCURACY_VALUE',
'Maximum model space distance between geometric entities at asserted c
onnectivities');
#638=(
GEOMETRIC_REPRESENTATION_CONTEXT(3)
GLOBAL_UNCERTAINTY_ASSIGNED_CONTEXT((#636))
GLOBAL_UNIT_ASSIGNED_CONTEXT((#640,#642,#643))
REPRESENTATION_CONTEXT('','3D')
);
#639=(
GEOMETRIC_REPRESENTATION_CONTEXT(3)
GLOBAL_UNCERTAINTY_ASSIGNED_CONTEXT((#637))
GLOBAL_UNIT_ASSIGNED_CONTEXT((#640,#642,#643))
REPRESENTATION_CONTEXT('','3D')
);
#640=(
LENGTH_UNIT()
NAMED_UNIT(*)
SI_UNIT(.MILLI.,.METRE.)
);
#641=(
LENGTH_UNIT()
NAMED_UNIT(*)
SI_UNIT($,.METRE.)
);
#642=(
NAMED_UNIT(*)
PLANE_ANGLE_UNIT()
SI_UNIT($,.RADIAN.)
);
#643=(
NAMED_UNIT(*)
SI_UNIT($,.STERADIAN.)
SOLID_ANGLE_UNIT()
);
#644=SHAPE_DEFINITION_REPRESENTATION(#645,#646);
#645=PRODUCT_DEFINITION_SHAPE('',$,#648);
#646=SHAPE_REPRESENTATION('',(#287),#638);
#647=PRODUCT_DEFINITION_CONTEXT('part definition',#652,'design');
#648=PRODUCT_DEFINITION('ECG Snap Button 4mm','Snap Button v4',#649,#647);
#649=PRODUCT_DEFINITION_FORMATION('',$,#654);
#650=PRODUCT_RELATED_PRODUCT_CATEGORY('Snap Button v4','Snap Button v4',
(#654));
#651=APPLICATION_PROTOCOL_DEFINITION('international standard',
'automotive_design',2009,#652);
#652=APPLICATION_CONTEXT(
'Core Data for Automotive Mechanical Design Process');
#653=PRODUCT_CONTEXT('part definition',#652,'mechanical');
#654=PRODUCT('ECG Snap Button 4mm','Snap Button v4','STEP AP214',(#653));
#655=PRESENTATION_STYLE_ASSIGNMENT((#656));
#656=SURFACE_STYLE_USAGE(.BOTH.,#657);
#657=SURFACE_SIDE_STYLE('',(#658));
#658=SURFACE_STYLE_FILL_AREA(#659);
#659=FILL_AREA_STYLE('Steel - Satin',(#660));
#660=FILL_AREA_STYLE_COLOUR('Steel - Satin',#661);
#661=COLOUR_RGB('Steel - Satin',0.627450980392157,0.627450980392157,0.627450980392157);
ENDSEC;
END-ISO-10303-21;
